<svg width="278" height="139" viewBox="0 0 278 139" fill="none" xmlns="http://www.w3.org/2000/svg">
<g clip-path="url(#clip0_1_2251)">
<path d="M138.96 86.78C162.924 86.78 182.35 67.3536 182.35 43.39C182.35 19.4264 162.924 0 138.96 0C114.996 0 95.57 19.4264 95.57 43.39C95.57 67.3536 114.996 86.78 138.96 86.78Z" fill="#ECC402"/>
<path d="M151.89 40.6501C152.39 40.3001 152.85 39.9101 153.29 39.4801C155.35 37.4601 156.64 34.6401 156.64 31.5401C156.64 25.4201 151.63 20.4101 145.51 20.4101H129.6C125.67 20.3601 121.75 20.3601 117.82 20.3201C117.64 20.3201 117.45 20.6001 116.98 20.9801C118.51 21.0901 119.65 21.1501 120.78 21.2601C122.96 21.4701 123.41 21.7901 123.47 23.6601V46.5701C125.16 43.2201 128.09 40.5801 131.65 39.2701V23.1301H140.06C144.69 23.1301 148.47 26.9101 148.47 31.5401C148.47 34.3401 147.08 36.8401 144.96 38.3701C143.58 39.3601 141.89 39.9501 140.06 39.9501H136.76C131.62 39.9501 127.14 42.9101 124.93 47.2001C124 49.0101 123.47 51.0601 123.47 53.2301V66.4501H131.65V53.2301C131.65 50.2901 132.86 47.6301 134.82 45.7101C135.61 44.9301 136.52 44.2801 137.53 43.7801C138.94 43.0701 140.54 42.6801 142.22 42.6801C148.03 42.6801 152.78 47.4301 152.78 53.2401C152.78 59.0501 148.45 63.3601 143.01 63.7701H134.83V66.4601H148.94C155.66 65.8201 160.95 60.1201 160.95 53.2401C160.95 47.4101 157.15 42.4301 151.91 40.6501H151.89Z" fill="white"/>
<path d="M165.52 137.96C165.07 137.97 164.62 138.08 163.95 138.17H183.82C183.94 138.13 184.02 138.09 184.06 138.05C183.62 138.02 183.17 137.99 182.73 137.96C181.37 137.88 180 137.86 178.66 137.69C176.93 137.47 176.49 135.68 176.49 133.96C176.49 130.31 176.49 126.66 176.49 123.01C176.49 121.51 176.65 121.37 178.19 121.35C178.96 121.34 179.72 121.35 180.49 121.35C186.5 121.35 186.75 121.62 186.78 127.55C186.79 129.67 186.8 131.8 187.05 133.89C187.27 135.74 188.31 137.19 190.24 137.61C194.3 138.49 196.41 136.98 196.27 133.28C196.23 132.14 196.27 130.99 196.25 129.84C196.25 129.6 196.12 129.37 196.04 129.13L195.67 129.16C195.67 129.76 195.69 130.37 195.67 130.97C195.6 132.32 195.63 133.69 195.37 135.01C195.34 135.16 195.25 135.3 195.13 135.43C194.53 136.08 193.45 136 193.04 135.21C193 135.13 192.97 135.05 192.95 134.97C192.71 133.73 192.72 132.45 192.6 131.18C192.2 126.81 190.67 123.12 186.39 121.11C186.36 121.1 186.39 120.97 186.39 120.85C186.59 120.81 186.8 120.8 186.99 120.73C188.28 120.22 189.69 119.88 190.84 119.15C195.25 116.32 194.91 110.88 190.23 108.22C188.08 107 185.74 106.31 183.3 106.27C177.21 106.18 171.13 106.22 165.04 106.23C164.74 106.23 164.44 106.41 164.14 106.5C164.15 106.63 164.17 106.77 164.18 106.9C165.33 106.99 166.48 107.07 167.63 107.18C169.97 107.41 170.28 107.75 170.28 110.12C170.28 117.37 170.28 124.63 170.28 131.88C170.28 136.45 170.12 137.81 165.51 137.93L165.52 137.96ZM176.49 113.96H176.51C176.51 112.14 176.52 110.31 176.51 108.49C176.5 107.5 176.88 106.99 177.95 107.03C179.56 107.09 181.19 106.99 182.79 107.14C186.05 107.45 187.83 109.11 188.22 112.35C188.38 113.71 188.28 115.16 188 116.51C187.49 119 185.68 120.43 183.11 120.53C181.28 120.6 179.45 120.54 177.62 120.57C176.81 120.58 176.48 120.24 176.49 119.43C176.52 117.61 176.49 115.78 176.49 113.96Z" fill="black"/>
<path d="M277.75 123.98C277.8 124.38 277.88 124.77 277.88 125.17C277.89 128.82 277.85 132.47 277.91 136.12C277.93 137.23 277.58 137.58 276.45 137.57C266.96 137.53 257.46 137.55 247.97 137.54C247.54 137.54 247.1 137.4 246.67 137.33C246.67 137.17 246.68 137.02 246.69 136.86C247.33 136.81 247.96 136.75 248.6 136.72C252.55 136.49 252.8 136.23 252.8 132.3C252.8 124.92 252.8 117.53 252.8 110.15C252.8 107.78 252.49 107.44 250.15 107.21C249 107.1 247.85 107.02 246.7 106.93C246.69 106.8 246.67 106.66 246.66 106.53C246.96 106.43 247.26 106.26 247.56 106.26C256.84 106.25 266.12 106.26 275.4 106.24C276.04 106.24 276.46 106.39 276.45 107.15C276.43 110.71 276.44 114.28 276.43 117.84C276.43 117.99 276.34 118.14 276.03 118.37C275.9 117.99 275.76 117.61 275.63 117.23C274.89 115.04 274.35 112.75 273.35 110.68C272.19 108.3 270 107.13 267.32 107.06C265.23 107.01 263.15 107.02 261.06 107.06C259.56 107.08 259.04 107.57 259.02 109.05C258.98 112.49 259.02 115.92 258.99 119.36C258.99 120.35 259.5 120.69 260.4 120.75C264.18 121.01 266.14 119.64 267.08 115.95C267.39 114.74 267.6 113.5 267.87 112.17C268.62 113.06 268.67 129.18 267.96 130.3C267.85 129.96 267.73 129.71 267.69 129.45C267.53 128.4 267.43 127.34 267.23 126.31C266.49 122.63 264.19 121.3 260.01 121.58C259.65 121.6 259.06 122.27 259.05 122.64C258.99 126.75 259 130.87 259.04 134.99C259.04 136.1 259.74 136.74 260.83 136.74C263.17 136.74 265.51 136.76 267.84 136.58C271.02 136.34 273.43 134.67 274.78 131.85C275.74 129.85 276.24 127.63 276.93 125.5C277.09 125 277.17 124.48 277.28 123.97C277.44 123.97 277.6 123.98 277.75 123.99V123.98Z" fill="black"/>
<path d="M134.1 137.46C133.65 137.47 133.19 137.58 132.52 137.67C132.56 137.7 132.62 137.72 132.69 137.75H152.16C152.41 137.69 152.57 137.63 152.63 137.56C152.15 137.53 151.67 137.5 151.19 137.46C149.67 137.33 148.14 137.25 146.63 137.04C145.57 136.89 145.04 136.21 145.05 135.08C145.08 131.94 145.08 128.08 145.05 124.95C145.05 124.08 145.38 123.71 146.25 123.72C147.91 123.74 149.59 123.88 151.22 123.68C153.22 123.44 155.3 123.19 157.15 122.45C160.22 121.22 162.56 119.06 162.63 115.48C162.7 111.87 160.69 109.36 157.55 107.9C155.78 107.08 153.76 106.4 151.84 106.33C145.76 106.12 139.67 106.24 133.59 106.24C133.3 106.24 133 106.43 132.71 106.53C132.73 106.66 132.75 106.8 132.76 106.93C133.7 106.99 134.65 107.04 135.59 107.13C138.73 107.43 138.86 107.57 138.86 110.66C138.86 117.74 138.86 124.82 138.86 131.9C138.86 136.46 138.71 137.34 134.1 137.46ZM146.48 107.05C147.96 107.06 149.46 107 150.93 107.16C154.04 107.51 155.53 108.9 156.18 111.97C156.72 114.53 156.75 117.1 155.92 119.62C155.27 121.58 153.96 122.78 151.84 122.86C149.93 122.93 148.02 122.91 146.11 122.93C145.27 122.94 145.04 122.5 145.05 121.72C145.08 119.48 145.06 117.23 145.06 114.99C145.06 112.83 145.1 110.67 145.04 108.51C145.01 107.45 145.5 107.03 146.47 107.04L146.48 107.05Z" fill="black"/>
<path d="M201.98 137.28C200.73 137.51 199.46 137.61 198.2 137.77C197.79 137.82 197.39 137.9 196.73 138.01C196.81 138.06 196.94 138.1 197.12 138.15H215.43C215.88 138.08 216.17 137.99 216.26 137.9C214.68 137.78 213.28 137.71 211.89 137.55C210.15 137.35 209.69 135.78 209.69 134.05C209.69 125.91 209.69 117.76 209.69 109.62C209.69 107.92 210.12 107.45 211.83 107.26C212.89 107.14 213.95 107.12 215.01 107.04C215.39 107.01 215.76 106.92 216.13 106.85C216.13 106.74 216.13 106.63 216.13 106.52C215.88 106.43 215.64 106.25 215.39 106.25C209.52 106.23 203.64 106.23 197.77 106.25C197.5 106.25 197.22 106.48 196.95 106.61C196.98 106.73 197.01 106.84 197.04 106.96C197.45 106.99 197.85 107.02 198.26 107.05C199.36 107.13 200.47 107.16 201.57 107.3C202.69 107.44 203.45 107.96 203.45 109.27C203.44 117.63 203.45 125.98 203.45 134.34C203.45 135.38 202.96 137.11 201.96 137.29L201.98 137.28Z" fill="black"/>
<path d="M243.64 105.74V119.17C243.53 119.19 243.42 119.22 243.31 119.24C243.2 118.84 243.06 118.44 242.97 118.04C242.35 115.2 241.41 112.49 239.68 110.12C238.14 108.01 236.18 106.57 233.44 106.41C230.61 106.24 228.49 107.35 227.1 109.82C225.82 112.1 225.43 114.61 225.23 117.15C224.91 121.26 224.79 125.37 225.82 129.41C225.98 130.02 226.16 130.64 226.39 131.23C227.51 134.06 229.27 136.31 232.49 136.75C236.07 137.24 239.16 136.22 241.41 133.26C242.96 131.21 243.7 128.84 243.98 126.31C244.04 125.74 244.17 125.18 244.28 124.62C244.4 124.6 244.51 124.59 244.63 124.57C244.73 124.87 244.94 125.18 244.91 125.47C244.62 127.97 244.07 130.4 242.78 132.6C240.48 136.53 236.3 138.41 231.43 137.72C223.18 136.55 218.48 130.96 218.38 122.22C218.29 114.77 223 108.1 229.64 106.23C233.17 105.23 236.35 105.73 239.16 108.22C240.66 109.55 240.97 109.45 242.03 107.71C242.45 107.01 242.87 106.31 243.29 105.61C243.41 105.66 243.54 105.72 243.66 105.77L243.64 105.74Z" fill="black"/>
<path d="M0.34999 135.89C1.41999 135.8 2.48999 135.72 3.54999 135.61C6.06999 135.34 6.43999 134.93 6.43999 132.44C6.43999 124.68 6.43999 116.92 6.43999 109.16C6.43999 106.82 6.11999 106.47 3.75999 106.24C2.62999 106.13 1.49999 106.07 -0.0100098 105.96C0.45999 105.58 0.63999 105.3 0.82999 105.3C7.92999 105.37 15.04 105.32 22.13 105.65C23.86 105.73 25.72 106.77 27.2 107.83C31.52 110.9 30.93 116.28 26.13 118.52C24.95 119.07 23.65 119.33 22.47 119.7C23.59 120.04 24.88 120.28 26.03 120.83C27.2 121.38 28.35 122.1 29.31 122.97C32.42 125.79 32.22 130.6 28.93 133.4C26.32 135.63 23.15 136.49 19.83 136.55C13.66 136.67 7.48999 136.6 1.31999 136.59C0.98999 136.59 0.64999 136.47 0.31999 136.41C0.32999 136.25 0.33999 136.08 0.34999 135.92V135.89ZM12.64 127.6C12.64 129.55 12.64 131.5 12.64 133.45C12.65 135.18 12.92 135.62 14.67 135.66C16.69 135.71 18.75 135.6 20.75 135.3C23.27 134.93 24.79 133.3 25.07 130.8C25.27 129 25.32 127.15 25.1 125.36C24.76 122.56 23.22 120.98 20.42 120.6C18.29 120.3 16.11 120.35 13.94 120.31C13.04 120.29 12.58 120.77 12.61 121.76C12.67 123.71 12.63 125.66 12.63 127.61L12.64 127.6ZM12.64 112.97C12.64 114.62 12.7 116.28 12.62 117.93C12.57 118.99 13.08 119.5 14.01 119.45C16.16 119.34 18.34 119.3 20.45 118.89C22.43 118.5 23.77 117.07 24.04 115.04C24.24 113.55 24.25 111.98 24 110.51C23.6 108.12 21.96 106.68 19.6 106.35C17.85 106.11 16.05 106.23 14.27 106.23C13.13 106.23 12.6 106.84 12.63 108.01C12.68 109.66 12.64 111.32 12.63 112.97H12.64Z" fill="black"/>
<path d="M33.31 135.88C34.38 135.79 35.45 135.71 36.51 135.6C39.03 135.33 39.39 134.92 39.39 132.42C39.39 124.74 39.39 117.06 39.39 109.38C39.39 106.7 39.18 106.46 36.44 106.19C35.4 106.09 34.36 106.04 33.32 105.97L33.24 105.52C33.64 105.43 34.04 105.27 34.44 105.27C38.44 105.25 42.44 105.26 46.45 105.26C51.52 105.26 56.58 105.28 61.65 105.24C62.67 105.24 63.08 105.5 63.06 106.59C63 109.81 63.04 113.04 63.03 116.26C63.03 116.61 62.96 116.97 62.92 117.32C62.81 117.34 62.7 117.36 62.59 117.38C62.47 116.98 62.35 116.59 62.22 116.19C61.52 114.07 61.02 111.86 60.06 109.86C58.84 107.34 56.59 106.09 53.74 106.06C51.74 106.04 49.74 106.04 47.74 106.06C46.12 106.08 45.62 106.57 45.61 108.22C45.58 111.57 45.61 114.92 45.59 118.28C45.59 119.32 46.07 119.71 47.05 119.76C50.86 119.98 52.76 118.62 53.7 114.92C54 113.71 54.21 112.48 54.5 111.11C55.26 112.21 55.24 128.34 54.45 129.38C54.33 128.57 54.23 127.93 54.13 127.29C54.01 126.49 53.93 125.69 53.74 124.91C52.86 121.35 50.33 120.33 46.56 120.6C46.22 120.63 45.65 121.31 45.64 121.69C45.58 125.76 45.59 129.84 45.62 133.91C45.62 135.08 46.31 135.75 47.46 135.75C49.8 135.75 52.15 135.77 54.47 135.58C57.65 135.33 60.05 133.64 61.39 130.82C62.34 128.82 62.84 126.6 63.52 124.47C63.68 123.98 63.78 123.47 63.91 122.97C64.04 122.97 64.16 122.99 64.29 122.99C64.35 123.41 64.46 123.82 64.47 124.24C64.48 127.89 64.45 131.54 64.5 135.19C64.51 136.21 64.22 136.6 63.13 136.6C53.55 136.56 43.97 136.58 34.39 136.57C34.01 136.57 33.64 136.45 33.26 136.39L33.3 135.89L33.31 135.88Z" fill="black"/>
<path d="M92.41 119.03C92.56 119.03 92.71 119.01 92.87 119C92.94 118.28 93.03 117.55 93.09 116.83C93.31 114.27 93.84 111.8 95.16 109.56C96.57 107.15 98.66 105.98 101.49 106.04C102.69 106.07 103.12 106.49 103.12 107.7C103.08 116.1 103.1 126.46 103.1 134.86C103.1 136.67 102.68 137.21 100.87 137.46C99.65 137.63 98.41 137.64 97.18 137.73C97.13 137.73 97.08 137.73 97.03 137.74H115.38C115.3 137.74 115.21 137.73 115.13 137.72C113.69 137.59 112.25 137.49 110.82 137.3C109.73 137.15 109.25 136.46 109.26 135.34C109.28 126.65 109.28 115.99 109.26 107.29C109.26 106.32 109.67 106.09 110.56 106.03C113.17 105.86 115.08 106.95 116.47 109.07C118.24 111.75 119.07 114.75 119.39 117.91C119.43 118.33 119.55 118.75 119.63 119.16C119.76 119.16 119.89 119.17 120.01 119.18C120.1 118.86 120.25 118.54 120.26 118.22C120.31 114.32 120.32 110.42 120.37 106.52C120.38 105.61 120.04 105.23 119.1 105.23C110.46 105.25 101.82 105.25 93.19 105.23C92.33 105.23 91.96 105.51 91.98 106.41C92.06 110.27 92.09 114.13 92.16 117.98C92.16 118.32 92.34 118.67 92.43 119.01L92.41 119.03Z" fill="black"/>
<path d="M87.76 105.05C88.36 107.13 87.82 116.82 87.04 117.51C86.85 116.95 86.7 116.44 86.49 115.96C85.5 113.64 84.76 111.15 83.42 109.04C81.36 105.8 77.74 104.61 74.3 105.52C71.3 106.31 69.55 108.78 70.14 111.42C70.47 112.88 71.36 114.06 72.65 114.62C74.97 115.63 77.37 116.48 79.79 117.2C82.47 118 85.3 118.41 87.5 120.34C88.19 120.94 88.83 121.68 89.27 122.47C91.16 125.9 90.29 131.45 87.51 134.2C84.68 137 79.81 137.68 76.15 135.66C74.97 135.01 73.94 134.1 72.9 133.23C71.66 132.2 71.52 132.17 70.55 133.51C69.84 134.49 69.18 135.49 68.3 136.78V122.4C68.45 122.38 68.59 122.35 68.74 122.33C68.9 122.72 69.1 123.09 69.21 123.49C70 126.41 70.97 129.25 72.75 131.74C75.04 134.96 78.08 136.68 82.15 136.1C84.58 135.75 86.45 134.07 86.95 131.77C87.48 129.36 86.83 127.34 84.78 125.82C82.54 124.15 79.89 123.54 77.27 122.8C75.32 122.25 73.32 121.71 71.51 120.82C68 119.1 66.58 116.03 67.18 112.18C67.79 108.29 70.28 105.69 74.07 104.98C77.53 104.33 80.65 104.9 83.28 107.43C84.64 108.74 84.82 108.68 86.06 107.15C86.6 106.49 87.13 105.83 87.77 105.04L87.76 105.05Z" fill="black"/>
</g>
<defs>
<clipPath id="clip0_1_2251">
<rect width="277.91" height="138.17" fill="white"/>
</clipPath>
</defs>
</svg>
