<svg width="24" height="24" viewBox="0 0 24 24" fill="none" xmlns="http://www.w3.org/2000/svg">
<path d="M12 24C18.6274 24 24 18.6274 24 12C24 5.37258 18.6274 0 12 0C5.37258 0 0 5.37258 0 12C0 18.6274 5.37258 24 12 24Z" fill="#ECC402"/>
<path d="M15.5759 11.2416C15.7142 11.1448 15.8414 11.037 15.9631 10.9181C16.5328 10.3594 16.8896 9.5795 16.8896 8.72216C16.8896 7.0296 15.504 5.64403 13.8114 5.64403H9.41135C8.32446 5.6302 7.24034 5.6302 6.15345 5.61914C6.10367 5.61914 6.05113 5.69658 5.92114 5.80167C6.34428 5.83209 6.65956 5.84869 6.97207 5.87911C7.57498 5.93719 7.69943 6.02569 7.71603 6.54286V12.8789C8.18341 11.9524 8.99374 11.2223 9.9783 10.86V6.39628H12.3042C13.5847 6.39628 14.6301 7.44168 14.6301 8.72216C14.6301 9.49653 14.2456 10.1879 13.6593 10.6111C13.2777 10.8849 12.8103 11.048 12.3042 11.048H11.3915C9.97 11.048 8.73101 11.8667 8.1198 13.0531C7.8626 13.5537 7.71603 14.1206 7.71603 14.7208V18.3769H9.9783V14.7208C9.9783 13.9077 10.3129 13.172 10.855 12.641C11.0735 12.4253 11.3252 12.2456 11.6045 12.1073C11.9944 11.9109 12.4369 11.8031 12.9016 11.8031C14.5084 11.8031 15.822 13.1167 15.822 14.7235C15.822 16.3304 14.6245 17.5223 13.12 17.6357H10.8578V18.3797H14.76C16.6185 18.2027 18.0815 16.6263 18.0815 14.7235C18.0815 13.1112 17.0306 11.7339 15.5814 11.2416H15.5759Z" fill="white"/>
</svg>
