<svg width="21" height="21" viewBox="0 0 21 21" fill="none" xmlns="http://www.w3.org/2000/svg">
<path d="M10.1591 20.4805C7.81546 20.4803 5.54633 19.657 3.74786 18.1543C1.94939 16.6517 0.735833 14.565 0.319071 12.2587C-0.0976912 9.95247 0.308815 7.57308 1.46762 5.53598C2.62642 3.49889 4.4639 1.9335 6.65925 1.11313C8.85461 0.292762 11.2684 0.269522 13.4791 1.04747C15.6899 1.82542 17.5571 3.35513 18.7549 5.36954C19.9528 7.38395 20.405 9.75507 20.0327 12.0689C19.6604 14.3828 18.4873 16.4924 16.7181 18.0295C16.6521 18.0865 16.5871 18.1425 16.5181 18.1965C14.7269 19.6713 12.4793 20.4786 10.1591 20.4805ZM10.1591 15.4805C9.39275 15.478 8.63621 15.6527 7.94857 15.9909C7.26093 16.3292 6.66081 16.8219 6.19509 17.4305C7.32393 18.0753 8.5928 18.4357 9.89209 18.4805C9.98209 18.4805 10.0601 18.4805 10.1321 18.4805H10.1591C10.2371 18.4805 10.3211 18.4805 10.4171 18.4805C11.7187 18.4389 12.9906 18.0802 14.1221 17.4355C13.657 16.8261 13.0573 16.3325 12.3698 15.9934C11.6823 15.6543 10.9257 15.4787 10.1591 15.4805ZM10.1591 13.4805C11.236 13.4769 12.2989 13.7234 13.2643 14.2006C14.2297 14.6778 15.071 15.3727 15.7221 16.2305C16.6715 15.3118 17.3787 14.1723 17.7803 12.9137C18.182 11.6551 18.2658 10.3166 18.0241 9.01773C17.7824 7.71889 17.2228 6.50011 16.3952 5.47026C15.5677 4.4404 14.498 3.63153 13.2816 3.11586C12.0653 2.60019 10.7402 2.39379 9.42461 2.51508C8.10905 2.63637 6.844 3.08159 5.74244 3.81097C4.64089 4.54034 3.73711 5.53117 3.11183 6.69498C2.48655 7.85878 2.15922 9.15933 2.15909 10.4805C2.15549 11.554 2.3697 12.617 2.78875 13.6053C3.2078 14.5937 3.82298 15.4867 4.59709 16.2305C5.2479 15.3727 6.08906 14.6778 7.05427 14.2005C8.01948 13.7233 9.08235 13.4768 10.1591 13.4805ZM10.1591 12.4805C9.36796 12.4805 8.5946 12.2459 7.93681 11.8063C7.27901 11.3668 6.76632 10.7421 6.46357 10.0112C6.16082 9.2803 6.0816 8.47603 6.23595 7.70011C6.39029 6.92418 6.77125 6.21145 7.33066 5.65204C7.89007 5.09263 8.6028 4.71167 9.37873 4.55733C10.1546 4.40299 10.9589 4.4822 11.6898 4.78495C12.4207 5.0877 13.0454 5.60039 13.485 6.25819C13.9245 6.91598 14.1591 7.68934 14.1591 8.48047C14.1591 9.54134 13.7377 10.5588 12.9875 11.3089C12.2374 12.059 11.22 12.4805 10.1591 12.4805ZM10.1591 6.48047C9.76352 6.48047 9.37684 6.59777 9.04795 6.81753C8.71905 7.03729 8.4627 7.34965 8.31133 7.7151C8.15995 8.08055 8.12035 8.48269 8.19752 8.87065C8.27469 9.25861 8.46517 9.61498 8.74487 9.89468C9.02458 10.1744 9.38094 10.3649 9.76891 10.442C10.1569 10.5192 10.559 10.4796 10.9245 10.3282C11.2899 10.1769 11.6023 9.92051 11.822 9.59161C12.0418 9.26271 12.1591 8.87603 12.1591 8.48047C12.1591 7.95004 11.9484 7.44133 11.5733 7.06626C11.1982 6.69118 10.6895 6.48047 10.1591 6.48047Z" fill="black"/>
</svg>
