<svg width="21" height="21" viewBox="0 0 21 21" fill="none" xmlns="http://www.w3.org/2000/svg">
<path d="M10.1591 20.832C7.81546 20.8319 5.54633 20.0086 3.74786 18.5059C1.94939 17.0032 0.735833 14.9166 0.319071 12.6103C-0.0976912 10.304 0.308815 7.92464 1.46762 5.88755C2.62642 3.85045 4.4639 2.28507 6.65925 1.4647C8.85461 0.644325 11.2684 0.621085 13.4791 1.39903C15.6899 2.17698 17.5571 3.70669 18.7549 5.7211C19.9528 7.73551 20.405 10.1066 20.0327 12.4205C19.6604 14.7344 18.4873 16.844 16.7181 18.381C16.6521 18.438 16.5871 18.494 16.5181 18.548C14.7269 20.0228 12.4793 20.8301 10.1591 20.832ZM10.1591 15.832C9.39275 15.8295 8.63621 16.0042 7.94857 16.3425C7.26093 16.6808 6.66081 17.1734 6.19509 17.782C7.32393 18.4269 8.5928 18.7873 9.89209 18.832C9.98209 18.832 10.0601 18.832 10.1321 18.832H10.1591C10.2371 18.832 10.3211 18.832 10.4171 18.832C11.7187 18.7905 12.9906 18.4317 14.1221 17.787C13.657 17.1777 13.0573 16.6841 12.3698 16.345C11.6823 16.0058 10.9257 15.8303 10.1591 15.832ZM10.1591 13.832C11.236 13.8285 12.2989 14.075 13.2643 14.5522C14.2297 15.0294 15.071 15.7243 15.7221 16.582C16.6715 15.6633 17.3787 14.5238 17.7803 13.2652C18.182 12.0066 18.2658 10.6681 18.0241 9.36929C17.7824 8.07045 17.2228 6.85168 16.3952 5.82182C15.5677 4.79197 14.498 3.98309 13.2816 3.46742C12.0653 2.95175 10.7402 2.74535 9.42461 2.86664C8.10905 2.98794 6.844 3.43315 5.74244 4.16253C4.64089 4.8919 3.73711 5.88274 3.11183 7.04654C2.48655 8.21034 2.15922 9.51089 2.15909 10.832C2.15549 11.9055 2.3697 12.9686 2.78875 13.9569C3.2078 14.9452 3.82298 15.8383 4.59709 16.582C5.2479 15.7242 6.08906 15.0293 7.05427 14.5521C8.01948 14.0749 9.08235 13.8284 10.1591 13.832ZM10.1591 12.832C9.36796 12.832 8.5946 12.5974 7.93681 12.1579C7.27901 11.7184 6.76632 11.0937 6.46357 10.3628C6.16082 9.63186 6.0816 8.82759 6.23595 8.05167C6.39029 7.27575 6.77125 6.56301 7.33066 6.0036C7.89007 5.44419 8.6028 5.06323 9.37873 4.90889C10.1546 4.75455 10.9589 4.83376 11.6898 5.13651C12.4207 5.43926 13.0454 5.95195 13.485 6.60975C13.9245 7.26755 14.1591 8.04091 14.1591 8.83203C14.1591 9.8929 13.7377 10.9103 12.9875 11.6605C12.2374 12.4106 11.22 12.832 10.1591 12.832ZM10.1591 6.83203C9.76352 6.83203 9.37684 6.94933 9.04795 7.16909C8.71905 7.38885 8.4627 7.70121 8.31133 8.06666C8.15995 8.43212 8.12035 8.83425 8.19752 9.22221C8.27469 9.61017 8.46517 9.96654 8.74487 10.2462C9.02458 10.5259 9.38094 10.7164 9.76891 10.7936C10.1569 10.8708 10.559 10.8312 10.9245 10.6798C11.2899 10.5284 11.6023 10.2721 11.822 9.94317C12.0418 9.61427 12.1591 9.22759 12.1591 8.83203C12.1591 8.3016 11.9484 7.79289 11.5733 7.41782C11.1982 7.04274 10.6895 6.83203 10.1591 6.83203Z" fill="#ECC402"/>
</svg>
