<svg width="18" height="21" viewBox="0 0 18 21" fill="none" xmlns="http://www.w3.org/2000/svg">
<path d="M9 11C8.40666 11 7.82664 10.8241 7.33329 10.4944C6.83994 10.1648 6.45543 9.69623 6.22836 9.14805C6.0013 8.59987 5.94189 7.99667 6.05765 7.41473C6.1734 6.83279 6.45912 6.29824 6.87868 5.87868C7.29824 5.45912 7.83279 5.1734 8.41473 5.05765C8.99667 4.94189 9.59987 5.0013 10.1481 5.22836C10.6962 5.45543 11.1648 5.83994 11.4944 6.33329C11.8241 6.82664 12 7.40666 12 8C12 8.79565 11.6839 9.55871 11.1213 10.1213C10.5587 10.6839 9.79565 11 9 11ZM9 6.5C8.70333 6.5 8.41332 6.58797 8.16665 6.7528C7.91997 6.91762 7.72771 7.15189 7.61418 7.42598C7.50065 7.70007 7.47095 8.00167 7.52882 8.29264C7.5867 8.58361 7.72956 8.85088 7.93934 9.06066C8.14912 9.27044 8.41639 9.4133 8.70737 9.47118C8.99834 9.52906 9.29994 9.49935 9.57403 9.38582C9.84812 9.27229 10.0824 9.08003 10.2472 8.83336C10.412 8.58668 10.5 8.29667 10.5 8C10.5 7.60218 10.342 7.22065 10.0607 6.93934C9.77936 6.65804 9.39783 6.5 9 6.5Z" fill="black"/>
<path d="M8.99999 20.0719C8.74646 20.0714 8.49625 20.0142 8.26768 19.9045C8.03911 19.7948 7.83797 19.6354 7.67899 19.4379C6.24699 17.6859 4.57899 15.5379 2.73399 13.0639L2.72799 13.0559C1.5807 11.6346 0.958097 9.86147 0.964992 8.03491C0.964077 6.75053 1.271 5.48463 1.86004 4.34328C2.44909 3.20193 3.30309 2.21837 4.35051 1.47502C5.39793 0.731673 6.60824 0.250179 7.88006 0.0708831C9.15187 -0.108413 10.4481 0.0197127 11.6602 0.444524C12.8723 0.869334 13.965 1.57846 14.8466 2.51248C15.7282 3.4465 16.3731 4.57821 16.7273 5.81279C17.0815 7.04737 17.1347 8.34887 16.8823 9.60822C16.63 10.8676 16.0795 12.0481 15.277 13.0509V13.0559C15.236 13.1169 14.913 13.5489 14.377 14.2559C13.483 15.4349 11.768 17.6749 10.326 19.4389C10.1664 19.6369 9.9644 19.7965 9.73491 19.9061C9.50543 20.0156 9.25429 20.0723 8.99999 20.0719ZM8.99999 1.49991C7.26737 1.50177 5.60624 2.19087 4.3811 3.41602C3.15595 4.64117 2.46684 6.30229 2.46499 8.03491C2.45927 9.51967 2.96494 10.9611 3.89699 12.1169C3.90999 12.1329 3.92299 12.1489 3.93599 12.1669L4.05799 12.3299L4.14599 12.4479L4.40099 12.7869C4.70099 13.1869 5.10899 13.7239 5.58899 14.3509C6.86499 16.0209 7.96499 17.4129 8.84099 18.4899C8.85962 18.5148 8.88378 18.5349 8.91155 18.5488C8.93932 18.5627 8.96994 18.5699 9.00099 18.5699C9.03204 18.5699 9.06266 18.5627 9.09043 18.5488C9.11821 18.5349 9.14236 18.5148 9.16099 18.4899C10.269 17.1349 11.545 15.4899 12.42 14.3449C12.886 13.7349 13.309 13.1789 13.61 12.7789L13.865 12.4399L13.953 12.3219L14.012 12.2449C14.0399 12.2012 14.0703 12.1591 14.103 12.1189C15.0349 10.9627 15.5405 9.52095 15.535 8.03591C15.5334 6.30312 14.8444 4.64174 13.6192 3.41637C12.3941 2.19101 10.7328 1.50177 8.99999 1.49991Z" fill="black"/>
</svg>
