<svg width="26" height="31" viewBox="0 0 26 31" fill="none" xmlns="http://www.w3.org/2000/svg">
<path d="M21.7144 16.438C21.7593 21.1203 25.9535 22.6785 26 22.6984C25.9645 22.8083 25.3298 24.9189 23.7903 27.0991C22.4594 28.9839 21.0781 30.8619 18.9022 30.9008C16.7641 30.9389 16.0766 29.6722 13.6322 29.6722C11.1885 29.6722 10.4247 30.8619 8.40075 30.9389C6.30043 31.0159 4.70106 28.9007 3.35912 27.0228C0.617022 23.1814 -1.47851 16.1679 1.33526 11.4336C2.73308 9.0826 5.23109 7.59382 7.94245 7.55565C10.0049 7.51752 11.9516 8.90017 13.2124 8.90017C14.4724 8.90017 16.8381 7.23742 19.3251 7.48161C20.3662 7.5236 23.2886 7.88912 25.1652 10.5508C25.014 10.6416 21.6781 12.5233 21.7144 16.438ZM17.6962 4.94019C18.8112 3.6323 19.5617 1.81159 19.357 0C17.7497 0.0625954 15.8061 1.03784 14.6532 2.34501C13.62 3.50257 12.7152 5.35533 12.9593 7.13106C14.7509 7.26537 16.581 6.24891 17.6962 4.94019Z" fill="black"/>
</svg>
