<svg width="8" height="15" viewBox="0 0 8 15" fill="none" xmlns="http://www.w3.org/2000/svg">
<path d="M7.40429 1.28535L1.5738 7.04061C1.55037 7.06369 1.53172 7.09115 1.51892 7.12144C1.50612 7.15173 1.49942 7.18425 1.49921 7.21713C1.49899 7.25002 1.50527 7.28262 1.51768 7.31307C1.53008 7.34353 1.54837 7.37123 1.5715 7.39461L7.32677 13.2251C7.45832 13.3681 7.52922 13.5566 7.52453 13.7509C7.51984 13.9452 7.43993 14.1301 7.30163 14.2666C7.16333 14.4031 6.97743 14.4806 6.78311 14.4828C6.5888 14.4849 6.40122 14.4116 6.25991 14.2782L0.504644 8.4477C0.343181 8.28415 0.215516 8.09039 0.12894 7.87749C0.0423636 7.66459 -0.00142875 7.43672 6.34691e-05 7.2069C0.00155569 6.97708 0.0483033 6.7498 0.137637 6.53804C0.226971 6.32629 0.357141 6.1342 0.520714 5.97275L6.3512 0.218489C6.49423 0.0869348 6.68274 0.0160341 6.87701 0.0207238C7.07129 0.0254135 7.25616 0.105327 7.39268 0.24363C7.5292 0.381932 7.6067 0.567824 7.60887 0.762144C7.61104 0.956463 7.53769 1.14404 7.40429 1.28535Z" fill="black"/>
</svg>
