<svg width="24" height="25" viewBox="0 0 24 25" fill="none" xmlns="http://www.w3.org/2000/svg">
<path d="M18.1666 14.7913C17.4949 14.6468 16.9635 14.9587 16.493 15.231C16.0112 15.5117 15.0949 16.255 14.5697 16.0647C11.8809 14.9576 9.35192 12.6041 8.25717 9.90448C8.06423 9.36809 8.80403 8.44602 9.08262 7.95848C9.35295 7.48654 9.65836 6.95014 9.51907 6.27341C9.39319 5.66528 7.765 3.5935 7.18926 3.02695C6.80955 2.65272 6.42056 2.44689 6.02126 2.41363C4.51998 2.34918 2.8433 4.35235 2.54924 4.83158C1.81253 5.85344 1.81666 7.21314 2.56162 8.86184C4.35696 13.2902 11.1473 19.9734 15.5923 21.8362C16.4125 22.2198 17.1627 22.4121 17.8364 22.4121C18.4958 22.4121 19.0829 22.2281 19.5874 21.8632C19.9681 21.6439 22.0534 19.884 21.9987 18.3423C21.9657 17.9494 21.7604 17.5565 21.391 17.176C20.8287 16.5949 18.7702 14.9181 18.1666 14.7913Z" fill="black"/>
</svg>
