<svg width="14" height="14" viewBox="0 0 14 14" fill="none" xmlns="http://www.w3.org/2000/svg">
<path d="M0.469992 0.470072C0.400298 0.539723 0.34501 0.622423 0.307289 0.713449C0.269568 0.804474 0.250153 0.902041 0.250153 1.00057C0.250153 1.0991 0.269568 1.19667 0.307289 1.2877C0.34501 1.37872 0.400298 1.46142 0.469992 1.53107L5.93999 7.00107L0.469992 12.4701C0.337512 12.6122 0.265389 12.8003 0.268817 12.9946C0.272246 13.1889 0.350958 13.3743 0.488371 13.5117C0.625784 13.6491 0.811169 13.7278 1.00547 13.7312C1.19977 13.7347 1.38782 13.6626 1.52999 13.5301L6.99999 8.06007L12.47 13.5301C12.6122 13.6626 12.8002 13.7347 12.9945 13.7312C13.1888 13.7278 13.3742 13.6491 13.5116 13.5117C13.649 13.3743 13.7277 13.1889 13.7312 12.9946C13.7346 12.8003 13.6625 12.6122 13.53 12.4701L8.06099 7.00007L13.531 1.53007C13.6675 1.38856 13.7431 1.19907 13.7413 1.00242C13.7395 0.805774 13.6605 0.617701 13.5214 0.478709C13.3822 0.339718 13.1941 0.26093 12.9974 0.259315C12.8008 0.257699 12.6114 0.333386 12.47 0.470072L6.99999 5.93907L1.52999 0.470072C1.38937 0.329622 1.19874 0.250732 0.999992 0.250732C0.801242 0.250732 0.610618 0.329622 0.469992 0.470072Z" fill="black"/>
</svg>
