<svg width="120" height="24" viewBox="0 0 120 24" fill="none" xmlns="http://www.w3.org/2000/svg">
<g clip-path="url(#clip0_225_2908)">
<path d="M19.8409 20.8248C14.3012 20.8248 9.81163 16.6946 9.81163 11.6C9.81163 6.50513 14.3012 2.37887 19.8409 2.37887C21.7935 2.37887 23.6165 2.8909 25.1565 3.77844L19.8409 11.6L29.848 6.28711C28.7608 4.69432 27.2014 3.32186 25.3159 2.2804C22.9165 0.959578 19.5788 0.142159 15.8881 0.142159C10.6235 0.142159 6.00479 1.90121 3.42906 4.53546C1.52207 6.48281 0.386719 8.9337 0.386719 11.5999C0.386719 14.2679 1.52207 16.7206 3.42906 18.6693C6.01149 21.3069 10.5614 23.0556 15.7392 23.0556C20.9163 23.0556 25.4648 21.3055 28.0489 18.6693C28.1904 18.5242 28.3274 18.3776 28.457 18.2256L28.0667 16.8808C26.2512 19.2637 23.2441 20.8248 19.8409 20.8248Z" fill="black"/>
<path d="M53.0182 22.501L48.8181 8.09447C48.1434 5.76642 45.8379 4.05531 43.093 4.05531C42.3811 4.05531 41.6989 4.17226 41.0659 4.38397L32.0239 7.40715H41.3236L42.9128 12.8641C41.3713 11.6442 39.3636 10.902 37.1653 10.902C32.7999 10.902 29.2656 13.5917 29.2656 16.9096C29.2656 20.2277 32.7999 22.9214 37.1653 22.9214C40.3078 22.9214 43.087 21.5068 44.8013 19.3335L45.7232 22.501H53.0182ZM40.2066 20.2633C38.1929 20.2633 36.5606 18.7638 36.5606 16.9096C36.5606 15.0581 38.1929 13.5572 40.2066 13.5572C42.2202 13.5572 43.854 15.0581 43.854 16.9096C43.854 18.7638 42.2202 20.2633 40.2066 20.2633Z" fill="black"/>
<path d="M70.1422 4.05777C69.5911 4.05777 69.0698 4.16979 68.6051 4.37041L62.7996 6.85814C62.5121 5.26904 61.0108 4.05777 59.1997 4.05777C58.6517 4.05777 58.1289 4.16979 57.6582 4.37041L50.5703 7.40715H55.5538V22.5011H62.8487V9.08636C62.8487 8.16075 63.6634 7.40729 64.6732 7.40729C65.677 7.40729 66.4977 8.16075 66.4977 9.08636V22.5011H73.7897V7.40715C73.7897 5.55607 72.1558 4.05777 70.1422 4.05777Z" fill="black"/>
<path d="M115.891 4.05777C115.339 4.05777 114.814 4.16979 114.342 4.37041L108.543 6.85814C108.257 5.26904 106.755 4.05777 104.944 4.05777C104.396 4.05777 103.873 4.16979 103.401 4.37041L96.3164 7.40715H101.298V22.5011H108.592V9.08636C108.592 8.16075 109.408 7.40729 110.418 7.40729C111.425 7.40729 112.239 8.16075 112.239 9.08636V22.5011H119.537V7.40715C119.537 5.55607 117.902 4.05777 115.891 4.05777Z" fill="black"/>
<path d="M97.4951 13.557C97.4951 18.8035 92.8706 23.0556 87.1663 23.0556C81.4576 23.0556 76.8301 18.8035 76.8301 13.557C76.8301 8.31194 81.4576 4.05777 87.1663 4.05777C92.8706 4.05777 97.4951 8.31208 97.4951 13.557ZM87.5938 6.94072C87.2691 5.82298 86.0195 5.15949 84.8042 5.45994C83.5903 5.75916 82.865 6.90881 83.1912 8.02641L86.7344 20.1729C87.0621 21.2918 88.3087 21.9546 89.524 21.6588C90.7393 21.3561 91.4617 20.2072 91.1355 19.0897L87.5938 6.94072Z" fill="black"/>
</g>
<defs>
<clipPath id="clip0_225_2908">
<rect width="119.15" height="22.9134" fill="white" transform="translate(0.386719 0.142128)"/>
</clipPath>
</defs>
</svg>
