<svg width="20" height="19" viewBox="0 0 20 19" fill="none" xmlns="http://www.w3.org/2000/svg">
<path d="M15.5592 14.832H7.72118C7.05195 14.8321 6.40191 14.6085 5.87444 14.1966C5.34697 13.7847 4.97235 13.2083 4.81018 12.559L2.56718 3.59003C2.5132 3.3736 2.3884 3.18143 2.21264 3.04408C2.03688 2.90673 1.82024 2.83209 1.59718 2.83203H1.15918C0.893963 2.83203 0.639609 2.72667 0.452073 2.53914C0.264537 2.3516 0.15918 2.09725 0.15918 1.83203C0.15918 1.56681 0.264537 1.31246 0.452073 1.12492C0.639609 0.937388 0.893963 0.832031 1.15918 0.832031H1.59718C2.2664 0.831937 2.91645 1.05561 3.44392 1.46748C3.97139 1.87934 4.346 2.45575 4.50818 3.10503L4.69018 3.83203H16.6662C17.1155 3.83196 17.5591 3.93281 17.9642 4.12713C18.3693 4.32145 18.7256 4.60428 19.0067 4.95474C19.2879 5.3052 19.4867 5.71434 19.5886 6.15194C19.6904 6.58954 19.6927 7.04444 19.5952 7.48303L18.4842 12.483C18.3391 13.1502 17.9695 13.7474 17.4372 14.1749C16.9048 14.6024 16.2419 14.8344 15.5592 14.832ZM5.19018 5.83203L6.75118 12.074C6.80535 12.2903 6.93023 12.4822 7.10597 12.6194C7.28172 12.7565 7.49825 12.831 7.72118 12.831H15.5592C15.787 12.8321 16.0082 12.7549 16.1858 12.6124C16.3635 12.4698 16.4868 12.2706 16.5352 12.048L17.6462 7.04803C17.6786 6.9016 17.6776 6.74976 17.6434 6.60375C17.6091 6.45773 17.5425 6.32129 17.4484 6.20452C17.3543 6.08775 17.2351 5.99364 17.0997 5.92917C16.9643 5.86469 16.8162 5.83149 16.6662 5.83203H5.19018Z" fill="#ECC402"/>
<path d="M9.15918 17.332C9.15918 17.0354 9.07121 16.7454 8.90638 16.4987C8.74156 16.252 8.50729 16.0597 8.23321 15.9462C7.95912 15.8327 7.65752 15.803 7.36654 15.8609C7.07557 15.9187 6.8083 16.0616 6.59852 16.2714C6.38874 16.4812 6.24588 16.7484 6.188 17.0394C6.13012 17.3304 6.15983 17.632 6.27336 17.9061C6.38689 18.1801 6.57915 18.4144 6.82582 18.5792C7.0725 18.7441 7.36251 18.832 7.65918 18.832C8.05701 18.832 8.43854 18.674 8.71984 18.3927C9.00115 18.1114 9.15918 17.7299 9.15918 17.332Z" fill="#ECC402"/>
<path d="M17.1592 17.332C17.1592 17.0354 17.0712 16.7454 16.9064 16.4987C16.7416 16.252 16.5073 16.0597 16.2332 15.9462C15.9591 15.8327 15.6575 15.803 15.3665 15.8609C15.0756 15.9187 14.8083 16.0616 14.5985 16.2714C14.3887 16.4812 14.2459 16.7484 14.188 17.0394C14.1301 17.3304 14.1598 17.632 14.2734 17.9061C14.3869 18.1801 14.5792 18.4144 14.8258 18.5792C15.0725 18.7441 15.3625 18.832 15.6592 18.832C16.057 18.832 16.4385 18.674 16.7198 18.3927C17.0011 18.1114 17.1592 17.7299 17.1592 17.332Z" fill="#ECC402"/>
</svg>
