<svg width="20" height="19" viewBox="0 0 20 19" fill="none" xmlns="http://www.w3.org/2000/svg">
<path d="M15.5592 14.4805H7.72118C7.05195 14.4806 6.40191 14.2569 5.87444 13.845C5.34697 13.4332 4.97235 12.8567 4.81018 12.2075L2.56718 3.23847C2.5132 3.02204 2.3884 2.82987 2.21264 2.69252C2.03688 2.55517 1.82024 2.48053 1.59718 2.48047H1.15918C0.893963 2.48047 0.639609 2.37511 0.452073 2.18758C0.264537 2.00004 0.15918 1.74569 0.15918 1.48047C0.15918 1.21525 0.264537 0.960898 0.452073 0.773362C0.639609 0.585826 0.893963 0.480469 1.15918 0.480469H1.59718C2.2664 0.480375 2.91645 0.704048 3.44392 1.11592C3.97139 1.52778 4.346 2.10419 4.50818 2.75347L4.69018 3.48047H16.6662C17.1155 3.4804 17.5591 3.58124 17.9642 3.77557C18.3693 3.96989 18.7256 4.25272 19.0067 4.60318C19.2879 4.95364 19.4867 5.36278 19.5886 5.80038C19.6904 6.23798 19.6927 6.69287 19.5952 7.13147L18.4842 12.1315C18.3391 12.7986 17.9695 13.3958 17.4372 13.8233C16.9048 14.2508 16.2419 14.4828 15.5592 14.4805ZM5.19018 5.48047L6.75118 11.7225C6.80535 11.9387 6.93023 12.1307 7.10597 12.2678C7.28172 12.405 7.49825 12.4795 7.72118 12.4795H15.5592C15.787 12.4805 16.0082 12.4033 16.1858 12.2608C16.3635 12.1183 16.4868 11.9191 16.5352 11.6965L17.6462 6.69647C17.6786 6.55004 17.6776 6.3982 17.6434 6.25218C17.6091 6.10617 17.5425 5.96973 17.4484 5.85296C17.3543 5.73619 17.2351 5.64208 17.0997 5.5776C16.9643 5.51313 16.8162 5.47993 16.6662 5.48047H5.19018Z" fill="black"/>
<path d="M9.15918 16.9805C9.15918 16.6838 9.07121 16.3938 8.90638 16.1471C8.74156 15.9004 8.50729 15.7082 8.23321 15.5947C7.95912 15.4811 7.65752 15.4514 7.36654 15.5093C7.07557 15.5672 6.8083 15.71 6.59852 15.9198C6.38874 16.1296 6.24588 16.3969 6.188 16.6878C6.13012 16.9788 6.15983 17.2804 6.27336 17.5545C6.38689 17.8286 6.57915 18.0629 6.82582 18.2277C7.0725 18.3925 7.36251 18.4805 7.65918 18.4805C8.05701 18.4805 8.43854 18.3224 8.71984 18.0411C9.00115 17.7598 9.15918 17.3783 9.15918 16.9805Z" fill="black"/>
<path d="M17.1592 16.9805C17.1592 16.6838 17.0712 16.3938 16.9064 16.1471C16.7416 15.9004 16.5073 15.7082 16.2332 15.5947C15.9591 15.4811 15.6575 15.4514 15.3665 15.5093C15.0756 15.5672 14.8083 15.71 14.5985 15.9198C14.3887 16.1296 14.2459 16.3969 14.188 16.6878C14.1301 16.9788 14.1598 17.2804 14.2734 17.5545C14.3869 17.8286 14.5792 18.0629 14.8258 18.2277C15.0725 18.3925 15.3625 18.4805 15.6592 18.4805C16.057 18.4805 16.4385 18.3224 16.7198 18.0411C17.0011 17.7598 17.1592 17.3783 17.1592 16.9805Z" fill="black"/>
</svg>
