<svg width="19" height="19" viewBox="0 0 19 19" fill="none" xmlns="http://www.w3.org/2000/svg">
<path d="M15.1592 18.4805H13.1592C12.3635 18.4805 11.6005 18.1644 11.0379 17.6018C10.4753 17.0392 10.1592 16.2761 10.1592 15.4805V13.4805C10.1592 12.6848 10.4753 11.9218 11.0379 11.3591C11.6005 10.7965 12.3635 10.4805 13.1592 10.4805H15.1592C15.9548 10.4805 16.7179 10.7965 17.2805 11.3591C17.8431 11.9218 18.1592 12.6848 18.1592 13.4805V15.4805C18.1592 16.2761 17.8431 17.0392 17.2805 17.6018C16.7179 18.1644 15.9548 18.4805 15.1592 18.4805ZM13.1592 12.4805C12.894 12.4805 12.6396 12.5858 12.4521 12.7734C12.2645 12.9609 12.1592 13.2153 12.1592 13.4805V15.4805C12.1592 15.7457 12.2645 16 12.4521 16.1876C12.6396 16.3751 12.894 16.4805 13.1592 16.4805H15.1592C15.4244 16.4805 15.6788 16.3751 15.8663 16.1876C16.0538 16 16.1592 15.7457 16.1592 15.4805V13.4805C16.1592 13.2153 16.0538 12.9609 15.8663 12.7734C15.6788 12.5858 15.4244 12.4805 15.1592 12.4805H13.1592ZM5.15918 18.4805H3.15918C2.36353 18.4805 1.60047 18.1644 1.03786 17.6018C0.47525 17.0392 0.15918 16.2761 0.15918 15.4805L0.15918 13.4805C0.15918 12.6848 0.47525 11.9218 1.03786 11.3591C1.60047 10.7965 2.36353 10.4805 3.15918 10.4805H5.15918C5.95483 10.4805 6.71789 10.7965 7.2805 11.3591C7.84311 11.9218 8.15918 12.6848 8.15918 13.4805V15.4805C8.15918 16.2761 7.84311 17.0392 7.2805 17.6018C6.71789 18.1644 5.95483 18.4805 5.15918 18.4805ZM3.15918 12.4805C2.89396 12.4805 2.63961 12.5858 2.45207 12.7734C2.26454 12.9609 2.15918 13.2153 2.15918 13.4805V15.4805C2.15918 15.7457 2.26454 16 2.45207 16.1876C2.63961 16.3751 2.89396 16.4805 3.15918 16.4805H5.15918C5.4244 16.4805 5.67875 16.3751 5.86629 16.1876C6.05382 16 6.15918 15.7457 6.15918 15.4805V13.4805C6.15918 13.2153 6.05382 12.9609 5.86629 12.7734C5.67875 12.5858 5.4244 12.4805 5.15918 12.4805H3.15918ZM15.1592 8.48047H13.1592C12.3635 8.48047 11.6005 8.1644 11.0379 7.60179C10.4753 7.03918 10.1592 6.27612 10.1592 5.48047V3.48047C10.1592 2.68482 10.4753 1.92176 11.0379 1.35915C11.6005 0.796539 12.3635 0.480469 13.1592 0.480469L15.1592 0.480469C15.9548 0.480469 16.7179 0.796539 17.2805 1.35915C17.8431 1.92176 18.1592 2.68482 18.1592 3.48047V5.48047C18.1592 6.27612 17.8431 7.03918 17.2805 7.60179C16.7179 8.1644 15.9548 8.48047 15.1592 8.48047ZM13.1592 2.48047C12.894 2.48047 12.6396 2.58583 12.4521 2.77336C12.2645 2.9609 12.1592 3.21525 12.1592 3.48047V5.48047C12.1592 5.74569 12.2645 6.00004 12.4521 6.18758C12.6396 6.37511 12.894 6.48047 13.1592 6.48047H15.1592C15.4244 6.48047 15.6788 6.37511 15.8663 6.18758C16.0538 6.00004 16.1592 5.74569 16.1592 5.48047V3.48047C16.1592 3.21525 16.0538 2.9609 15.8663 2.77336C15.6788 2.58583 15.4244 2.48047 15.1592 2.48047H13.1592ZM5.15918 8.48047H3.15918C2.36353 8.48047 1.60047 8.1644 1.03786 7.60179C0.47525 7.03918 0.15918 6.27612 0.15918 5.48047L0.15918 3.48047C0.15918 2.68482 0.47525 1.92176 1.03786 1.35915C1.60047 0.796539 2.36353 0.480469 3.15918 0.480469L5.15918 0.480469C5.95483 0.480469 6.71789 0.796539 7.2805 1.35915C7.84311 1.92176 8.15918 2.68482 8.15918 3.48047V5.48047C8.15918 6.27612 7.84311 7.03918 7.2805 7.60179C6.71789 8.1644 5.95483 8.48047 5.15918 8.48047ZM3.15918 2.48047C2.89396 2.48047 2.63961 2.58583 2.45207 2.77336C2.26454 2.9609 2.15918 3.21525 2.15918 3.48047V5.48047C2.15918 5.74569 2.26454 6.00004 2.45207 6.18758C2.63961 6.37511 2.89396 6.48047 3.15918 6.48047H5.15918C5.4244 6.48047 5.67875 6.37511 5.86629 6.18758C6.05382 6.00004 6.15918 5.74569 6.15918 5.48047V3.48047C6.15918 3.21525 6.05382 2.9609 5.86629 2.77336C5.67875 2.58583 5.4244 2.48047 5.15918 2.48047H3.15918Z" fill="black"/>
</svg>
