<svg width="19" height="19" viewBox="0 0 19 19" fill="none" xmlns="http://www.w3.org/2000/svg">
<path d="M15.1592 18.832H13.1592C12.3635 18.832 11.6005 18.516 11.0379 17.9534C10.4753 17.3907 10.1592 16.6277 10.1592 15.832V13.832C10.1592 13.0364 10.4753 12.2733 11.0379 11.7107C11.6005 11.1481 12.3635 10.832 13.1592 10.832H15.1592C15.9548 10.832 16.7179 11.1481 17.2805 11.7107C17.8431 12.2733 18.1592 13.0364 18.1592 13.832V15.832C18.1592 16.6277 17.8431 17.3907 17.2805 17.9534C16.7179 18.516 15.9548 18.832 15.1592 18.832ZM13.1592 12.832C12.894 12.832 12.6396 12.9374 12.4521 13.1249C12.2645 13.3125 12.1592 13.5668 12.1592 13.832V15.832C12.1592 16.0972 12.2645 16.3516 12.4521 16.5391C12.6396 16.7267 12.894 16.832 13.1592 16.832H15.1592C15.4244 16.832 15.6788 16.7267 15.8663 16.5391C16.0538 16.3516 16.1592 16.0972 16.1592 15.832V13.832C16.1592 13.5668 16.0538 13.3125 15.8663 13.1249C15.6788 12.9374 15.4244 12.832 15.1592 12.832H13.1592ZM5.15918 18.832H3.15918C2.36353 18.832 1.60047 18.516 1.03786 17.9534C0.47525 17.3907 0.15918 16.6277 0.15918 15.832L0.15918 13.832C0.15918 13.0364 0.47525 12.2733 1.03786 11.7107C1.60047 11.1481 2.36353 10.832 3.15918 10.832H5.15918C5.95483 10.832 6.71789 11.1481 7.2805 11.7107C7.84311 12.2733 8.15918 13.0364 8.15918 13.832V15.832C8.15918 16.6277 7.84311 17.3907 7.2805 17.9534C6.71789 18.516 5.95483 18.832 5.15918 18.832ZM3.15918 12.832C2.89396 12.832 2.63961 12.9374 2.45207 13.1249C2.26454 13.3125 2.15918 13.5668 2.15918 13.832V15.832C2.15918 16.0972 2.26454 16.3516 2.45207 16.5391C2.63961 16.7267 2.89396 16.832 3.15918 16.832H5.15918C5.4244 16.832 5.67875 16.7267 5.86629 16.5391C6.05382 16.3516 6.15918 16.0972 6.15918 15.832V13.832C6.15918 13.5668 6.05382 13.3125 5.86629 13.1249C5.67875 12.9374 5.4244 12.832 5.15918 12.832H3.15918ZM15.1592 8.83203H13.1592C12.3635 8.83203 11.6005 8.51596 11.0379 7.95335C10.4753 7.39074 10.1592 6.62768 10.1592 5.83203V3.83203C10.1592 3.03638 10.4753 2.27332 11.0379 1.71071C11.6005 1.1481 12.3635 0.832031 13.1592 0.832031L15.1592 0.832031C15.9548 0.832031 16.7179 1.1481 17.2805 1.71071C17.8431 2.27332 18.1592 3.03638 18.1592 3.83203V5.83203C18.1592 6.62768 17.8431 7.39074 17.2805 7.95335C16.7179 8.51596 15.9548 8.83203 15.1592 8.83203ZM13.1592 2.83203C12.894 2.83203 12.6396 2.93739 12.4521 3.12492C12.2645 3.31246 12.1592 3.56681 12.1592 3.83203V5.83203C12.1592 6.09725 12.2645 6.3516 12.4521 6.53914C12.6396 6.72667 12.894 6.83203 13.1592 6.83203H15.1592C15.4244 6.83203 15.6788 6.72667 15.8663 6.53914C16.0538 6.3516 16.1592 6.09725 16.1592 5.83203V3.83203C16.1592 3.56681 16.0538 3.31246 15.8663 3.12492C15.6788 2.93739 15.4244 2.83203 15.1592 2.83203H13.1592ZM5.15918 8.83203H3.15918C2.36353 8.83203 1.60047 8.51596 1.03786 7.95335C0.47525 7.39074 0.15918 6.62768 0.15918 5.83203L0.15918 3.83203C0.15918 3.03638 0.47525 2.27332 1.03786 1.71071C1.60047 1.1481 2.36353 0.832031 3.15918 0.832031L5.15918 0.832031C5.95483 0.832031 6.71789 1.1481 7.2805 1.71071C7.84311 2.27332 8.15918 3.03638 8.15918 3.83203V5.83203C8.15918 6.62768 7.84311 7.39074 7.2805 7.95335C6.71789 8.51596 5.95483 8.83203 5.15918 8.83203ZM3.15918 2.83203C2.89396 2.83203 2.63961 2.93739 2.45207 3.12492C2.26454 3.31246 2.15918 3.56681 2.15918 3.83203V5.83203C2.15918 6.09725 2.26454 6.3516 2.45207 6.53914C2.63961 6.72667 2.89396 6.83203 3.15918 6.83203H5.15918C5.4244 6.83203 5.67875 6.72667 5.86629 6.53914C6.05382 6.3516 6.15918 6.09725 6.15918 5.83203V3.83203C6.15918 3.56681 6.05382 3.31246 5.86629 3.12492C5.67875 2.93739 5.4244 2.83203 5.15918 2.83203H3.15918Z" fill="#ECC402"/>
</svg>
