<svg width="16" height="20" viewBox="0 0 16 20" fill="none" xmlns="http://www.w3.org/2000/svg">
<path d="M8 15.75C7.80117 15.7498 7.61056 15.6707 7.46997 15.5301C7.32937 15.3895 7.25027 15.1989 7.25 15V13.855C6.81974 13.681 6.4634 13.3627 6.24207 12.9547C6.02073 12.5468 5.94817 12.0745 6.03683 11.6189C6.12549 11.1634 6.36984 10.7528 6.72801 10.4576C7.08618 10.1624 7.53587 10.001 8 10.001C8.46414 10.001 8.91383 10.1624 9.272 10.4576C9.63017 10.7528 9.87452 11.1634 9.96318 11.6189C10.0518 12.0745 9.97928 12.5468 9.75794 12.9547C9.5366 13.3627 9.18027 13.681 8.75 13.855V15C8.74974 15.1989 8.67064 15.3895 8.53004 15.5301C8.38945 15.6707 8.19883 15.7498 8 15.75ZM8 11.5C7.90111 11.5 7.80444 11.5294 7.72222 11.5843C7.63999 11.6392 7.57591 11.7173 7.53806 11.8087C7.50022 11.9 7.49032 12.0006 7.50961 12.0976C7.5289 12.1946 7.57652 12.2837 7.64645 12.3536C7.71638 12.4235 7.80547 12.4711 7.90246 12.4904C7.99945 12.5097 8.09998 12.4998 8.19134 12.462C8.28271 12.4241 8.3608 12.36 8.41574 12.2778C8.47068 12.1956 8.5 12.0989 8.5 12C8.5 11.8674 8.44732 11.7402 8.35356 11.6465C8.25979 11.5527 8.13261 11.5 8 11.5Z" fill="black"/>
<path d="M13 20H3C2.20435 20 1.44129 19.6839 0.87868 19.1213C0.31607 18.5587 0 17.7956 0 17L0 9C0 8.20435 0.31607 7.44129 0.87868 6.87868C1.44129 6.31607 2.20435 6 3 6H3.25V5C3.25 3.74022 3.75045 2.53204 4.64124 1.64124C5.53204 0.750445 6.74022 0.25 8 0.25C9.25978 0.25 10.468 0.750445 11.3588 1.64124C12.2496 2.53204 12.75 3.74022 12.75 5V6H13C13.7956 6 14.5587 6.31607 15.1213 6.87868C15.6839 7.44129 16 8.20435 16 9V17C16 17.7956 15.6839 18.5587 15.1213 19.1213C14.5587 19.6839 13.7956 20 13 20ZM3 7.5C2.60218 7.5 2.22064 7.65804 1.93934 7.93934C1.65804 8.22064 1.5 8.60218 1.5 9V17C1.5 17.3978 1.65804 17.7794 1.93934 18.0607C2.22064 18.342 2.60218 18.5 3 18.5H13C13.3978 18.5 13.7794 18.342 14.0607 18.0607C14.342 17.7794 14.5 17.3978 14.5 17V9C14.5 8.60218 14.342 8.22064 14.0607 7.93934C13.7794 7.65804 13.3978 7.5 13 7.5H3ZM8 1.75C7.13837 1.75106 6.31234 2.09381 5.70307 2.70307C5.09381 3.31234 4.75106 4.13837 4.75 5V6H11.25V5C11.2489 4.13837 10.9062 3.31234 10.2969 2.70307C9.68766 2.09381 8.86163 1.75106 8 1.75Z" fill="black"/>
</svg>
