<svg width="40" height="40" viewBox="0 0 40 40" fill="none" xmlns="http://www.w3.org/2000/svg">
<path d="M37.7188 0.3125H29.8438C29.3221 0.314058 28.8222 0.52198 28.4534 0.890855C28.0845 1.25973 27.8766 1.75958 27.875 2.28125V29.8438C27.8766 30.3654 28.0845 30.8653 28.4534 31.2341C28.8222 31.603 29.3221 31.8109 29.8438 31.8125H37.7188C38.2404 31.8109 38.7403 31.603 39.1091 31.2341C39.478 30.8653 39.6859 30.3654 39.6875 29.8438V2.28125C39.6859 1.75958 39.478 1.25973 39.1091 0.890855C38.7403 0.52198 38.2404 0.314058 37.7188 0.3125ZM31.8125 5.5625H35.75V6.875H31.8125V5.5625ZM33.7812 27.875C33.3919 27.875 33.0112 27.7595 32.6875 27.5432C32.3637 27.3269 32.1114 27.0194 31.9624 26.6597C31.8134 26.2999 31.7744 25.9041 31.8503 25.5222C31.9263 25.1403 32.1138 24.7895 32.3891 24.5141C32.6645 24.2388 33.0153 24.0513 33.3972 23.9753C33.7791 23.8994 34.1749 23.9384 34.5347 24.0874C34.8944 24.2364 35.2019 24.4887 35.4182 24.8125C35.6345 25.1362 35.75 25.5169 35.75 25.9062C35.7484 26.4279 35.5405 26.9278 35.1716 27.2966C34.8028 27.6655 34.3029 27.8734 33.7812 27.875ZM35.75 20H31.8125V18.6875H35.75V20ZM37.0625 16.0625H30.5V14.75H37.0625V16.0625ZM37.0625 13.4375H30.5V12.125H37.0625V13.4375ZM37.0625 10.8125H30.5V9.5H37.0625V10.8125Z" fill="#082431"/>
<path d="M22.9688 4H1.96875C1.44708 4.00156 0.94723 4.20948 0.578355 4.57835C0.20948 4.94723 0.001558 5.44708 0 5.96875V20.4062C0.001558 20.9279 0.20948 21.4278 0.578355 21.7966C0.94723 22.1655 1.44708 22.3734 1.96875 22.375H8.53125V23.6875H6.5625C6.38845 23.6875 6.22153 23.7566 6.09846 23.8797C5.97539 24.0028 5.90625 24.1697 5.90625 24.3438V26.9688C5.90625 27.1428 5.97539 27.3097 6.09846 27.4328C6.22153 27.5559 6.38845 27.625 6.5625 27.625H18.375C18.549 27.625 18.716 27.5559 18.839 27.4328C18.9621 27.3097 19.0312 27.1428 19.0312 26.9688V24.3438C19.0312 24.1697 18.9621 24.0028 18.839 23.8797C18.716 23.7566 18.549 23.6875 18.375 23.6875H16.4062V22.375H22.9688C23.4904 22.3734 23.9903 22.1655 24.3591 21.7966C24.728 21.4278 24.9359 20.9279 24.9375 20.4062V5.96875C24.9359 5.44708 24.728 4.94723 24.3591 4.57835C23.9903 4.20948 23.4904 4.00156 22.9688 4ZM21.6562 19.0938H3.28125V7.28125H21.6562V19.0938Z" fill="#082431"/>
<path d="M24.5938 31.1562H20.0787L17.5325 30.5197C17.481 30.5067 17.4281 30.5001 17.375 30.5H8.1875C8.13439 30.5001 8.08149 30.5067 8.03 30.5197L5.48375 31.1562H0.96875C0.794702 31.1562 0.627782 31.2254 0.504711 31.3485C0.38164 31.4715 0.3125 31.6385 0.3125 31.8125V39.0312C0.3125 39.2053 0.38164 39.3722 0.504711 39.4953C0.627782 39.6184 0.794702 39.6875 0.96875 39.6875H24.5938C24.7678 39.6875 24.9347 39.6184 25.0578 39.4953C25.1809 39.3722 25.25 39.2053 25.25 39.0312V31.8125C25.25 31.6385 25.1809 31.4715 25.0578 31.3485C24.9347 31.2254 24.7678 31.1562 24.5938 31.1562ZM14.75 33.125H16.0625V34.4375H14.75V33.125ZM12.125 33.125H13.4375V34.4375H12.125V33.125ZM9.5 33.125H10.8125V34.4375H9.5V33.125ZM6.875 33.125H8.1875V34.4375H6.875V33.125ZM5.5625 37.0625H4.25V35.75H5.5625V37.0625ZM5.5625 34.4375H4.25V33.125H5.5625V34.4375ZM18.6875 37.0625H6.875V35.75H18.6875V37.0625ZM18.6875 34.4375H17.375V33.125H18.6875V34.4375ZM21.3125 37.0625H20V35.75H21.3125V37.0625ZM21.3125 34.4375H20V33.125H21.3125V34.4375Z" fill="#082431"/>
<path d="M34.4375 33.125H33.125C32.0377 33.125 31.1562 34.0064 31.1562 35.0938V37.7188C31.1562 38.8061 32.0377 39.6875 33.125 39.6875H34.4375C35.5248 39.6875 36.4062 38.8061 36.4062 37.7188V35.0938C36.4062 34.0064 35.5248 33.125 34.4375 33.125Z" fill="#082431"/>
<path d="M6.21875 10.8125H8.1875V9.5H5.5625C5.38845 9.5 5.22153 9.56914 5.09846 9.69221C4.97539 9.81528 4.90625 9.9822 4.90625 10.1562V12.7812H6.21875V10.8125Z" fill="#082431"/>
</svg>
