<svg width="20" height="19" viewBox="0 0 20 19" fill="none" xmlns="http://www.w3.org/2000/svg">
<path d="M17 18.75H16C15.271 18.7489 14.5721 18.4589 14.0566 17.9434C13.5411 17.4279 13.2511 16.729 13.25 16V13C13.2511 12.271 13.5411 11.5721 14.0566 11.0566C14.5721 10.5411 15.271 10.2511 16 10.25H18.25V10C18.25 7.81196 17.3808 5.71354 15.8336 4.16637C14.2865 2.61919 12.188 1.75 10 1.75C7.81196 1.75 5.71354 2.61919 4.16637 4.16637C2.61919 5.71354 1.75 7.81196 1.75 10V10.25H4C4.7291 10.2508 5.42811 10.5408 5.94367 11.0563C6.45922 11.5719 6.74921 12.2709 6.75 13V16C6.74921 16.7291 6.45922 17.4281 5.94367 17.9437C5.42811 18.4592 4.7291 18.7492 4 18.75H3C2.27098 18.7489 1.57212 18.4589 1.05663 17.9434C0.541129 17.4279 0.251058 16.729 0.25 16L0.25 10C0.25 7.41414 1.27723 4.93419 3.10571 3.10571C4.93419 1.27723 7.41414 0.25 10 0.25C12.5859 0.25 15.0658 1.27723 16.8943 3.10571C18.7228 4.93419 19.75 7.41414 19.75 10V16C19.7489 16.729 19.4589 17.4279 18.9434 17.9434C18.4279 18.4589 17.729 18.7489 17 18.75ZM16 11.75C15.6686 11.7505 15.351 11.8824 15.1167 12.1167C14.8824 12.351 14.7505 12.6686 14.75 13V16C14.7505 16.3314 14.8824 16.649 15.1167 16.8833C15.351 17.1176 15.6686 17.2495 16 17.25H17C17.3314 17.2495 17.649 17.1176 17.8833 16.8833C18.1176 16.649 18.2495 16.3314 18.25 16V11.75H16ZM1.75 11.75V16C1.75053 16.3314 1.88239 16.649 2.1167 16.8833C2.35101 17.1176 2.66864 17.2495 3 17.25H4C4.33136 17.2495 4.64899 17.1176 4.8833 16.8833C5.11761 16.649 5.24947 16.3314 5.25 16V13C5.24947 12.6686 5.11761 12.351 4.8833 12.1167C4.64899 11.8824 4.33136 11.7505 4 11.75H1.75Z" fill="black"/>
</svg>
