<svg width="20" height="20" viewBox="0 0 20 20" fill="none" xmlns="http://www.w3.org/2000/svg">
<path d="M8.75 9V14C8.75 14.1989 8.67098 14.3897 8.53033 14.5303C8.38968 14.671 8.19891 14.75 8 14.75C7.80109 14.75 7.61032 14.671 7.46967 14.5303C7.32902 14.3897 7.25 14.1989 7.25 14V9C7.25 8.80109 7.32902 8.61032 7.46967 8.46967C7.61032 8.32902 7.80109 8.25 8 8.25C8.19891 8.25 8.38968 8.32902 8.53033 8.46967C8.67098 8.61032 8.75 8.80109 8.75 9Z" fill="#FF4B55"/>
<path d="M12.75 9V14C12.75 14.1989 12.671 14.3897 12.5303 14.5303C12.3897 14.671 12.1989 14.75 12 14.75C11.8011 14.75 11.6103 14.671 11.4697 14.5303C11.329 14.3897 11.25 14.1989 11.25 14V9C11.25 8.80109 11.329 8.61032 11.4697 8.46967C11.6103 8.32902 11.8011 8.25 12 8.25C12.1989 8.25 12.3897 8.32902 12.5303 8.46967C12.671 8.61032 12.75 8.80109 12.75 9Z" fill="#FF4B55"/>
<path d="M15 19.75H5C4.27098 19.7489 3.57212 19.4589 3.05663 18.9434C2.54113 18.4279 2.25106 17.729 2.25 17V4.75H1C0.801088 4.75 0.610322 4.67098 0.46967 4.53033C0.329018 4.38968 0.25 4.19891 0.25 4C0.25 3.80109 0.329018 3.61032 0.46967 3.46967C0.610322 3.32902 0.801088 3.25 1 3.25H5.25V3C5.25079 2.2709 5.54078 1.57189 6.05633 1.05633C6.57189 0.54078 7.2709 0.250794 8 0.25L12 0.25C12.7291 0.250794 13.4281 0.54078 13.9437 1.05633C14.4592 1.57189 14.7492 2.2709 14.75 3V3.25H19C19.1989 3.25 19.3897 3.32902 19.5303 3.46967C19.671 3.61032 19.75 3.80109 19.75 4C19.75 4.19891 19.671 4.38968 19.5303 4.53033C19.3897 4.67098 19.1989 4.75 19 4.75H17.75V17C17.7492 17.7291 17.4592 18.4281 16.9437 18.9437C16.4281 19.4592 15.7291 19.7492 15 19.75ZM3.75 4.75V17C3.75053 17.3314 3.88239 17.649 4.1167 17.8833C4.35101 18.1176 4.66864 18.2495 5 18.25H15C15.3314 18.2495 15.649 18.1176 15.8833 17.8833C16.1176 17.649 16.2495 17.3314 16.25 17V4.75H3.75ZM8 1.75C7.66864 1.75053 7.35101 1.88239 7.1167 2.1167C6.88239 2.35101 6.75053 2.66864 6.75 3V3.25H13.25V3C13.2497 2.66856 13.118 2.35077 12.8836 2.11641C12.6492 1.88205 12.3314 1.75026 12 1.75H8Z" fill="#FF4B55"/>
</svg>
