<svg width="77" height="76" viewBox="0 0 77 76" fill="none" xmlns="http://www.w3.org/2000/svg">
<path d="M37.3068 0H39.6933C51.3014 0.64816 59.578 5.01272 65.7141 11.1295C71.8503 17.2462 76.3861 25.3137 76.9923 36.8567V39.1435C76.4029 50.871 71.7869 58.6111 65.7141 64.9088C59.3347 70.8908 51.4924 75.4232 39.6548 75.9998H37.3068C25.7002 75.3504 17.4221 70.9876 11.286 64.8705C5.1499 58.7538 0.613936 50.6864 0.0078125 39.1435V36.8567C0.0380191 36.8483 0.0527905 36.8248 0.0463176 36.7804C0.626715 25.2815 5.18741 17.1302 11.2862 11.0914C17.4129 5.02439 25.7754 0.628603 37.3068 0ZM29.7623 5.45036C27.4752 6.05678 25.4242 6.82688 23.5651 7.73716C17.9065 10.5078 13.2401 14.4717 9.97731 19.5526C6.79267 24.5121 4.03525 30.8919 4.43457 39.2577C4.68635 44.5319 5.90175 48.9684 7.82169 52.7502C11.6133 60.2174 17.3857 65.7193 25.3744 69.0633C29.3248 70.7169 34.2198 71.8769 39.732 71.6169C45.0193 71.3676 49.6009 70.1907 53.3968 68.301C60.8362 64.5971 66.6991 58.8823 69.9487 50.997C71.5921 47.0083 72.8349 42.4004 72.5662 36.8184C72.0576 26.2442 67.7137 19.0744 61.9809 13.6068C59.1443 10.9014 55.7287 8.60011 51.7035 6.93682C47.7981 5.32299 42.7139 4.12643 37.2688 4.38313C34.5919 4.50934 32.0666 4.83934 29.7623 5.45036Z" fill="#0083CA"/>
<path d="M34.9587 28.1284C36.1782 28.9281 37.4256 29.7003 38.577 30.5677C35.9761 32.1848 33.4263 33.8527 30.8401 35.4844C31.2328 35.7817 31.6792 36.0256 32.0718 36.3229C34.6795 34.6871 37.288 33.0522 39.8858 31.4062C41.0509 32.1202 42.1979 32.852 43.2733 33.655C40.6702 35.283 38.1544 36.997 35.5747 38.6478C35.957 38.9556 36.4255 39.1777 36.8447 39.4483C39.5111 37.8324 42.111 36.1507 44.7356 34.4936V29.0812H50.5096V39.8677C52.1389 39.9565 53.9355 39.8804 55.6292 39.9055V44.975H44.7356V39.8293C41.5351 41.7547 38.2552 43.932 35.0357 45.9658C31.6829 43.8101 28.4516 41.5335 25.1047 39.3721C24.1351 42.4152 21.8322 44.7044 18.0219 44.975C15.6455 45.1432 12.9452 44.8492 10.208 44.975V29.0812C13.63 29.3057 17.3875 28.6281 20.1005 29.4623C22.4993 30.2001 24.2 32.0952 24.989 34.4553C28.3384 32.3723 31.6341 30.2364 34.9587 28.1284ZM15.7122 34.1886V39.9057C17.0876 39.9124 18.1338 39.9915 18.9455 39.3722C20.1533 38.4511 20.3966 36.1676 19.3304 34.9508C18.6189 34.139 17.4176 33.9686 15.7506 34.0742C15.7061 34.0806 15.7089 34.1345 15.7122 34.1886ZM57.1301 29.0812H62.9039V39.9057H67.9849V44.9751H57.0913V29.1956C57.0883 29.1415 57.0851 29.0876 57.1301 29.0812Z" fill="#0083CA"/>
</svg>
