<svg width="276" height="253" viewBox="0 0 276 253" fill="none" xmlns="http://www.w3.org/2000/svg">
<g clip-path="url(#clip0_411_3215)">
<path opacity="0.5" d="M146.252 36.5991C137.712 38.3057 128.843 39.5312 119.42 39.4184C117.601 39.3658 115.768 39.268 113.934 39.0951C110.266 38.7568 106.562 38.1554 102.834 37.1855C100.791 36.5916 98.7106 36.1631 96.6224 35.915C94.5342 35.6669 92.4236 35.6142 90.328 35.7571C75.3741 36.7194 62.1866 47.6207 61.9546 62.4013C62.5234 74.7987 68.6382 86.4368 72.1409 98.7139C72.3205 101.18 72.298 103.668 72.066 106.179C71.834 108.69 71.3999 111.224 70.6889 113.788C70.165 115.953 69.5213 118.118 68.8477 120.283C66.1458 128.929 62.9575 137.477 61.5953 145.935C61.3483 147.732 61.251 149.536 61.3409 151.333C61.5205 154.927 62.4336 158.483 64.3122 161.911C72.9492 175.466 89.8415 183.338 106.547 181.09C108.785 180.992 111.03 180.812 113.268 180.586C115.139 180.293 116.943 179.834 118.701 179.241C127.488 176.263 135.077 169.918 142.719 164.911C151.962 158.851 162.927 155.431 173.772 153.626C185.762 151.634 198.164 154.017 210.213 154.957C212.249 155.115 214.315 155.228 216.403 155.34C237.906 159.438 274.632 155.491 275.493 125.967C275.305 123.779 274.782 121.674 274.018 119.614C270.964 111.397 264.191 104.052 260.89 96.3081C259.888 94.2256 258.989 92.1355 258.181 90.0154C254.139 79.4224 252.283 68.0098 252.351 56.9582C252.291 54.6501 252.268 52.3571 252.246 50.0716C252.164 43.2451 251.932 36.4788 250.727 29.9982C250.322 28.3442 249.791 26.7203 249.102 25.164C248.414 23.6078 247.561 22.1117 246.513 20.6983C245.465 18.9992 244.245 17.4204 242.846 15.9994C240.046 13.1501 236.506 10.9322 232.113 9.61655C230.257 9.09028 228.363 8.69934 226.455 8.4362C216.897 7.12053 206.838 8.86474 197.34 11.1202C195.11 11.6464 192.909 12.2704 190.746 12.9922C185.492 14.9243 180.643 17.4655 175.927 20.2998C174.356 21.2471 172.799 22.2244 171.242 23.2093C165.606 27.6225 158.309 32.0356 152.112 34.8925C150.405 35.4639 148.459 36.0277 146.252 36.5841V36.5991Z" fill="#E0C22E"/>
<path d="M243.646 85.5942C242.404 87.1956 240.548 88.0301 238.677 88.0301C237.322 88.0301 235.952 87.594 234.8 86.6918C217.922 73.4449 198.366 65.1073 177.492 62.1376C171.781 61.3257 165.958 60.9047 160.068 60.9047C154.178 60.9047 148.362 61.3182 142.644 62.1376C121.763 65.1073 102.213 73.4524 85.3359 86.6918C82.5966 88.842 78.6373 88.3458 76.4968 85.5942C74.3488 82.8426 74.8353 78.8655 77.582 76.7153C96.555 61.8369 118.567 52.5671 142.068 49.4395C147.973 48.6426 153.99 48.2441 160.068 48.2441C166.145 48.2441 172.148 48.6426 178.068 49.4395C201.569 52.5671 223.596 61.8369 242.554 76.7153C245.293 78.8655 245.779 82.8426 243.639 85.5942H243.646Z" fill="#A0721C"/>
<path d="M225.145 110.336C223.902 111.915 222.061 112.75 220.198 112.75C218.828 112.75 217.458 112.306 216.306 111.389C204.413 101.961 190.731 95.7964 176.084 93.2252C170.853 92.3005 165.502 91.8268 160.075 91.8268C154.649 91.8268 149.298 92.3005 144.066 93.2252C129.419 95.7964 115.738 101.961 103.845 111.389C101.113 113.547 97.1538 113.081 94.9983 110.336C92.8503 107.6 93.3143 103.615 96.0461 101.45C110.042 90.3533 126.201 83.2487 143.497 80.4895C148.924 79.6099 154.469 79.1738 160.083 79.1738C165.696 79.1738 171.242 79.6099 176.668 80.4895C193.95 83.2411 210.124 90.3533 224.119 101.45C226.851 103.615 227.315 107.6 225.16 110.336H225.145Z" fill="#A0721C"/>
<path d="M205.491 136.77C203.305 139.484 199.339 139.905 196.629 137.695C189.968 132.266 182.184 128.417 173.929 126.372C169.416 125.252 164.768 124.681 160.075 124.681C155.383 124.681 150.727 125.26 146.222 126.372C137.966 128.417 130.183 132.266 123.521 137.695C122.354 138.649 120.947 139.108 119.555 139.108C117.728 139.108 115.91 138.311 114.667 136.77C112.474 134.056 112.886 130.071 115.588 127.868C124.173 120.869 134.291 116.035 145.002 113.682C149.934 112.591 154.993 112.035 160.083 112.035C165.172 112.035 170.232 112.591 175.164 113.682C185.867 116.042 195.993 120.876 204.578 127.868C207.272 130.064 207.691 134.048 205.498 136.77H205.491Z" fill="#A0721C"/>
<path d="M160.075 167.437C167.185 167.437 172.948 161.647 172.948 154.505C172.948 147.364 167.185 141.574 160.075 141.574C152.966 141.574 147.202 147.364 147.202 154.505C147.202 161.647 152.966 167.437 160.075 167.437Z" fill="url(#paint0_linear_411_3215)"/>
<path d="M160.075 132.365C154.23 132.365 149.417 127.748 149.148 121.877L144.71 24.5471C144.306 15.7434 151.304 8.39062 160.075 8.39062C168.847 8.39062 175.845 15.7509 175.441 24.5471L171.003 121.877C170.733 127.741 165.921 132.365 160.075 132.365Z" fill="url(#paint1_linear_411_3215)"/>
<path style="mix-blend-mode:multiply" d="M160.075 112.035C165.165 112.035 170.224 112.591 175.156 113.682L174.767 122.057C174.7 123.568 174.408 125.019 173.929 126.372C169.416 125.252 164.768 124.681 160.075 124.681C155.383 124.681 150.727 125.26 146.222 126.372C145.743 125.019 145.451 123.568 145.383 122.057L144.994 113.682C149.926 112.591 154.986 112.035 160.075 112.035Z" fill="url(#paint2_linear_411_3215)"/>
<path style="mix-blend-mode:multiply" d="M160.075 79.1738C165.689 79.1738 171.235 79.6099 176.661 80.4895L176.084 93.2252C170.853 92.3005 165.501 91.8268 160.075 91.8268C154.649 91.8268 149.298 92.3005 144.066 93.2252L143.49 80.4895C148.916 79.6099 154.462 79.1738 160.075 79.1738Z" fill="url(#paint3_linear_411_3215)"/>
<path style="mix-blend-mode:multiply" d="M178.075 49.4395L177.499 62.1376C171.788 61.3257 165.966 60.9047 160.075 60.9047C154.185 60.9047 148.37 61.3182 142.652 62.1376L142.075 49.4395C147.98 48.6426 153.998 48.2441 160.075 48.2441C166.153 48.2441 172.155 48.6426 178.075 49.4395Z" fill="url(#paint4_linear_411_3215)"/>
<path d="M160.075 132.365C154.23 132.365 149.417 127.748 149.148 121.877L144.71 24.5471C144.306 15.7434 151.304 8.39062 160.075 8.39062C168.847 8.39062 175.845 15.7509 175.441 24.5471L171.003 121.877C170.733 127.741 165.921 132.365 160.075 132.365Z" fill="url(#paint5_linear_411_3215)"/>
<path opacity="0.5" d="M84.8269 247.941C84.8269 250.737 65.9512 253 42.6672 253C19.3832 253 0.507446 250.737 0.507446 247.941C0.507446 245.144 19.3832 242.881 42.6672 242.881C65.9512 242.881 84.8269 245.144 84.8269 247.941Z" fill="#E0C22E"/>
<path d="M46.0502 118.2C46.8809 118.982 48.1308 119.125 49.1861 118.712C53.9313 116.877 73.0988 109.931 71.9462 106.344C70.599 102.127 53.7441 109.615 50.0319 111.998C46.9408 113.983 44.0368 116.306 46.0427 118.193L46.0502 118.2Z" fill="#EDB39F"/>
<path d="M72.2681 103.78C72.066 102.697 71.2203 101.848 70.1949 101.464C65.3899 99.6601 48.2132 93.3524 46.6789 94.9613C44.8901 96.8333 69.3641 107.118 70.4943 106.344C71.3475 105.765 72.545 105.261 72.2681 103.78Z" fill="#EDB39F"/>
<path d="M57.5986 107.261C57.5986 107.261 64.2223 105.501 64.2223 105.253C64.2223 104.456 51.8281 99.2088 51.8281 99.2088L53.7591 95.4121C53.7591 95.4121 66.318 99.705 68.8028 100.682C71.2876 101.66 73.9146 102.69 73.8173 106.697C73.72 110.704 60.7196 116.14 60.7196 116.14L57.6061 107.261H57.5986Z" fill="#EDB39F"/>
<path d="M51.5512 94.3672L53.7591 95.4122L51.8281 99.2089L49.6502 97.8631" fill="#EDB39F"/>
<path d="M62.3213 116.577C61.3334 117.02 60.3379 117.456 59.365 117.862C57.8606 118.494 56.4386 119.073 55.2186 119.554C53.0182 120.426 51.5063 121.02 51.5063 121.125L49.2909 116.712L45.9229 109.991C45.9229 109.991 46.4469 109.833 47.2851 109.585C48.55 109.216 50.5109 108.637 52.4419 108.074C54.0211 107.615 55.5778 107.171 56.708 106.856C57.2693 106.705 57.7259 106.585 58.0178 106.51L62.3288 116.561L62.3213 116.577Z" fill="#A0721C"/>
<g style="mix-blend-mode:screen" opacity="0.5">
<path d="M55.2261 119.552C53.0256 120.425 51.5138 121.018 51.5138 121.124L49.2984 116.711C48.8269 114.372 48.1757 111.952 47.2926 109.583C48.5574 109.215 50.5184 108.636 52.4493 108.072C52.9807 109.516 53.4298 110.967 53.8115 112.403C54.4701 114.869 54.9267 117.289 55.2335 119.545L55.2261 119.552Z" fill="url(#paint6_linear_411_3215)"/>
</g>
<g style="mix-blend-mode:screen" opacity="0.5">
<path d="M62.3213 116.575C61.3333 117.019 60.3379 117.455 59.3649 117.861C58.9084 114.44 58.1001 110.576 56.708 106.877C57.2693 106.727 57.7259 106.606 58.0178 106.531L62.3288 116.583L62.3213 116.575Z" fill="url(#paint7_linear_411_3215)"/>
</g>
<path d="M49.9121 97.4877L49.6502 97.8636L47.8389 98.029C47.3749 98.0666 46.9109 97.9989 46.4843 97.811L44.8377 96.5705C44.8377 96.5705 44.7404 95.9389 45.8256 96.39C46.11 96.5028 46.589 96.4276 46.9782 96.3374L45.9753 95.7585L43.6252 94.1496C43.019 93.7436 42.5999 92.7512 43.0489 92.0145C43.0489 92.0145 43.7674 91.0296 45.1146 91.2927L47.0231 91.4957C47.9886 91.7739 48.797 91.8115 49.5753 92.4505L51.5587 94.3676L49.9196 97.4877H49.9121Z" fill="#EDB39F"/>
<path d="M44.1865 155.527C35.8489 155.76 39.9579 163.572 41.5146 170.436C44.3662 181.209 42.7121 195.178 47.0381 196.712C58.5641 200.245 54.8968 159.076 51.6934 157.196C50.1891 156.332 46.9857 155.828 44.1865 155.535V155.527Z" fill="#EDB39F"/>
<path d="M51.7009 193.125C43.6177 187.283 44.224 226.212 46.372 237.159C48.52 248.105 50.8177 240.685 52.4269 223.205C54.036 205.725 54.8818 195.425 51.7009 193.125Z" fill="#EDB39F"/>
<path d="M45.1446 236.062L44.8826 240.145L51.5362 240.37L51.3866 236.416L45.1446 236.062Z" fill="#EDB39F"/>
<path d="M51.6859 240.287C51.6859 240.287 52.9283 242.753 57.0822 246.001C61.236 249.249 62.3437 248.564 62.4261 249.76C62.5084 250.955 44.1117 249.737 44.1117 249.737L44.7853 239.934C44.7853 239.934 51.6859 240.039 51.6859 240.294V240.287Z" fill="#ECC401"/>
<path d="M35.2801 155.639C27.1146 153.925 27.1221 162.782 27.0547 169.819C27.3391 180.968 24.6747 193.854 28.5216 196.358C38.9175 202.485 42.293 160.241 39.621 157.662C38.3562 156.474 37.9296 156.579 35.2801 155.647V155.639Z" fill="#EDB39F"/>
<path d="M32.8926 192.937C24.8094 187.096 25.4156 226.025 27.5637 236.971C29.7117 247.917 32.0094 240.497 33.6186 223.017C35.2277 205.538 36.0734 195.238 32.8926 192.937Z" fill="#EDB39F"/>
<path d="M26.5533 237.107L26.4934 241.115L32.8776 241.227L32.8252 237.295L26.5533 237.107Z" fill="#EDB39F"/>
<path d="M26.4335 241.053C26.3362 242.632 24.6373 248.03 24.5923 249.398C34.7412 249.759 34.4418 251.804 32.9075 241.15L26.441 241.053H26.4335Z" fill="#ECC401"/>
<path d="M26.0967 159.625C26.0967 159.625 24.989 161.67 25.0788 176.571C25.1836 193.607 25.2734 196.893 25.2659 198.148C25.251 199.404 25.6327 237.866 25.6327 237.866C25.6327 237.866 31.9645 239.235 33.5063 237.927C34.3146 237.242 40.9832 176.03 40.9832 176.03C40.9832 176.03 42.2107 190.562 42.5699 196.073C42.8768 200.847 42.6522 233.611 44.3362 236.979C46.0876 238.43 52.5167 237.746 52.6065 237.656C53.5645 236.648 58.2797 170.557 55.3234 158.234L26.0967 159.625Z" fill="#A0721C"/>
<path d="M55.6602 158.293C54.4701 160.94 25.2136 162.037 25.221 161.406C25.221 160.812 25.251 160.21 25.2884 159.624C25.3857 157.842 25.5878 156.038 25.8123 154.248C25.9919 152.797 26.179 151.354 26.3362 149.91C26.3587 149.692 26.3811 149.467 26.4036 149.249C26.5832 147.452 26.6955 145.64 26.7479 143.836C26.8152 142.077 26.8227 140.31 26.7928 138.543C26.7703 136.709 26.703 134.867 26.6057 133.032C26.5233 131.205 26.4036 129.371 26.2838 127.544C26.2464 127.025 26.2165 126.514 26.179 126.003C26.1641 125.785 26.1491 125.567 26.1341 125.349C26.0518 124.153 25.962 123.078 25.8797 122.199C25.8797 122.123 25.8647 122.048 25.8572 121.981C25.7899 121.296 25.7225 120.763 25.6626 120.417C25.6102 120.184 25.5653 119.951 25.5204 119.718C25.3483 118.748 25.1911 117.876 25.0564 117.086C24.8618 115.921 24.7271 114.981 24.7345 114.327C24.7495 113.305 25.4156 112.493 26.3886 111.854C28.6938 110.343 32.7953 109.801 34.5092 109.741C35.1978 109.726 35.6393 109.741 35.6618 109.741C35.6992 109.756 44.6132 110.282 44.6132 110.282C44.6132 110.185 45.2419 110.042 45.2419 110.042C46.4169 109.779 47.7491 110.636 48.7521 111.688C49.1263 112.087 49.4556 112.508 49.7101 112.914C50.2938 113.838 50.7878 115.244 51.1471 116.605C51.394 117.545 51.5737 118.462 51.6635 119.176C51.7009 119.462 51.7458 120.011 51.8057 120.778C51.9105 122.093 52.0452 124.041 52.2024 126.371C52.2997 127.882 52.4119 129.551 52.5317 131.303C52.6514 133.115 52.7862 135.032 52.9209 136.957C53.0406 138.648 53.1679 140.37 53.2876 142.031C53.4448 144.001 53.5945 145.926 53.7442 147.685C53.7816 148.144 53.8265 148.602 53.8639 149.038C53.9462 149.925 54.066 150.79 54.2157 151.625C54.5974 153.872 55.1437 155.842 55.4431 157.045C55.6228 157.737 55.72 158.18 55.6751 158.293H55.6602Z" fill="#F5DD34"/>
<g style="mix-blend-mode:screen" opacity="0.2">
<path d="M51.1471 116.599C48.797 117.313 46.3945 117.772 44.0144 118.05C36.4402 118.929 29.2027 117.907 25.0564 117.08C24.8618 115.915 24.7271 114.975 24.7345 114.321C24.7495 113.298 25.4156 112.486 26.3886 111.847C31.231 112.78 40.4294 113.937 48.7521 111.689C49.1263 112.088 49.4556 112.509 49.7101 112.915C50.2938 113.84 50.7878 115.246 51.1471 116.606V116.599Z" fill="url(#paint8_linear_411_3215)"/>
<path d="M52.2024 126.372C48.2656 127.756 44.1342 128.372 40.2048 128.538C34.8385 128.771 29.8539 128.177 26.2913 127.538C26.2539 127.019 26.2239 126.508 26.1865 125.997C26.1715 125.779 26.1566 125.561 26.1416 125.343C26.0593 124.147 25.9695 123.072 25.8871 122.192C25.8871 122.117 25.8722 122.042 25.8647 121.974C31.4555 123.087 42.6897 124.523 51.8057 120.771C51.9105 122.087 52.0452 124.034 52.2024 126.365V126.372Z" fill="url(#paint9_linear_411_3215)"/>
<path d="M52.9134 136.958C48.767 138.522 44.3812 139.221 40.2123 139.417C35.093 139.657 30.3104 139.131 26.7853 138.537C26.7628 136.703 26.6955 134.861 26.5982 133.026C32.5633 134.124 43.6776 135.297 52.5167 131.305C52.6365 133.117 52.7712 135.034 52.9059 136.958H52.9134Z" fill="url(#paint10_linear_411_3215)"/>
<path d="M53.7367 147.695C49.4406 149.386 44.8527 150.115 40.5192 150.303C35.0556 150.537 29.9886 149.905 26.4036 149.251C26.5832 147.454 26.6955 145.642 26.7478 143.838C32.7504 144.973 44.2614 146.281 53.2801 142.041C53.4373 144.011 53.587 145.935 53.7367 147.695Z" fill="url(#paint11_linear_411_3215)"/>
<path d="M55.4281 157.053C50.683 159.369 45.4364 160.369 40.5117 160.655C34.4643 161.008 28.8959 160.294 25.2884 159.625C25.3857 157.843 25.5878 156.038 25.8123 154.249C31.7849 155.369 44.7179 156.896 54.2082 151.633C54.5899 153.881 55.1363 155.85 55.4356 157.053H55.4281Z" fill="url(#paint12_linear_411_3215)"/>
</g>
<path d="M35.5645 109.78C40.3994 112.817 45.4365 110.111 45.4365 110.111C44.8452 109.705 44.4036 109.284 44.0743 108.885C43.004 107.599 43.0714 106.494 43.0714 106.494C46.2897 106.389 47.2178 99.3972 47.3375 97.856C47.4198 96.8411 47.5695 94.0594 45.7134 92.5031C45.6086 92.4129 45.4888 92.3302 45.3616 92.2475C45.2344 92.3452 45.0622 92.3001 44.8527 92.1873C44.7778 92.1573 44.703 92.1122 44.6281 92.0595C44.2764 92.0445 44.1866 92.037 44.0294 91.849C43.977 91.7814 43.9096 91.6987 43.8273 91.5934C43.7674 91.5859 43.7001 91.5859 43.6177 91.6009C43.5504 91.616 43.4755 91.631 43.3932 91.6611C42.9217 91.8039 42.278 92.0896 41.799 91.7287C41.7092 91.6536 41.6194 91.5558 41.5371 91.428C41.2302 91.2325 40.5641 91.3679 40.7662 91.5032C40.6689 91.5107 40.5641 91.5257 40.4668 91.5483C33.8655 92.6084 35.8265 100.593 36.4926 103.795C37.1737 107.051 35.2053 109.569 35.5645 109.795V109.78Z" fill="#EDB39F"/>
<g style="mix-blend-mode:multiply" opacity="0.5">
<path d="M39.2992 105.352L43.7824 110.208L44.0743 108.893C43.004 107.607 43.0714 106.502 43.0714 106.502C43.0714 106.502 40.5791 106.374 39.2992 105.359V105.352Z" fill="#D7CFBB"/>
</g>
<path d="M48.3404 97.3141C48.3404 97.3141 41.4697 94.8406 40.6539 96.6976C39.8381 98.5546 40.1674 100.224 39.6136 100.291C39.0597 100.366 38.3487 97.0359 37.1662 97.9682C35.9836 98.8929 37.5479 101.772 36.4851 103.502C36.0959 104.141 33.7832 97.6674 34.7337 94.7504C35.7217 91.7206 37.3308 90.6305 41.6643 90.5102C43.6177 90.4576 45.9604 90.8861 47.3375 91.7732C49.1412 92.9385 49.2909 96.1337 48.3479 97.3141H48.3404Z" fill="black"/>
<path d="M43.6102 108.08L41.7691 110.959L44.1865 113.342C44.1865 113.342 46.11 110.042 45.9229 109.997C45.7358 109.952 43.6102 108.072 43.6102 108.072V108.08Z" fill="#FFF5D9"/>
<path d="M41.7691 110.959L36.066 108.125L33.9329 109.771L40.594 114.132L41.7691 110.959Z" fill="#FFF5D9"/>
<path d="M66.9167 119.704L59.8589 134.462L68.0693 134.68L75.0224 119.621L66.9167 119.704Z" fill="#A0721C"/>
<path d="M26.6805 112.765C25.6402 113.622 25.2809 115.073 25.5878 116.381C26.9724 122.261 31.942 141.868 36.298 141.063C41.4173 140.124 35.9911 123.012 33.7982 118.268C31.972 114.314 29.1953 110.683 26.6805 112.758V112.765Z" fill="#EDB39F"/>
<path d="M27.8032 127.92C27.8032 127.92 30.7221 139.122 35.3475 142.836C39.9728 146.55 60.4951 133.228 60.4951 133.228L58.5641 128.597C58.5641 128.597 40.1075 135.777 39.651 135.266C38.6556 134.16 36.3728 124.988 36.3728 124.988L27.8032 127.92Z" fill="#EDB39F"/>
<path d="M35.4373 143.085C36.4626 143.701 37.7425 143.686 38.8352 143.19C44.2165 140.724 63.6311 131.657 63.5787 129.056C63.5188 126.034 34.9283 137.822 34.629 139.401C34.3969 140.626 33.7832 142.092 35.4373 143.085Z" fill="#EDB39F"/>
<path d="M58.5641 128.597L60.4726 127.928L62.441 132.228L60.4951 133.228L58.5641 128.597Z" fill="#EDB39F"/>
<path d="M60.5475 128.462L60.3753 127.936V127.921L61.4905 126.026C61.7824 125.545 62.1791 125.139 62.6581 124.846L65.0306 124.109C65.0306 124.109 65.7117 124.463 64.5142 125.207C64.1999 125.402 63.9379 125.929 63.7508 126.372L65.0232 125.793L68.2489 124.621C69.0722 124.312 70.3296 124.598 70.7338 125.568C70.7338 125.568 71.1903 126.966 69.9778 128.101L68.4286 129.831C67.4706 130.582 66.8718 131.342 65.6968 131.665L62.4336 132.259L60.5624 128.447L60.5475 128.462Z" fill="#EDB39F"/>
<path d="M64.8959 123.936L63.8556 126.139C63.8556 126.139 64.8884 125.094 64.9034 125.072C64.9184 125.049 65.8839 123.598 65.8839 123.575C65.8839 123.553 65.4423 123.207 65.4423 123.207L64.8959 123.936Z" fill="#A0721C"/>
<path d="M36.8368 125.823L26.905 129.928C26.1865 128.244 25.5803 126.515 25.1162 124.838C24.6971 123.35 24.3828 121.899 24.1882 120.53C23.8888 118.41 23.8888 116.493 24.248 115.005C24.6298 113.433 25.4081 112.328 26.658 111.937C28.4169 111.388 29.8539 111.772 31.0364 112.749C32.2713 113.764 33.2293 115.396 34.0302 117.275C34.6439 118.704 35.1528 120.252 35.6094 121.771C36.051 123.207 36.4476 124.605 36.8368 125.838V125.823Z" fill="#A0721C"/>
<g style="mix-blend-mode:screen" opacity="0.5">
<path d="M34.0302 117.268C30.8643 118.825 27.4963 119.855 24.1882 120.531C23.8888 118.411 23.8888 116.494 24.248 115.005C26.5532 114.479 28.851 113.75 31.0364 112.75C32.2713 113.765 33.2293 115.396 34.0302 117.276V117.268Z" fill="url(#paint13_linear_411_3215)"/>
</g>
<g style="mix-blend-mode:screen" opacity="0.5">
<path d="M36.8368 125.823L26.905 129.928C26.1865 128.244 25.5803 126.515 25.1162 124.839C28.6264 124.297 32.2788 123.35 35.6169 121.764C36.0585 123.2 36.4551 124.598 36.8443 125.831L36.8368 125.823Z" fill="url(#paint14_linear_411_3215)"/>
</g>
<g opacity="0.5">
<path d="M30.0036 85.6162C30.3553 86.5485 29.8913 87.586 28.9632 87.9393C28.0352 88.2927 27.0023 87.8266 26.6505 86.8943C26.2988 85.9621 26.7628 84.9246 27.6909 84.5712C28.619 84.2179 29.6518 84.684 30.0036 85.6162Z" fill="#E0C22E"/>
<path d="M27.3316 83.6239C26.7254 83.857 26.0518 83.5638 25.7898 82.9699L21.5237 73.0835C21.1345 72.1889 21.5761 71.1514 22.4817 70.8055C23.3874 70.4597 24.3977 70.9409 24.7046 71.8731L28.0501 82.1128C28.2522 82.7293 27.9379 83.3984 27.3316 83.6315V83.6239Z" fill="#E0C22E"/>
</g>
<g opacity="0.5">
<path d="M44.7179 82.1058C44.4186 83.0531 43.4157 83.5794 42.4651 83.2861C41.5221 82.9854 40.9982 81.978 41.2901 81.0232C41.5895 80.0759 42.5924 79.5496 43.5429 79.8428C44.4934 80.1361 45.0098 81.151 44.7179 82.1058Z" fill="#E0C22E"/>
<path d="M43.8572 78.8726C43.2435 78.6771 42.8843 78.0305 43.0489 77.399L45.8032 66.9864C46.0502 66.0467 47.0306 65.5054 47.9587 65.7986C48.8868 66.0918 49.3807 67.0992 49.044 68.0164L45.3541 78.1358C45.1296 78.7448 44.471 79.0756 43.8572 78.8801V78.8726Z" fill="#E0C22E"/>
</g>
<path d="M103.98 160.316L87.3118 189.313C87.0648 189.741 87.3717 190.275 87.8656 190.275H121.201C121.695 190.275 122.002 189.741 121.755 189.313L105.087 160.316C104.84 159.887 104.227 159.887 103.98 160.316Z" fill="#F5DD34"/>
<path d="M105.858 184.848C105.858 185.585 105.267 186.179 104.533 186.179C103.8 186.179 103.209 185.585 103.209 184.848C103.209 184.112 103.8 183.518 104.533 183.518C105.267 183.518 105.858 184.112 105.858 184.848Z" fill="white"/>
<path d="M104.533 182.224C103.935 182.224 103.441 181.75 103.411 181.149L102.954 171.15C102.909 170.248 103.635 169.488 104.533 169.488C105.432 169.488 106.15 170.248 106.113 171.15L105.656 181.149C105.626 181.75 105.132 182.224 104.533 182.224Z" fill="white"/>
<path opacity="0.5" d="M118.492 0.232915L106.255 21.5167C106.075 21.8325 106.3 22.2234 106.659 22.2234H131.126C131.485 22.2234 131.709 21.8325 131.53 21.5167L119.308 0.232915C119.128 -0.0828466 118.679 -0.0828466 118.499 0.232915H118.492Z" fill="#E0C22E"/>
<path d="M118.896 19.2164C119.433 19.2164 119.869 18.7789 119.869 18.2391C119.869 17.6993 119.433 17.2617 118.896 17.2617C118.359 17.2617 117.923 17.6993 117.923 18.2391C117.923 18.7789 118.359 19.2164 118.896 19.2164Z" fill="white"/>
<path d="M118.896 16.3138C118.454 16.3138 118.095 15.9679 118.073 15.5244L117.736 8.18669C117.706 7.52509 118.23 6.96875 118.896 6.96875C119.555 6.96875 120.086 7.52509 120.056 8.18669L119.719 15.5244C119.697 15.9679 119.338 16.3138 118.896 16.3138Z" fill="white"/>
<path d="M176.097 160.396C177.485 151.502 171.433 143.163 162.58 141.768C153.726 140.374 145.424 146.453 144.036 155.347C142.648 164.24 148.7 172.579 157.553 173.974C166.407 175.368 174.709 169.289 176.097 160.396Z" fill="#F5DD34"/>
<path d="M160.075 132.365C154.23 132.365 149.417 127.748 149.148 121.877L144.71 24.5471C144.306 15.7434 151.304 8.39062 160.075 8.39062C168.847 8.39062 175.845 15.7509 175.441 24.5471L171.003 121.877C170.733 127.741 165.921 132.365 160.075 132.365Z" fill="#7A5416"/>
<g opacity="0.5">
<path d="M265.568 79.0155C265.224 80.1132 264.064 80.7297 262.971 80.3838C261.878 80.038 261.265 78.8727 261.609 77.7751C261.953 76.6774 263.113 76.0609 264.206 76.4068C265.299 76.7526 265.913 77.9179 265.568 79.0155Z" fill="#E0C22E"/>
</g>
<path opacity="0.5" d="M264.805 74.4822C263.907 74.204 263.39 73.2643 263.63 72.3471L267.589 57.2056C267.948 55.8373 269.37 55.0479 270.717 55.4689C272.065 55.8899 272.783 57.3559 272.304 58.6866L266.983 73.3996C266.661 74.2867 265.703 74.7604 264.805 74.4822Z" fill="#E0C22E"/>
</g>
<defs>
<linearGradient id="paint0_linear_411_3215" x1="160.075" y1="160.512" x2="160.075" y2="55.1082" gradientUnits="userSpaceOnUse">
<stop stop-color="#9972FF"/>
<stop offset="1" stop-color="#7F85FF"/>
</linearGradient>
<linearGradient id="paint1_linear_411_3215" x1="160.075" y1="165.459" x2="160.075" y2="32.5464" gradientUnits="userSpaceOnUse">
<stop stop-color="#8AD3FF"/>
<stop offset="1" stop-color="#5F9CFF"/>
</linearGradient>
<linearGradient id="paint2_linear_411_3215" x1="160.075" y1="130.199" x2="160.075" y2="114.824" gradientUnits="userSpaceOnUse">
<stop stop-color="#E2F4FF"/>
<stop offset="1" stop-color="#D7ECFF"/>
</linearGradient>
<linearGradient id="paint3_linear_411_3215" x1="160.075" y1="96.9692" x2="160.075" y2="81.9104" gradientUnits="userSpaceOnUse">
<stop stop-color="#E2F4FF"/>
<stop offset="1" stop-color="#D7ECFF"/>
</linearGradient>
<linearGradient id="paint4_linear_411_3215" x1="160.075" y1="65.8441" x2="160.075" y2="50.9507" gradientUnits="userSpaceOnUse">
<stop stop-color="#E2F4FF"/>
<stop offset="1" stop-color="#D7ECFF"/>
</linearGradient>
<linearGradient id="paint5_linear_411_3215" x1="160.075" y1="165.459" x2="160.075" y2="32.5464" gradientUnits="userSpaceOnUse">
<stop stop-color="#9972FF"/>
<stop offset="1" stop-color="#7F85FF"/>
</linearGradient>
<linearGradient id="paint6_linear_411_3215" x1="49.0664" y1="115.35" x2="61.4897" y2="112.219" gradientUnits="userSpaceOnUse">
<stop stop-color="#294698"/>
<stop offset="1" stop-color="#0E4BA6"/>
</linearGradient>
<linearGradient id="paint7_linear_411_3215" x1="48.9017" y1="114.681" x2="61.3251" y2="111.55" gradientUnits="userSpaceOnUse">
<stop stop-color="#294698"/>
<stop offset="1" stop-color="#0E4BA6"/>
</linearGradient>
<linearGradient id="paint8_linear_411_3215" x1="24.742" y1="115.035" x2="51.1471" y2="115.035" gradientUnits="userSpaceOnUse">
<stop stop-color="#E2F4FF"/>
<stop offset="1" stop-color="#D7ECFF"/>
</linearGradient>
<linearGradient id="paint9_linear_411_3215" x1="25.8572" y1="124.681" x2="52.2024" y2="124.681" gradientUnits="userSpaceOnUse">
<stop stop-color="#E2F4FF"/>
<stop offset="1" stop-color="#D7ECFF"/>
</linearGradient>
<linearGradient id="paint10_linear_411_3215" x1="26.6057" y1="135.395" x2="52.9134" y2="135.395" gradientUnits="userSpaceOnUse">
<stop stop-color="#E2F4FF"/>
<stop offset="1" stop-color="#D7ECFF"/>
</linearGradient>
<linearGradient id="paint11_linear_411_3215" x1="26.4036" y1="146.191" x2="53.7367" y2="146.191" gradientUnits="userSpaceOnUse">
<stop stop-color="#E2F4FF"/>
<stop offset="1" stop-color="#D7ECFF"/>
</linearGradient>
<linearGradient id="paint12_linear_411_3215" x1="25.2959" y1="156.189" x2="55.4281" y2="156.189" gradientUnits="userSpaceOnUse">
<stop stop-color="#E2F4FF"/>
<stop offset="1" stop-color="#D7ECFF"/>
</linearGradient>
<linearGradient id="paint13_linear_411_3215" x1="34.5167" y1="114.584" x2="21.5806" y2="118.656" gradientUnits="userSpaceOnUse">
<stop stop-color="#294698"/>
<stop offset="1" stop-color="#0E4BA6"/>
</linearGradient>
<linearGradient id="paint14_linear_411_3215" x1="37.4057" y1="123.756" x2="24.4695" y2="127.827" gradientUnits="userSpaceOnUse">
<stop stop-color="#294698"/>
<stop offset="1" stop-color="#0E4BA6"/>
</linearGradient>
<clipPath id="clip0_411_3215">
<rect width="275" height="253" fill="white" transform="translate(0.5)"/>
</clipPath>
</defs>
</svg>
