<svg width="18" height="20" viewBox="0 0 18 20" fill="none" xmlns="http://www.w3.org/2000/svg">
<path d="M1.75 3V17C1.75 17.3315 1.8817 17.6495 2.11612 17.8839C2.35054 18.1183 2.66848 18.25 3 18.25H15C15.3315 18.25 15.6495 18.1183 15.8839 17.8839C16.1183 17.6495 16.25 17.3315 16.25 17V10C16.25 9.80109 16.329 9.61032 16.4697 9.46967C16.6103 9.32902 16.8011 9.25 17 9.25C17.1989 9.25 17.3897 9.32902 17.5303 9.46967C17.671 9.61032 17.75 9.80109 17.75 10V17C17.75 17.7293 17.4603 18.4288 16.9445 18.9445C16.4288 19.4603 15.7293 19.75 15 19.75H3C2.27065 19.75 1.57118 19.4603 1.05546 18.9445C0.539731 18.4288 0.25 17.7293 0.25 17L0.25 3C0.25 2.27065 0.539731 1.57118 1.05546 1.05546C1.57118 0.539731 2.27065 0.25 3 0.25L9 0.25C9.19891 0.25 9.38968 0.329018 9.53033 0.46967C9.67098 0.610322 9.75 0.801088 9.75 1C9.75 1.19891 9.67098 1.38968 9.53033 1.53033C9.38968 1.67098 9.19891 1.75 9 1.75H3C2.66848 1.75 2.35054 1.8817 2.11612 2.11612C1.8817 2.35054 1.75 2.66848 1.75 3Z" fill="black"/>
<path d="M5.30001 14.6709C5.15677 14.6709 5.01521 14.6402 4.8849 14.5807C4.75459 14.5212 4.63857 14.4345 4.5447 14.3263C4.45083 14.2181 4.3813 14.091 4.34081 13.9536C4.30032 13.8162 4.28981 13.6717 4.31001 13.5299L4.78201 10.2299C4.81348 10.016 4.91307 9.81785 5.06601 9.66494L12.607 2.12094C12.8856 1.84234 13.2164 1.62135 13.5804 1.47057C13.9444 1.31979 14.3345 1.24219 14.7285 1.24219C15.1225 1.24219 15.5126 1.31979 15.8767 1.47057C16.2407 1.62135 16.5714 1.84234 16.85 2.12094C17.1286 2.39954 17.3496 2.73029 17.5004 3.09429C17.6512 3.4583 17.7288 3.84844 17.7288 4.24244C17.7288 4.63644 17.6512 5.02658 17.5004 5.39059C17.3496 5.7546 17.1286 6.08534 16.85 6.36394L9.30801 13.9069C9.15465 14.0596 8.95618 14.1589 8.74201 14.1899L5.44201 14.6619C5.39494 14.6682 5.34749 14.6712 5.30001 14.6709ZM11.723 5.12594L6.24301 10.6059L5.88901 13.0809L8.36401 12.7269L13.844 7.24294L11.723 5.12594ZM14.728 2.74294C14.5311 2.74233 14.336 2.78081 14.154 2.85617C13.972 2.93153 13.8068 3.04226 13.668 3.18194L12.783 4.06594L14.9 6.18794L15.785 5.30394C15.9947 5.0944 16.1376 4.82743 16.1956 4.53674C16.2537 4.24605 16.2243 3.94468 16.1112 3.67067C15.9981 3.39666 15.8064 3.1623 15.5602 2.99718C15.314 2.83207 15.0244 2.7436 14.728 2.74294Z" fill="black"/>
</svg>
