<svg width="394" height="222" viewBox="0 0 394 222" fill="none" xmlns="http://www.w3.org/2000/svg">
<path d="M166.756 204.06C159.637 195.15 155.595 181.819 154.632 164.076C153.675 146.434 156.251 132.796 162.365 123.165C168.48 113.535 177.801 108.379 190.335 107.697C202.867 107.018 212.694 111.136 219.813 120.047C226.933 128.961 230.973 142.239 231.93 159.881C232.888 177.525 230.311 191.185 224.201 200.867C218.09 210.548 208.767 215.728 196.237 216.41C183.703 217.089 173.879 212.975 166.758 204.06H166.756Z" fill="white"/>
<path d="M166.756 204.06C159.637 195.15 155.595 181.819 154.632 164.076C153.675 146.434 156.251 132.796 162.365 123.165C168.48 113.535 177.801 108.379 190.335 107.697C202.867 107.018 212.694 111.136 219.813 120.047C226.933 128.961 230.973 142.239 231.93 159.881C232.888 177.525 230.311 191.185 224.201 200.867C218.09 210.548 208.767 215.728 196.237 216.41C183.703 217.089 173.879 212.975 166.758 204.06H166.756Z" stroke="#ECC402" stroke-width="10" stroke-miterlimit="10"/>
<path d="M209.789 191.018C212.555 184.587 213.571 174.552 212.831 160.919C212.086 147.186 209.99 137.322 206.549 131.325C203.106 125.328 197.975 122.517 191.159 122.886C184.341 123.257 179.546 126.633 176.778 133.015C174.006 139.401 172.992 149.408 173.732 163.04C174.472 176.674 176.564 186.538 180.014 192.633C183.46 198.73 188.593 201.593 195.411 201.223C202.227 200.854 207.02 197.451 209.789 191.016V191.018Z" fill="#FFDF01"/>
<path d="M209.789 191.018C212.555 184.587 213.571 174.552 212.831 160.919C212.086 147.186 209.99 137.322 206.549 131.325C203.106 125.328 197.975 122.517 191.159 122.886C184.341 123.257 179.546 126.633 176.778 133.015C174.006 139.401 172.992 149.408 173.732 163.04C174.472 176.674 176.564 186.538 180.014 192.633C183.46 198.73 188.593 201.593 195.411 201.223C202.227 200.854 207.02 197.451 209.789 191.016V191.018Z" stroke="#ECC402" stroke-width="10" stroke-miterlimit="10"/>
<path d="M253.173 162.527H128.558V164.188H253.173V162.527Z" fill="#C58E03"/>
<path d="M336.778 162.949H321.573C321.497 162.949 321.436 163.011 321.436 163.086V164.058C321.436 164.134 321.497 164.195 321.573 164.195H336.778C336.854 164.195 336.915 164.134 336.915 164.058V163.086C336.915 163.011 336.854 162.949 336.778 162.949Z" fill="#C58E03"/>
<path d="M60.0289 162.949H44.8236C44.7479 162.949 44.6865 163.011 44.6865 163.086V164.058C44.6865 164.134 44.7479 164.195 44.8236 164.195H60.0289C60.1046 164.195 60.1659 164.134 60.1659 164.058V163.086C60.1659 163.011 60.1046 162.949 60.0289 162.949Z" fill="#C58E03"/>
<path d="M323.466 188.768H308.169C308.119 188.768 308.078 188.808 308.078 188.859V189.508C308.078 189.558 308.119 189.599 308.169 189.599H323.466C323.516 189.599 323.557 189.558 323.557 189.508V188.859C323.557 188.808 323.516 188.768 323.466 188.768Z" fill="#C4CEFE"/>
<path opacity="0.5" d="M67.477 56.3626C70.3807 56.3626 72.9042 54.2542 73.2971 51.3783C73.3665 50.8631 73.4031 50.335 73.4031 49.8015C73.4031 43.3975 68.2116 38.2067 61.8068 38.2067C61.5436 38.2067 61.2841 38.2195 61.0247 38.236C60.4947 31.9215 55.2046 26.9609 48.7522 26.9609C41.949 26.9609 36.4323 32.4751 36.4323 39.2793C36.4323 39.5807 36.4469 39.8785 36.4689 40.1764C34.5373 39.0984 32.2879 38.521 29.8941 38.6306C23.7067 38.9138 18.6212 43.8634 18.1845 50.0409C18.1808 50.0902 18.1772 50.1395 18.1753 50.187C17.9762 53.5471 20.6934 56.3645 24.0594 56.3645H67.477V56.3626Z" fill="#ECC402"/>
<path opacity="0.5" d="M370.591 84.7973C379.761 84.7973 380.269 70.9991 371.11 70.5533C370.86 70.5405 370.607 70.535 370.355 70.535C368.72 70.535 367.147 70.7944 365.67 71.2695C364.444 63.8003 357.962 58.1016 350.145 58.1016C342.328 58.1016 335.563 64.0561 334.549 71.7664C332.654 70.8584 330.53 70.3486 328.288 70.3486C327.036 70.3486 325.819 70.5076 324.661 70.8054C316.642 72.87 318.325 84.7992 326.605 84.7992H370.595L370.591 84.7973Z" fill="#ECC402"/>
<path opacity="0.5" d="M290.586 27.452C299.754 27.452 300.26 13.6574 291.105 13.2116C290.855 13.1988 290.603 13.1933 290.351 13.1933C288.717 13.1933 287.142 13.4528 285.665 13.926C284.439 6.45862 277.959 0.761719 270.146 0.761719C262.332 0.761719 255.567 6.71441 254.553 14.423C252.658 13.5149 250.535 13.0051 248.294 13.0051C247.043 13.0051 245.827 13.1641 244.667 13.4619C236.65 15.5265 238.333 27.4502 246.611 27.4502H290.586V27.452Z" fill="#ECC402"/>
<path opacity="0.5" d="M286.661 52.7988C291.471 57.8763 292.786 57.9111 297.865 53.1021C292.786 57.9111 292.752 59.2266 297.561 64.3041C292.752 59.2266 291.436 59.1919 286.358 64.0008C291.436 59.1919 291.471 57.8763 286.661 52.7988Z" fill="#ECC402"/>
<path opacity="0.5" d="M110.887 13.4707C115.697 18.5482 117.013 18.5829 122.091 13.774C117.013 18.5829 116.978 19.8984 121.787 24.976C116.978 19.8984 115.662 19.8637 110.584 24.6727C115.662 19.8637 115.697 18.5482 110.887 13.4707Z" fill="#ECC402"/>
<path opacity="0.5" d="M63.274 86.0098C68.0836 91.0873 69.3993 91.122 74.4775 86.3131C69.3993 91.122 69.3646 92.4375 74.1741 97.515C69.3646 92.4375 68.0489 92.4028 62.9707 97.2117C68.0489 92.4028 68.0836 91.0873 63.274 86.0098Z" fill="#ECC402"/>
<path opacity="0.5" d="M8.23449 73.1328C13.0441 78.2103 14.3597 78.245 19.4379 73.4361C14.3597 78.245 14.325 79.5606 19.1346 84.6381C14.325 79.5606 13.0093 79.5258 7.93115 84.3348C13.0093 79.5258 13.0441 78.2103 8.23449 73.1328Z" fill="#ECC402"/>
<path opacity="0.5" d="M342.775 111.061C347.585 116.138 348.901 116.173 353.979 111.364C348.901 116.173 348.866 117.488 353.675 122.566C348.866 117.488 347.55 117.454 342.472 122.263C347.55 117.454 347.585 116.138 342.775 111.061Z" fill="#ECC402"/>
<path d="M169.483 94.7538L213.399 81.8581C214.222 81.617 214.693 80.7546 214.45 79.9324L196.526 18.9036C196.285 18.0814 195.422 17.61 194.6 17.853L164.531 26.6815C164.147 26.7948 163.82 27.0506 163.621 27.3996L153.676 44.7607C153.466 45.1279 153.415 45.5628 153.534 45.9684L167.553 93.7032C167.795 94.5254 168.657 94.9968 169.479 94.7538H169.483Z" fill="white"/>
<path d="M169.219 94.7265L213.135 81.8308C213.958 81.5896 214.429 80.7272 214.186 79.905L196.262 18.8762C196.02 18.054 195.158 17.5826 194.336 17.8256L164.267 26.6542C163.883 26.7675 163.556 27.0233 163.357 27.3722L153.412 44.7333C153.202 45.1006 153.151 45.5354 153.27 45.9411L167.289 93.6759C167.53 94.4981 168.393 94.9695 169.215 94.7265H169.219Z" fill="white"/>
<path d="M169.483 94.7538L213.399 81.8581C214.222 81.617 214.693 80.7546 214.45 79.9324L196.526 18.9036C196.285 18.0814 195.422 17.61 194.6 17.853L164.531 26.6815C164.147 26.7948 163.82 27.0506 163.621 27.3996L153.676 44.7607C153.466 45.1279 153.415 45.5628 153.534 45.9684L167.553 93.7032C167.795 94.5254 168.657 94.9968 169.479 94.7538H169.483Z" stroke="#ECC402" stroke-width="2" stroke-linecap="round" stroke-linejoin="round"/>
<path d="M164.321 27.627L167.987 40.1115C168.244 40.9885 167.744 41.9094 166.868 42.1725L153.817 46.0661" fill="white"/>
<path d="M164.321 27.627L167.987 40.1115C168.244 40.9885 167.744 41.9094 166.868 42.1725L153.817 46.0661" stroke="#ECC402" stroke-width="2" stroke-linecap="round" stroke-linejoin="round"/>
<path d="M172.898 73.6116L170.41 74.3423C170.216 74.3992 170.105 74.6023 170.162 74.7959L173.234 85.2528C173.291 85.4464 173.494 85.5573 173.688 85.5004L176.176 84.7697C176.369 84.7128 176.48 84.5097 176.423 84.3161L173.351 73.8592C173.294 73.6656 173.091 73.5547 172.898 73.6116Z" fill="#C58E03"/>
<path d="M186.589 73.055L184.101 73.7857C183.907 73.8426 183.796 74.0456 183.853 74.2393L185.988 81.5074C186.045 81.701 186.248 81.8119 186.442 81.755L188.93 81.0243C189.123 80.9674 189.234 80.7643 189.177 80.5707L187.042 73.3026C186.985 73.1089 186.782 72.9981 186.589 73.055Z" fill="#C58E03"/>
<path d="M178.338 68.5511L175.85 69.2818C175.656 69.3387 175.545 69.5417 175.602 69.7354L179.61 83.3792C179.667 83.5729 179.87 83.6837 180.064 83.6268L182.552 82.8961C182.746 82.8393 182.856 82.6362 182.8 82.4425L178.791 68.7987C178.734 68.605 178.531 68.4942 178.338 68.5511Z" fill="#C58E03"/>
<path d="M163.626 52.5629L193.12 43.9043" stroke="#C58E03" stroke-width="2" stroke-linecap="round" stroke-linejoin="round"/>
<path d="M165.032 57.346L194.523 48.6855" stroke="#C58E03" stroke-width="2" stroke-linecap="round" stroke-linejoin="round"/>
<path d="M166.435 62.1273L195.928 53.4668" stroke="#C58E03" stroke-width="2" stroke-linecap="round" stroke-linejoin="round"/>
<path d="M229.389 78.282L230.483 75.9561C230.691 75.5121 230.474 74.9859 230.012 74.8215L215.313 69.543L214.667 70.7068L228.215 78.6474C228.638 78.8941 229.18 78.726 229.387 78.2838L229.389 78.282Z" fill="#ECC402"/>
<path d="M204.285 77.9394C210.862 77.9394 216.194 72.6084 216.194 66.0322C216.194 59.456 210.862 54.125 204.285 54.125C197.708 54.125 192.376 59.456 192.376 66.0322C192.376 72.6084 197.708 77.9394 204.285 77.9394Z" fill="#F6E592"/>
<path d="M204.285 75.4558C209.49 75.4558 213.71 71.2364 213.71 66.0316C213.71 60.8268 209.49 56.6074 204.285 56.6074C199.079 56.6074 194.859 60.8268 194.859 66.0316C194.859 71.2364 199.079 75.4558 204.285 75.4558Z" fill="white"/>
<path d="M204.285 77.9394C210.862 77.9394 216.194 72.6084 216.194 66.0322C216.194 59.456 210.862 54.125 204.285 54.125C197.708 54.125 192.376 59.456 192.376 66.0322C192.376 72.6084 197.708 77.9394 204.285 77.9394Z" stroke="#ECC402" stroke-width="2" stroke-linecap="round" stroke-linejoin="round"/>
<path d="M204.341 61.4609L204.27 67.2748" stroke="#B17303" stroke-width="2" stroke-linecap="round" stroke-linejoin="round"/>
<ellipse cx="204.228" cy="70.598" rx="0.730937" ry="0.73084" fill="#B17303"/>
<path d="M204.228 70.6015C204.23 70.6015 204.232 70.5997 204.232 70.5976C204.232 70.5955 204.23 70.5938 204.228 70.5938C204.226 70.5938 204.224 70.5955 204.224 70.5976C204.224 70.5997 204.226 70.6015 204.228 70.6015Z" stroke="#B17303" stroke-width="2" stroke-linecap="round" stroke-linejoin="round"/>
<path d="M330.777 161.103L319.062 163.456L323.769 186.885L298.685 191.925L293.978 168.496L248.017 177.73L244.366 159.557L272.456 87.8218L302.645 81.7559L314.717 141.829L326.432 139.476L330.777 161.103ZM283.082 114.28L269.804 150.851L289.631 146.868L283.082 114.278V114.28Z" fill="#B17303"/>
<path d="M137.459 173.23L125.672 171.266L121.744 194.838L96.5063 190.632L100.435 167.06L54.1924 159.354L57.2404 141.07L109 84.0059L139.374 89.0688L129.298 149.509L141.084 151.473L137.457 173.232L137.459 173.23ZM109.528 112.512L84.1151 141.976L104.062 145.3L109.528 112.512Z" fill="#B17303"/>
<path d="M393.207 163.762H0.207031V218.762H393.207V163.762Z" fill="white"/>
<path d="M64.8089 189.906H49.5123C49.4618 189.906 49.4209 189.947 49.4209 189.998V190.646C49.4209 190.697 49.4618 190.738 49.5123 190.738H64.8089C64.8594 190.738 64.9003 190.697 64.9003 190.646V189.998C64.9003 189.947 64.8594 189.906 64.8089 189.906Z" fill="#C58E03"/>
<path d="M106.812 189.906H91.5157C91.4652 189.906 91.4243 189.947 91.4243 189.998V190.646C91.4243 190.697 91.4652 190.738 91.5157 190.738H106.812C106.863 190.738 106.904 190.697 106.904 190.646V189.998C106.904 189.947 106.863 189.906 106.812 189.906Z" fill="#C58E03"/>
<path d="M145.04 180.043H129.744C129.693 180.043 129.652 180.084 129.652 180.134V180.783C129.652 180.833 129.693 180.874 129.744 180.874H145.04C145.091 180.874 145.132 180.833 145.132 180.783V180.134C145.132 180.084 145.091 180.043 145.04 180.043Z" fill="#C58E03"/>
<path d="M166.782 190.951H151.485C151.435 190.951 151.394 190.992 151.394 191.043V191.691C151.394 191.742 151.435 191.782 151.485 191.782H166.782C166.833 191.782 166.873 191.742 166.873 191.691V191.043C166.873 190.992 166.833 190.951 166.782 190.951Z" fill="#C58E03"/>
<path d="M220.426 190.951H205.129C205.079 190.951 205.038 190.992 205.038 191.043V191.691C205.038 191.742 205.079 191.782 205.129 191.782H220.426C220.476 191.782 220.517 191.742 220.517 191.691V191.043C220.517 190.992 220.476 190.951 220.426 190.951Z" fill="#C58E03"/>
<path d="M280.439 190.334H265.142C265.092 190.334 265.051 190.375 265.051 190.425V191.074C265.051 191.124 265.092 191.165 265.142 191.165H280.439C280.49 191.165 280.53 191.124 280.53 191.074V190.425C280.53 190.375 280.49 190.334 280.439 190.334Z" fill="#C58E03"/>
<path d="M89.7889 178.443H74.4922C74.4418 178.443 74.4009 178.484 74.4009 178.535V179.183C74.4009 179.234 74.4418 179.275 74.4922 179.275H89.7889C89.8394 179.275 89.8803 179.234 89.8803 179.183V178.535C89.8803 178.484 89.8394 178.443 89.7889 178.443Z" fill="#C58E03"/>
<path d="M196.595 178.039H181.298C181.248 178.039 181.207 178.08 181.207 178.13V178.779C181.207 178.829 181.248 178.87 181.298 178.87H196.595C196.646 178.87 196.686 178.829 196.686 178.779V178.13C196.686 178.08 196.646 178.039 196.595 178.039Z" fill="#C58E03"/>
<path d="M305.417 177.975H290.12C290.07 177.975 290.029 178.016 290.029 178.066V178.715C290.029 178.765 290.07 178.806 290.12 178.806H305.417C305.468 178.806 305.508 178.765 305.508 178.715V178.066C305.508 178.016 305.468 177.975 305.417 177.975Z" fill="#C58E03"/>
<path d="M251.854 174.105H236.557C236.507 174.105 236.466 174.146 236.466 174.197V174.845C236.466 174.896 236.507 174.937 236.557 174.937H251.854C251.904 174.937 251.945 174.896 251.945 174.845V174.197C251.945 174.146 251.904 174.105 251.854 174.105Z" fill="#C58E03"/>
</svg>
