<svg width="20" height="20" viewBox="0 0 20 20" fill="none" xmlns="http://www.w3.org/2000/svg">
<path d="M8.00001 19.589C7.7348 19.589 7.48044 19.4836 7.29291 19.2961C7.10537 19.1086 7.00001 18.8542 7.00001 18.589V10.5L1.14701 5.9C0.788672 5.62045 0.499022 5.26264 0.300219 4.85394C0.101416 4.44524 -0.00127135 3.99648 1.18802e-05 3.542V2C1.18802e-05 1.46957 0.210726 0.960859 0.585798 0.585786C0.960871 0.210714 1.46958 0 2.00001 0L18 0C18.5304 0 19.0392 0.210714 19.4142 0.585786C19.7893 0.960859 20 1.46957 20 2V3.542C20.0014 3.99651 19.8988 4.44532 19.7 4.85404C19.5012 5.26276 19.2115 5.62055 18.853 5.9L13 10.5V17.181C13 17.388 12.9357 17.5899 12.816 17.7588C12.6964 17.9277 12.5273 18.0553 12.332 18.124L8.33201 19.532C8.22536 19.5696 8.1131 19.5889 8.00001 19.589ZM2.00001 1.5C1.8674 1.5 1.74023 1.55268 1.64646 1.64645C1.55269 1.74021 1.50001 1.86739 1.50001 2V3.542C1.49916 3.76937 1.55035 3.99392 1.64967 4.19845C1.74899 4.40298 1.8938 4.58207 2.07301 4.722L7.92601 9.322C8.10514 9.46162 8.24998 9.64035 8.34946 9.84451C8.44895 10.0487 8.50044 10.2729 8.50001 10.5V17.882L11.5 16.826V10.5C11.4993 10.2727 11.5506 10.0482 11.6499 9.84365C11.7492 9.63914 11.8939 9.46003 12.073 9.32L17.927 4.72C18.1061 4.57997 18.2508 4.40086 18.3501 4.19635C18.4495 3.99184 18.5007 3.76734 18.5 3.54V2C18.5 1.86739 18.4473 1.74021 18.3536 1.64645C18.2598 1.55268 18.1326 1.5 18 1.5H2.00001Z" fill="black"/>
</svg>
