<svg width="40" height="37" viewBox="0 0 40 37" fill="none" xmlns="http://www.w3.org/2000/svg">
<path d="M37.266 5.56156C37.2149 4.9333 36.9824 4.33339 36.5968 3.83477C36.2112 3.33614 35.689 2.96026 35.0938 2.75281V2.5625C35.0922 2.04083 34.8843 1.54098 34.5154 1.1721C34.1466 0.80323 33.6467 0.595308 33.125 0.59375H30.5C29.9784 0.595308 29.4785 0.80323 29.1096 1.1721C28.7408 1.54098 28.5328 2.04083 28.5313 2.5625V2.57563C27.9503 2.59542 27.3856 2.77232 26.8972 3.0875C26.3492 2.50466 25.6871 2.04076 24.9521 1.72466C24.2172 1.40855 23.4251 1.24698 22.625 1.25H17.375C16.575 1.24698 15.7829 1.40855 15.0479 1.72466C14.313 2.04076 13.6509 2.50466 13.1028 3.0875C12.8025 2.89424 12.472 2.7523 12.125 2.6675V2.5625C12.1235 2.04083 11.9155 1.54098 11.5467 1.1721C11.1778 0.80323 10.6779 0.595308 10.1563 0.59375H7.53128C7.00961 0.595308 6.50976 0.80323 6.14088 1.1721C5.77201 1.54098 5.56408 2.04083 5.56253 2.5625V2.60188C4.82316 2.69604 4.13863 3.0415 3.62367 3.58035C3.10872 4.1192 2.79464 4.81869 2.73409 5.56156V5.56813L0.561901 33.1241C0.522805 33.577 0.57825 34.0331 0.72472 34.4635C0.871191 34.8938 1.10549 35.289 1.41276 35.6241C1.72003 35.9591 2.09357 36.2267 2.50969 36.4097C2.92581 36.5928 3.37542 36.6874 3.83003 36.6875H9.36222C10.1101 36.6911 10.8365 36.4374 11.4196 35.9691C12.0026 35.5007 12.407 34.8461 12.5647 34.115L14.2775 26.4172C14.3732 25.9789 14.6163 25.5867 14.9662 25.3061C15.3161 25.0254 15.7518 24.8732 16.2003 24.875H23.7997C24.2483 24.8732 24.6839 25.0254 25.0338 25.3061C25.3838 25.5867 25.6269 25.9789 25.7225 26.4172L27.4353 34.115C27.5931 34.8461 27.9974 35.5007 28.5805 35.9691C29.1636 36.4374 29.89 36.6911 30.6378 36.6875H36.17C36.624 36.6873 37.0731 36.5929 37.4887 36.4102C37.9043 36.2275 38.2775 35.9606 38.5847 35.6263C38.8919 35.292 39.1263 34.8976 39.2732 34.468C39.4201 34.0384 39.4763 33.583 39.4382 33.1306L37.266 5.56156ZM30.5 1.90625H33.125C33.2991 1.90625 33.466 1.97539 33.5891 2.09846C33.7121 2.22153 33.7813 2.38845 33.7813 2.5625H29.8438C29.8438 2.38845 29.9129 2.22153 30.036 2.09846C30.1591 1.97539 30.326 1.90625 30.5 1.90625ZM17.375 2.5625H22.625C23.8013 2.56108 24.9325 3.01497 25.7816 3.82906L24.2328 4.85938C23.9104 5.07466 23.5311 5.1889 23.1435 5.1875H16.8566C16.4689 5.1889 16.0896 5.07466 15.7672 4.85938L14.2185 3.82906C15.0675 3.01497 16.1987 2.56108 17.375 2.5625ZM7.53128 1.90625H10.1563C10.3303 1.90625 10.4972 1.97539 10.6203 2.09846C10.7434 2.22153 10.8125 2.38845 10.8125 2.5625H6.87503C6.87503 2.38845 6.94417 2.22153 7.06724 2.09846C7.19031 1.97539 7.35723 1.90625 7.53128 1.90625ZM37.6203 34.7384C37.4359 34.9392 37.2117 35.0994 36.962 35.209C36.7124 35.3186 36.4427 35.3751 36.17 35.375H30.6378C30.1893 35.3768 29.7536 35.2246 29.4037 34.944C29.0538 34.6633 28.8107 34.2711 28.715 33.8328L27.0022 26.135C26.8445 25.4039 26.4401 24.7493 25.8571 24.281C25.274 23.8126 24.5476 23.5589 23.7997 23.5625H16.2003C15.4525 23.5589 14.7261 23.8126 14.143 24.281C13.5599 24.7493 13.1556 25.4039 12.9978 26.135L11.285 33.8328C11.1894 34.2711 10.9463 34.6633 10.5963 34.944C10.2464 35.2246 9.8108 35.3768 9.36222 35.375H3.83003C3.55656 35.3757 3.28598 35.3191 3.03569 35.209C2.78539 35.0988 2.56092 34.9375 2.37673 34.7354C2.19253 34.5332 2.05267 34.2948 1.96616 34.0354C1.87965 33.776 1.84839 33.5013 1.8744 33.2291L4.04003 5.67313C4.08082 5.18149 4.30548 4.72331 4.66918 4.39002C5.03289 4.05672 5.5089 3.87282 6.00221 3.875H11.331C11.7186 3.8736 12.0979 3.98784 12.4203 4.20313L15.0388 5.94875C15.5764 6.30919 16.2093 6.50112 16.8566 6.5H23.1435C23.7907 6.50112 24.4236 6.30919 24.9613 5.94875L27.5797 4.20313C27.9021 3.98784 28.2814 3.8736 28.6691 3.875H33.9978C34.4904 3.87161 34.9661 4.05424 35.3299 4.38638C35.6937 4.71852 35.9187 5.17571 35.96 5.66656L38.1322 33.2356C38.1555 33.5079 38.122 33.7821 38.0339 34.0407C37.9458 34.2994 37.805 34.537 37.6203 34.7384Z" fill="#082431"/>
<path d="M35.3104 5.7322C35.2823 5.40378 35.1318 5.09793 34.8886 4.87543C34.6454 4.65293 34.3275 4.53007 33.9979 4.53126H28.6691C28.4095 4.53154 28.1559 4.60923 27.9407 4.75438L25.3288 6.49345C24.6821 6.92605 23.9215 7.15675 23.1435 7.15626H16.8566C16.0786 7.15675 15.3179 6.92605 14.6713 6.49345L12.0594 4.74782C11.8423 4.60753 11.5895 4.53238 11.331 4.53126H6.00222C5.67582 4.53141 5.36119 4.65319 5.11972 4.87281C4.87826 5.09243 4.72729 5.39415 4.69629 5.71907L2.5241 33.2947C2.50866 33.4757 2.53095 33.6579 2.58954 33.8297C2.64814 34.0016 2.74177 34.1595 2.86452 34.2934C2.98727 34.4272 3.13645 34.5341 3.30265 34.6074C3.46884 34.6806 3.64843 34.7185 3.83004 34.7188H9.36222C9.66179 34.7216 9.95306 34.6204 10.1864 34.4326C10.4198 34.2447 10.5807 33.9817 10.6419 33.6885L12.3547 25.9906C12.5449 25.1135 13.0308 24.3284 13.7309 23.7669C14.431 23.2054 15.3029 22.9015 16.2003 22.9063H23.7997C24.6972 22.9015 25.569 23.2054 26.2692 23.7669C26.9693 24.3284 27.4552 25.1135 27.6454 25.9906L29.3582 33.6885C29.4193 33.9817 29.5803 34.2447 29.8137 34.4326C30.047 34.6204 30.3383 34.7216 30.6378 34.7188H36.17C36.3517 34.7188 36.5313 34.6808 36.6974 34.6074C36.8636 34.5339 37.0125 34.4266 37.1347 34.2922C37.2585 34.1566 37.3528 33.9967 37.4115 33.8228C37.4703 33.6488 37.4922 33.4645 37.476 33.2816L35.3104 5.7322ZM8.18754 9.78126C8.18754 9.52167 8.26451 9.26791 8.40873 9.05207C8.55295 8.83623 8.75794 8.66801 8.99776 8.56867C9.23759 8.46933 9.50149 8.44334 9.75609 8.49398C10.0107 8.54462 10.2446 8.66963 10.4281 8.85318C10.6117 9.03674 10.7367 9.2706 10.7873 9.5252C10.838 9.7798 10.812 10.0437 10.7126 10.2835C10.6133 10.5234 10.4451 10.7283 10.2292 10.8726C10.0134 11.0168 9.75962 11.0938 9.50004 11.0938C9.15226 11.0927 8.81902 10.9541 8.57311 10.7082C8.32719 10.4623 8.18858 10.129 8.18754 9.78126ZM18.0313 17.6563H15.4063V20.2813H12.7813V17.6563H10.1563V15.0313H12.7813V12.4063H15.4063V15.0313H18.0313V17.6563ZM21.3125 11.0938H18.6875V9.78126H21.3125V11.0938ZM23.2813 17C23.0217 17 22.7679 16.923 22.5521 16.7788C22.3363 16.6346 22.168 16.4296 22.0687 16.1898C21.9694 15.95 21.9434 15.6861 21.994 15.4315C22.0447 15.1769 22.1697 14.943 22.3532 14.7594C22.5368 14.5759 22.7706 14.4509 23.0252 14.4002C23.2798 14.3496 23.5437 14.3756 23.7836 14.4749C24.0234 14.5743 24.2284 14.7425 24.3726 14.9583C24.5168 15.1742 24.5938 15.4279 24.5938 15.6875C24.5927 16.0353 24.4541 16.3685 24.2082 16.6144C23.9623 16.8604 23.6291 16.999 23.2813 17ZM26.5625 20.2813C26.3029 20.2813 26.0492 20.2043 25.8334 20.0601C25.6175 19.9159 25.4493 19.7109 25.3499 19.471C25.2506 19.2312 25.2246 18.9673 25.2753 18.7127C25.3259 18.4581 25.4509 18.2242 25.6345 18.0407C25.818 17.8571 26.0519 17.7321 26.3065 17.6815C26.5611 17.6308 26.825 17.6568 27.0648 17.7562C27.3046 17.8555 27.5096 18.0237 27.6538 18.2396C27.7981 18.4554 27.875 18.7092 27.875 18.9688C27.874 19.3165 27.7354 19.6498 27.4895 19.8957C27.2436 20.1416 26.9103 20.2802 26.5625 20.2813ZM26.5625 13.7188C26.3029 13.7188 26.0492 13.6418 25.8334 13.4976C25.6175 13.3533 25.4493 13.1484 25.3499 12.9085C25.2506 12.6687 25.2246 12.4048 25.2753 12.1502C25.3259 11.8956 25.4509 11.6617 25.6345 11.4782C25.818 11.2946 26.0519 11.1696 26.3065 11.119C26.5611 11.0683 26.825 11.0943 27.0648 11.1937C27.3046 11.293 27.5096 11.4612 27.6538 11.6771C27.7981 11.8929 27.875 12.1467 27.875 12.4063C27.874 12.754 27.7354 13.0873 27.4895 13.3332C27.2436 13.5791 26.9103 13.7177 26.5625 13.7188ZM29.8438 17C29.5842 17 29.3304 16.923 29.1146 16.7788C28.8988 16.6346 28.7305 16.4296 28.6312 16.1898C28.5319 15.95 28.5059 15.6861 28.5565 15.4315C28.6071 15.1769 28.7322 14.943 28.9157 14.7594C29.0993 14.5759 29.3331 14.4509 29.5877 14.4002C29.8423 14.3496 30.1062 14.3756 30.3461 14.4749C30.5859 14.5743 30.7909 14.7425 30.9351 14.9583C31.0793 15.1742 31.1563 15.4279 31.1563 15.6875C31.1552 16.0353 31.0166 16.3685 30.7707 16.6144C30.5248 16.8604 30.1916 16.999 29.8438 17ZM32.4688 8.46876H29.1875V7.15626H32.4688V8.46876Z" fill="#082431"/>
<path d="M20.6562 3.21875H19.3438V4.53125H20.6562V3.21875Z" fill="#082431"/>
</svg>
