<svg width="24" height="24" viewBox="0 0 24 24" fill="none" xmlns="http://www.w3.org/2000/svg">
<g clip-path="url(#clip0_36_2531)">
<path d="M19.0462 4.3575L19.5487 3.85875C19.5862 3.82024 19.6152 3.77434 19.634 3.72397C19.6527 3.6736 19.6607 3.61989 19.6575 3.56625C19.6538 3.5134 19.6389 3.46195 19.6137 3.41537C19.5884 3.36879 19.5535 3.32817 19.5112 3.29625C17.3554 1.64493 14.7155 0.750046 12 0.750046C9.28441 0.750046 6.64453 1.64493 4.48873 3.29625C4.44645 3.32817 4.41152 3.36879 4.38629 3.41537C4.36106 3.46195 4.34612 3.5134 4.34248 3.56625C4.33927 3.61989 4.34728 3.6736 4.366 3.72397C4.38473 3.77434 4.41376 3.82024 4.45123 3.85875L4.95373 4.36125C4.63626 4.61408 4.3321 4.88319 4.04248 5.1675C2.99521 6.21062 2.16503 7.45093 1.5999 8.81676C1.03477 10.1826 0.745903 11.6469 0.749982 13.125V19.875C0.749982 20.3723 0.947526 20.8492 1.29916 21.2008C1.65079 21.5525 2.1277 21.75 2.62498 21.75H3.78748C3.87504 22.173 4.10546 22.5529 4.44006 22.8261C4.77466 23.0992 5.19305 23.2489 5.62498 23.25H7.12498C7.22444 23.25 7.31982 23.2105 7.39015 23.1402C7.46047 23.0698 7.49998 22.9745 7.49998 22.875V21.75H7.87498C8.07371 21.7494 8.26413 21.6702 8.40466 21.5297C8.54518 21.3891 8.62439 21.1987 8.62498 21V16.5C8.62439 16.3013 8.54518 16.1108 8.40466 15.9703C8.26413 15.8298 8.07371 15.7506 7.87498 15.75H7.49998V14.625C7.49998 14.5255 7.46047 14.4302 7.39015 14.3598C7.31982 14.2895 7.22444 14.25 7.12498 14.25H5.62498C5.19305 14.2511 4.77466 14.4008 4.44006 14.6739C4.10546 14.9471 3.87504 15.327 3.78748 15.75H2.99998V13.125C3.00191 11.7378 3.32405 10.3697 3.94132 9.12736C4.55858 7.88502 5.45431 6.80195 6.55873 5.9625L7.13623 6.54375C7.19796 6.60553 7.27931 6.64383 7.36625 6.65205C7.45319 6.66026 7.54028 6.63788 7.61248 6.58875C8.9093 5.71609 10.4369 5.24998 12 5.24998C13.5631 5.24998 15.0907 5.71609 16.3875 6.58875C16.45 6.62951 16.5228 6.65162 16.5975 6.6525C16.697 6.65211 16.7924 6.61312 16.8637 6.54375L17.4412 5.96625C17.7672 6.20903 18.0755 6.4747 18.3637 6.76125C19.202 7.59509 19.8665 8.58685 20.319 9.67916C20.7715 10.7715 21.003 11.9427 21 13.125V15.75H20.2125C20.1249 15.327 19.8945 14.9471 19.5599 14.6739C19.2253 14.4008 18.8069 14.2511 18.375 14.25H16.875C16.7755 14.25 16.6801 14.2895 16.6098 14.3598C16.5395 14.4302 16.5 14.5255 16.5 14.625V15.75H16.125C15.9263 15.7506 15.7358 15.8298 15.5953 15.9703C15.4548 16.1108 15.3756 16.3013 15.375 16.5V21C15.3756 21.1987 15.4548 21.3891 15.5953 21.5297C15.7358 21.6702 15.9263 21.7494 16.125 21.75H16.5V22.875C16.5 22.9745 16.5395 23.0698 16.6098 23.1402C16.6801 23.2105 16.7755 23.25 16.875 23.25H18.375C18.8069 23.2489 19.2253 23.0992 19.5599 22.8261C19.8945 22.5529 20.1249 22.173 20.2125 21.75H21.375C21.8723 21.75 22.3492 21.5525 22.7008 21.2008C23.0524 20.8492 23.25 20.3723 23.25 19.875V13.125C23.2565 11.4411 22.8816 9.77756 22.1536 8.25915C21.4256 6.74074 20.3632 5.40685 19.0462 4.3575ZM4.49998 16.125C4.50087 15.8269 4.61968 15.5413 4.83047 15.3305C5.04126 15.1197 5.32689 15.0009 5.62498 15H6.74998V22.5H5.62498C5.32689 22.4991 5.04126 22.3803 4.83047 22.1695C4.61968 21.9587 4.50087 21.6731 4.49998 21.375V16.125ZM2.99998 19.875H2.24998V19.125H2.99998V19.875ZM2.99998 18.375H2.24998V17.625H2.99998V18.375ZM2.24998 13.125V15.75H1.49998V13.125C1.50153 11.5412 1.86044 9.97814 2.54998 8.5523C3.23952 7.12647 4.24192 5.87461 5.48248 4.89L6.01873 5.42625C4.84621 6.3382 3.89726 7.50571 3.24416 8.83985C2.59106 10.174 2.25104 11.6396 2.24998 13.125ZM19.5 21.375C19.4991 21.6731 19.3803 21.9587 19.1695 22.1695C18.9587 22.3803 18.6731 22.4991 18.375 22.5H17.25V15H18.375C18.6731 15.0009 18.9587 15.1197 19.1695 15.3305C19.3803 15.5413 19.4991 15.8269 19.5 16.125V21.375ZM21.75 19.875H21V19.125H21.75V19.875ZM21.75 18.375H21V17.625H21.75V18.375ZM22.5 15.75H21.75V13.125C21.754 11.8439 21.5038 10.5747 21.014 9.39098C20.5241 8.20723 19.8043 7.13241 18.8962 6.22875C18.6071 5.9437 18.3016 5.67575 17.9812 5.42625L18.5175 4.89C19.7645 5.86885 20.7714 7.11954 21.4616 8.54669C22.1518 9.97383 22.5069 11.5397 22.5 13.125V15.75Z" fill="#082431"/>
</g>
<defs>
<clipPath id="clip0_36_2531">
<rect width="24" height="24" fill="white"/>
</clipPath>
</defs>
</svg>
