<svg width="20" height="18" viewBox="0 0 20 18" fill="none" xmlns="http://www.w3.org/2000/svg">
<path d="M10 17.394C9.63429 17.3951 9.27207 17.3228 8.93486 17.1812C8.59766 17.0397 8.29233 16.8318 8.037 16.57L1.85 10.267C0.825052 9.21193 0.251709 7.79892 0.251709 6.32799C0.251709 4.85705 0.825052 3.44404 1.85 2.38899C2.35536 1.87028 2.95947 1.45803 3.62672 1.17654C4.29396 0.895051 5.01081 0.750031 5.735 0.750031C6.45918 0.750031 7.17604 0.895051 7.84328 1.17654C8.51052 1.45803 9.11464 1.87028 9.62 2.38899L9.998 2.77399L10.377 2.38899C10.8824 1.87028 11.4865 1.45803 12.1537 1.17654C12.821 0.895051 13.5378 0.750031 14.262 0.750031C14.9862 0.750031 15.703 0.895051 16.3703 1.17654C17.0375 1.45803 17.6416 1.87028 18.147 2.38899C19.1719 3.44404 19.7453 4.85705 19.7453 6.32799C19.7453 7.79892 19.1719 9.21193 18.147 10.267L11.961 16.567C11.7062 16.8292 11.4013 17.0375 11.0645 17.1796C10.7276 17.3217 10.3656 17.3946 10 17.394ZM5.737 2.24999C5.21223 2.24962 4.69273 2.35468 4.20934 2.55893C3.72595 2.76318 3.28851 3.06245 2.923 3.43899C2.17131 4.21262 1.75081 5.24881 1.75081 6.32749C1.75081 7.40617 2.17131 8.44236 2.923 9.21599L9.108 15.516C9.22437 15.6347 9.36324 15.7289 9.51649 15.7933C9.66974 15.8577 9.83428 15.8908 10.0005 15.8908C10.1667 15.8908 10.3313 15.8577 10.4845 15.7933C10.6378 15.7289 10.7766 15.6347 10.893 15.516L17.078 9.21599C17.8292 8.44211 18.2494 7.40601 18.2494 6.32749C18.2494 5.24896 17.8292 4.21286 17.078 3.43899C16.7123 3.06253 16.2747 2.76328 15.7913 2.55893C15.3079 2.35457 14.7884 2.24928 14.2635 2.24928C13.7386 2.24928 13.2191 2.35457 12.7357 2.55893C12.2523 2.76328 11.8147 3.06253 11.449 3.43899L10.536 4.36999C10.4661 4.44092 10.3828 4.49725 10.291 4.5357C10.1991 4.57414 10.1006 4.59394 10.001 4.59394C9.90143 4.59394 9.80285 4.57414 9.71101 4.5357C9.61916 4.49725 9.53587 4.44092 9.466 4.36999L8.55 3.43899C8.1846 3.06257 7.74732 2.76337 7.26411 2.55912C6.78091 2.35488 6.2616 2.24976 5.737 2.24999Z" fill="black"/>
</svg>
