<svg width="21" height="21" viewBox="0 0 21 21" fill="none" xmlns="http://www.w3.org/2000/svg">
<path d="M17.1592 20.4447H3.15918C2.36353 20.4447 1.60047 20.1286 1.03786 19.566C0.47525 19.0034 0.15918 18.2403 0.15918 17.4447L0.15918 9.78068C0.15915 9.36014 0.247537 8.94429 0.418607 8.56011C0.589677 8.17594 0.839607 7.83202 1.15218 7.55068L8.15218 1.25068C8.70307 0.754836 9.418 0.480469 10.1592 0.480469C10.9004 0.480469 11.6153 0.754836 12.1662 1.25068L19.1662 7.55068C19.4788 7.83202 19.7287 8.17594 19.8998 8.56011C20.0708 8.94429 20.1592 9.36014 20.1592 9.78068V17.4447C20.1592 18.2403 19.8431 19.0034 19.2805 19.566C18.7179 20.1286 17.9548 20.4447 17.1592 20.4447ZM9.15918 10.4447H11.1592C11.9548 10.4447 12.7179 10.7608 13.2805 11.3234C13.8431 11.886 14.1592 12.649 14.1592 13.4447V18.4447H17.1592C17.4244 18.4447 17.6788 18.3393 17.8663 18.1518C18.0538 17.9643 18.1592 17.7099 18.1592 17.4447V9.78068C18.1591 9.64056 18.1297 9.502 18.0726 9.37401C18.0156 9.24601 17.9323 9.13142 17.8282 9.03768L10.8282 2.73768C10.6446 2.57268 10.4065 2.48139 10.1597 2.48139C9.91285 2.48139 9.67475 2.57268 9.49118 2.73768L2.49118 9.03768C2.38685 9.13133 2.30338 9.24588 2.24618 9.37388C2.18898 9.50188 2.15934 9.64048 2.15918 9.78068V17.4447C2.15918 17.7099 2.26454 17.9643 2.45207 18.1518C2.63961 18.3393 2.89396 18.4447 3.15918 18.4447H6.15918V13.4447C6.15918 12.649 6.47525 11.886 7.03786 11.3234C7.60047 10.7608 8.36353 10.4447 9.15918 10.4447ZM9.15918 12.4447C8.89396 12.4447 8.63961 12.55 8.45207 12.7376C8.26454 12.9251 8.15918 13.1795 8.15918 13.4447V18.4447H12.1592V13.4447C12.1592 13.1795 12.0538 12.9251 11.8663 12.7376C11.6788 12.55 11.4244 12.4447 11.1592 12.4447H9.15918Z" fill="black"/>
</svg>
