<svg width="21" height="21" viewBox="0 0 21 21" fill="none" xmlns="http://www.w3.org/2000/svg">
<path d="M17.1592 20.7962H3.15918C2.36353 20.7962 1.60047 20.4802 1.03786 19.9176C0.47525 19.355 0.15918 18.5919 0.15918 17.7962L0.15918 10.1322C0.15915 9.7117 0.247537 9.29585 0.418607 8.91168C0.589677 8.5275 0.839607 8.18359 1.15218 7.90224L8.15218 1.60224C8.70307 1.1064 9.418 0.832031 10.1592 0.832031C10.9004 0.832031 11.6153 1.1064 12.1662 1.60224L19.1662 7.90224C19.4788 8.18359 19.7287 8.5275 19.8998 8.91168C20.0708 9.29585 20.1592 9.7117 20.1592 10.1322V17.7962C20.1592 18.5919 19.8431 19.355 19.2805 19.9176C18.7179 20.4802 17.9548 20.7962 17.1592 20.7962ZM9.15918 10.7962H11.1592C11.9548 10.7962 12.7179 11.1123 13.2805 11.6749C13.8431 12.2375 14.1592 13.0006 14.1592 13.7962V18.7962H17.1592C17.4244 18.7962 17.6788 18.6909 17.8663 18.5034C18.0538 18.3158 18.1592 18.0615 18.1592 17.7962V10.1322C18.1591 9.99212 18.1297 9.85357 18.0726 9.72557C18.0156 9.59757 17.9323 9.48299 17.8282 9.38924L10.8282 3.08924C10.6446 2.92424 10.4065 2.83296 10.1597 2.83296C9.91285 2.83296 9.67475 2.92424 9.49118 3.08924L2.49118 9.38924C2.38685 9.4829 2.30338 9.59744 2.24618 9.72544C2.18898 9.85345 2.15934 9.99204 2.15918 10.1322V17.7962C2.15918 18.0615 2.26454 18.3158 2.45207 18.5034C2.63961 18.6909 2.89396 18.7962 3.15918 18.7962H6.15918V13.7962C6.15918 13.0006 6.47525 12.2375 7.03786 11.6749C7.60047 11.1123 8.36353 10.7962 9.15918 10.7962ZM9.15918 12.7962C8.89396 12.7962 8.63961 12.9016 8.45207 13.0891C8.26454 13.2767 8.15918 13.531 8.15918 13.7962V18.7962H12.1592V13.7962C12.1592 13.531 12.0538 13.2767 11.8663 13.0891C11.6788 12.9016 11.4244 12.7962 11.1592 12.7962H9.15918Z" fill="#ECC402"/>
</svg>
