<svg width="91" height="28" viewBox="0 0 91 28" fill="none" xmlns="http://www.w3.org/2000/svg">
<g clip-path="url(#clip0_1_2368)">
<path d="M12.9274 26.9564C20.067 26.9564 25.8548 20.922 25.8548 13.4782C25.8548 6.0344 20.067 0 12.9274 0C5.78779 0 0 6.0344 0 13.4782C0 20.922 5.78779 26.9564 12.9274 26.9564Z" fill="#ECC402"/>
<path d="M16.7836 12.6276C16.9311 12.5197 17.0723 12.3986 17.2009 12.2645C17.8159 11.6364 18.1987 10.7597 18.1987 9.79787C18.1987 7.89391 16.7052 6.33999 14.8822 6.33999H10.1411C8.97072 6.32363 7.80035 6.32363 6.62998 6.31055C6.57351 6.31055 6.52016 6.39887 6.37897 6.51665C6.83394 6.55263 7.17281 6.57226 7.51168 6.60497C8.16119 6.6704 8.29611 6.76854 8.31494 7.35085V14.4662C8.82011 13.4226 9.69239 12.6047 10.7498 12.1991V7.18401H13.2568C14.6343 7.18401 15.7607 8.35845 15.7607 9.79787C15.7607 10.6681 15.3466 11.4434 14.7127 11.9177C14.3017 12.2253 13.7965 12.4085 13.2537 12.4085H12.2685C10.7373 12.4085 9.40372 13.3277 8.7448 14.6625C8.46869 15.2251 8.3118 15.8631 8.3118 16.537V20.6426H10.7467V16.537C10.7467 15.6243 11.1075 14.7966 11.6911 14.2012C11.9264 13.9591 12.1994 13.7563 12.4975 13.5992C12.918 13.3801 13.3918 13.2558 13.8938 13.2558C15.6227 13.2558 17.0409 14.7312 17.0409 16.537C17.0409 18.3428 15.7513 19.6808 14.1291 19.8084H11.6943V20.6459H15.8988C17.9007 20.4463 19.4789 18.6765 19.4789 16.5402C19.4789 14.7312 18.3462 13.1838 16.7836 12.6309V12.6276Z" fill="white"/>
<path d="M50.056 27.9182C49.8928 27.9215 49.7265 27.9607 49.4849 27.9967L56.7236 28C56.7675 27.9836 56.7958 27.9706 56.8115 27.9542C56.6514 27.9411 56.4883 27.928 56.3282 27.9182C55.8325 27.8855 55.3336 27.8822 54.8441 27.8168C54.2166 27.7317 54.0534 27.0546 54.0534 26.4003C54.0534 25.0132 54.0534 23.6294 54.0534 22.2423C54.0534 21.6731 54.1099 21.6207 54.6715 21.6109C54.9508 21.6077 55.23 21.6109 55.5093 21.6109C57.6963 21.6109 57.7904 21.7156 57.803 23.9663C57.8061 24.7711 57.8124 25.5792 57.9002 26.3741C57.9787 27.0742 58.3583 27.6271 59.0612 27.7874C60.5391 28.121 61.3078 27.5485 61.2576 26.1451C61.2419 25.71 61.2576 25.2749 61.2513 24.8398C61.2513 24.7482 61.2011 24.6599 61.176 24.5716L61.0411 24.5846C61.0411 24.8136 61.0505 25.0426 61.0411 25.2716C61.016 25.7853 61.0254 26.3054 60.9344 26.8059C60.925 26.8615 60.8905 26.9139 60.8466 26.9662C60.6269 27.2149 60.2347 27.1821 60.0841 26.8812C60.0684 26.8517 60.059 26.819 60.0527 26.7896C59.9649 26.3185 59.968 25.8311 59.9272 25.3502C59.7797 23.6883 59.2244 22.2881 57.6649 21.5259C57.6555 21.5193 57.6649 21.4735 57.6649 21.4277C57.7371 21.4114 57.8155 21.4081 57.8846 21.3819C58.3552 21.1889 58.8698 21.0613 59.2871 20.78C60.8936 19.7037 60.7713 17.6394 59.0675 16.6286C58.2862 16.164 57.4327 15.9023 56.5416 15.8892C54.3232 15.8533 52.108 15.8729 49.8897 15.8762C49.7798 15.8762 49.67 15.9448 49.5602 15.9808C49.5665 16.0332 49.5696 16.0822 49.5759 16.1346C49.9963 16.1706 50.4137 16.1967 50.8341 16.2393C51.6876 16.3276 51.8005 16.4585 51.8005 17.3548C51.8005 20.1094 51.8005 22.8639 51.8005 25.6217C51.8005 27.3555 51.744 27.8757 50.0654 27.9215L50.056 27.9182ZM54.0503 18.8041H54.0565C54.0565 18.1105 54.0628 17.4203 54.0565 16.7267C54.0534 16.3505 54.1915 16.1575 54.5805 16.1738C55.1673 16.1967 55.7603 16.1608 56.3439 16.2164C57.5331 16.3341 58.1795 16.9655 58.3207 18.1956C58.3803 18.7125 58.3395 19.2621 58.2391 19.7724C58.0509 20.7178 57.3951 21.2609 56.4569 21.3001C55.7917 21.3296 55.1234 21.3067 54.4582 21.3165C54.1632 21.3198 54.0409 21.1922 54.0471 20.8814C54.0597 20.1879 54.0503 19.4976 54.0503 18.8041Z" fill="black"/>
<path d="M90.9404 22.6087C90.9561 22.7592 90.9875 22.9097 90.9906 23.0602C90.9937 24.4472 90.9812 25.831 91 27.2181C91.0063 27.6401 90.8776 27.771 90.4697 27.771C87.012 27.7546 83.5542 27.7645 80.0933 27.7579C79.9364 27.7579 79.7764 27.7056 79.6195 27.6761C79.6195 27.6172 79.6258 27.5584 79.6258 27.4995C79.858 27.4798 80.0902 27.4602 80.3192 27.4439C81.7594 27.3555 81.8473 27.2574 81.8473 25.7656C81.8473 22.962 81.8473 20.1584 81.8473 17.3548C81.8473 16.4552 81.7343 16.3243 80.8809 16.236C80.4636 16.1935 80.0431 16.164 79.6226 16.1313C79.6164 16.079 79.6132 16.0299 79.607 15.9776C79.7168 15.9416 79.8266 15.8729 79.9364 15.8729C83.3189 15.8663 86.6982 15.8696 90.0807 15.8663C90.316 15.8663 90.4666 15.9219 90.4635 16.2131C90.4572 17.5675 90.4603 18.9218 90.454 20.2729C90.454 20.3318 90.4195 20.3874 90.3097 20.4725C90.2626 20.3285 90.2124 20.1846 90.1654 20.0374C89.8955 19.2064 89.6979 18.3362 89.3339 17.5511C88.9134 16.6449 88.1164 16.2 87.1375 16.1771C86.3781 16.1575 85.6188 16.164 84.8564 16.1771C84.3104 16.1869 84.119 16.3701 84.1127 16.9328C84.1002 18.2381 84.1127 19.5434 84.1033 20.8487C84.1033 21.2249 84.2884 21.3558 84.6179 21.3787C85.9953 21.4768 86.7076 20.9566 87.0496 19.5565C87.1626 19.0952 87.2379 18.6274 87.3383 18.1203C87.6113 18.4606 87.6301 24.5814 87.3728 25.0067C87.332 24.8758 87.2881 24.7842 87.2724 24.6861C87.2128 24.2869 87.1783 23.8846 87.103 23.492C86.8331 22.0951 85.9953 21.5913 84.4736 21.6927C84.3449 21.7025 84.1284 21.9544 84.1253 22.0951C84.1033 23.6588 84.1064 25.2226 84.119 26.783C84.1221 27.2018 84.3732 27.4471 84.7716 27.4471C85.622 27.4471 86.4786 27.4569 87.3257 27.3882C88.4836 27.2966 89.3621 26.662 89.8516 25.5922C90.1999 24.8333 90.385 23.9892 90.6329 23.1812C90.6925 22.9915 90.7176 22.7952 90.7615 22.5989C90.818 22.5989 90.8776 22.6054 90.9341 22.6054L90.9404 22.6087Z" fill="black"/>
<path d="M38.6096 27.7317C38.4433 27.735 38.2801 27.7743 38.0354 27.8103C38.0479 27.8201 38.0699 27.8299 38.0981 27.8397H45.1925C45.2835 27.8168 45.3431 27.7939 45.3651 27.7677C45.1894 27.7546 45.0136 27.7448 44.8411 27.7285C44.2857 27.6794 43.7303 27.6467 43.1812 27.5682C42.7953 27.5126 42.6007 27.2541 42.6039 26.8256C42.6133 25.6348 42.6133 24.1692 42.6039 22.9784C42.6039 22.648 42.7231 22.5073 43.04 22.5138C43.6456 22.5204 44.2543 22.5727 44.8505 22.4975C45.5816 22.4059 46.3378 22.311 47.0124 22.0297C48.1325 21.5619 48.9829 20.744 49.008 19.3798C49.0331 18.0091 48.2988 17.0539 47.1567 16.501C46.5103 16.1869 45.7793 15.9318 45.0764 15.9056C42.8612 15.8271 40.6459 15.8696 38.4276 15.8729C38.3209 15.8729 38.2142 15.9448 38.1075 15.9841C38.1138 16.0332 38.1201 16.0855 38.1264 16.1346C38.4684 16.1575 38.8135 16.1771 39.1555 16.2098C40.2977 16.3211 40.3479 16.3799 40.3479 17.5511C40.3479 20.2402 40.3479 22.9293 40.3479 25.6184C40.3479 27.3523 40.2914 27.6827 38.6127 27.7285L38.6096 27.7317ZM43.1185 16.1837C43.6582 16.1902 44.2041 16.164 44.7407 16.2262C45.8734 16.3603 46.4193 16.887 46.6547 18.0516C46.8523 19.0232 46.8618 20.0014 46.5605 20.9566C46.3252 21.6993 45.8483 22.154 45.0733 22.1867C44.3767 22.2129 43.6833 22.2063 42.9867 22.2161C42.6792 22.2194 42.5976 22.0526 42.6007 21.7581C42.6133 20.9076 42.6039 20.0537 42.6039 19.2032C42.6039 18.3821 42.6164 17.5642 42.5976 16.7431C42.5882 16.3407 42.767 16.1837 43.1185 16.1869V16.1837Z" fill="black"/>
<path d="M63.3379 27.663C62.8829 27.7514 62.4185 27.7874 61.9604 27.8495C61.813 27.8691 61.6655 27.8986 61.4239 27.9378C61.4521 27.9575 61.4992 27.9738 61.5651 27.9902H68.2327C68.3959 27.9607 68.5026 27.9313 68.534 27.8953C67.9566 27.8495 67.4483 27.8233 66.9431 27.7612C66.3093 27.6827 66.143 27.0905 66.143 26.433C66.143 23.3415 66.143 20.2468 66.143 17.1553C66.143 16.5108 66.2999 16.3309 66.9212 16.2589C67.3071 16.2164 67.693 16.2066 68.079 16.1739C68.217 16.164 68.352 16.1281 68.49 16.1019C68.49 16.0594 68.49 16.0168 68.4932 15.9776C68.4022 15.9416 68.3143 15.8762 68.2233 15.8762C66.0834 15.8696 63.9435 15.8696 61.8036 15.8762C61.7031 15.8762 61.6059 15.9645 61.5055 16.0136C61.518 16.0594 61.5274 16.1019 61.54 16.1477C61.6875 16.1575 61.8349 16.1706 61.9855 16.1804C62.3872 16.2098 62.7919 16.2229 63.1904 16.2753C63.5983 16.3309 63.8776 16.5272 63.8776 17.0211C63.8713 20.1944 63.8776 23.3677 63.8776 26.5409C63.8776 26.9368 63.7019 27.5911 63.3348 27.663H63.3379Z" fill="black"/>
<path d="M78.515 15.6864V20.7865C78.4742 20.7963 78.4335 20.8062 78.3927 20.8127C78.3519 20.6589 78.3017 20.5085 78.2703 20.3547C78.0444 19.2784 77.7024 18.2479 77.0717 17.345C76.51 16.5435 75.7946 15.9972 74.8 15.935C73.7708 15.8729 72.9958 16.2916 72.4906 17.2272C72.0231 18.0909 71.8819 19.0461 71.8066 20.0112C71.6905 21.5717 71.6466 23.1321 72.02 24.6697C72.0764 24.902 72.1423 25.1375 72.2271 25.36C72.6381 26.4363 73.275 27.2868 74.4517 27.4569C75.7538 27.6434 76.8803 27.2541 77.6992 26.1287C78.264 25.3502 78.5339 24.4505 78.6343 23.4887C78.6562 23.2728 78.7064 23.0602 78.7409 22.8443C78.7817 22.8377 78.8257 22.8312 78.8665 22.8246C78.9041 22.9391 78.9794 23.0569 78.9669 23.1648C78.8633 24.1136 78.6625 25.0361 78.1918 25.8736C77.3541 27.3653 75.8323 28.0818 74.0563 27.8168C71.0535 27.3719 69.3372 25.252 69.3027 21.9315C69.2713 19.1018 70.9877 16.5697 73.4068 15.8598C74.6933 15.4803 75.8511 15.6733 76.874 16.6122C77.4231 17.116 77.5329 17.08 77.9189 16.4159C78.0726 16.1509 78.2264 15.8827 78.377 15.6177C78.4209 15.6373 78.468 15.657 78.5119 15.6766L78.515 15.6864Z" fill="black"/>
<path d="M37.9004 12.2776C38.2895 12.2416 38.6786 12.2122 39.0677 12.1696C39.987 12.0682 40.1219 11.9112 40.1219 10.9625C40.1219 8.01495 40.1219 5.06741 40.1219 2.11987C40.1219 1.23005 40.0058 1.09919 39.1461 1.01086C38.7351 0.968333 38.324 0.945433 37.7749 0.902905C37.9444 0.758963 38.0134 0.651006 38.0793 0.654278C40.6648 0.680449 43.2534 0.664092 45.8357 0.785134C46.4664 0.814577 47.1441 1.21369 47.6838 1.6128C49.2558 2.77742 49.0456 4.82205 47.2948 5.67262C46.868 5.88199 46.3911 5.98013 45.9612 6.1208C46.3691 6.24839 46.8367 6.34326 47.2571 6.54936C47.6838 6.75873 48.1043 7.03026 48.4526 7.36067C49.5853 8.43369 49.51 10.2591 48.3145 11.3223C47.3638 12.1664 46.2091 12.4968 44.998 12.5197C42.7513 12.5655 40.5016 12.5393 38.255 12.536C38.1326 12.536 38.0103 12.4902 37.8879 12.4673C37.891 12.4052 37.8973 12.343 37.9004 12.2809V12.2776ZM42.378 9.12723C42.378 9.86657 42.3748 10.6092 42.378 11.3485C42.3811 12.0061 42.4815 12.1729 43.1185 12.1893C43.8558 12.2089 44.6026 12.1664 45.3337 12.0551C46.2499 11.9145 46.8053 11.2962 46.9057 10.3442C46.9779 9.66374 46.9967 8.95712 46.9182 8.27993C46.7959 7.21673 46.2342 6.61806 45.2145 6.47085C44.4394 6.35962 43.6425 6.37597 42.8549 6.35962C42.5254 6.35307 42.3591 6.533 42.3717 6.90921C42.3905 7.64855 42.378 8.39116 42.378 9.1305V9.12723ZM42.378 3.5691C42.378 4.19721 42.3999 4.82533 42.3717 5.45344C42.3529 5.85582 42.538 6.04883 42.8769 6.0292C43.6613 5.98995 44.4551 5.97359 45.2207 5.81656C45.9424 5.66935 46.4287 5.1263 46.5292 4.35424C46.6013 3.78829 46.6076 3.19289 46.5166 2.63348C46.3691 1.7273 45.773 1.18097 44.9132 1.05666C44.2763 0.965062 43.6205 1.01086 42.971 1.01086C42.5537 1.01086 42.3623 1.23986 42.3748 1.68477C42.3905 2.31288 42.378 2.94099 42.378 3.5691Z" fill="black"/>
<path d="M49.9054 12.2776C50.2944 12.2416 50.6835 12.2122 51.0726 12.1696C51.9888 12.0682 52.1237 11.9112 52.1237 10.9625C52.1237 8.0444 52.1237 5.12957 52.1237 2.21147C52.1237 1.19406 52.0453 1.10246 51.0475 1.00105C50.671 0.961794 50.2913 0.945437 49.9116 0.915994L49.8834 0.742609C50.0277 0.709895 50.1752 0.647738 50.3195 0.647738C51.7786 0.641196 53.2345 0.644467 54.6935 0.644467C56.5385 0.644467 58.3835 0.65101 60.2316 0.637924C60.605 0.637924 60.7524 0.736066 60.7462 1.15154C60.7242 2.37504 60.7399 3.60182 60.7368 4.82533C60.7368 4.95946 60.7116 5.09359 60.696 5.22771C60.6552 5.23426 60.6175 5.2408 60.5767 5.25061C60.5328 5.10013 60.4889 4.94964 60.4418 4.79916C60.1877 3.99439 60.0057 3.15364 59.6542 2.39467C59.2118 1.43615 58.3897 0.965065 57.3543 0.95198C56.6263 0.942165 55.8953 0.942165 55.1673 0.95198C54.5774 0.958522 54.3954 1.14499 54.3892 1.7731C54.3797 3.04568 54.3892 4.31826 54.3797 5.59084C54.3766 5.98668 54.5555 6.13062 54.91 6.15352C56.2969 6.23531 56.9903 5.7217 57.3323 4.31499C57.4421 3.85699 57.5206 3.38918 57.6241 2.86575C57.9034 3.2845 57.894 9.40858 57.6084 9.80442C57.5645 9.4969 57.53 9.25155 57.4924 9.00946C57.4484 8.70849 57.4202 8.40098 57.3512 8.10328C57.0311 6.75219 56.1086 6.36289 54.7374 6.46758C54.6119 6.47739 54.4048 6.73583 54.4017 6.88305C54.3797 8.43042 54.386 9.9778 54.3954 11.5252C54.3954 11.9668 54.6464 12.2253 55.0669 12.222C55.9172 12.222 56.7738 12.2285 57.621 12.1598C58.7788 12.065 59.6511 11.4238 60.1406 10.3507C60.4857 9.5885 60.6677 8.74775 60.9187 7.93971C60.9752 7.75324 61.016 7.56023 61.0631 7.36722C61.1101 7.36722 61.1541 7.37376 61.2011 7.37703C61.2231 7.53406 61.2639 7.69436 61.2639 7.85138C61.2702 9.23846 61.2576 10.6223 61.2733 12.0093C61.2764 12.3986 61.1729 12.5459 60.7744 12.5426C57.2853 12.5295 53.7961 12.536 50.307 12.5328C50.1689 12.5328 50.034 12.487 49.8959 12.4641L49.9085 12.2743L49.9054 12.2776Z" fill="black"/>
<path d="M71.4332 5.87873C71.4897 5.87545 71.543 5.87218 71.5995 5.86891C71.6277 5.59411 71.6591 5.31932 71.6811 5.04452C71.7595 4.07291 71.9572 3.13401 72.4341 2.28345C72.9487 1.36745 73.708 0.92254 74.7403 0.94544C75.1796 0.955254 75.3334 1.11555 75.3334 1.57682C75.3177 4.76645 75.3271 8.70195 75.324 11.8916C75.324 12.5786 75.1702 12.7847 74.5113 12.8795C74.0689 12.945 73.617 12.9482 73.1684 12.9842C73.1495 12.9842 73.1338 12.9842 73.115 12.9875H79.7983C79.767 12.9875 79.7387 12.9842 79.7074 12.981C79.1834 12.9319 78.6594 12.8926 78.1385 12.8207C77.74 12.765 77.5674 12.5033 77.5674 12.078C77.5737 8.77719 77.5737 4.72719 77.5674 1.42634C77.5674 1.05994 77.718 0.971611 78.0412 0.948711C78.992 0.883283 79.6854 1.29875 80.1937 2.10352C80.8369 3.1242 81.1413 4.25938 81.2542 5.45999C81.2699 5.62029 81.3107 5.77731 81.3421 5.93761C81.3892 5.93761 81.4362 5.94088 81.4802 5.94415C81.5115 5.82311 81.568 5.70207 81.5712 5.57776C81.59 4.09581 81.5931 2.61386 81.6119 1.13191C81.6151 0.785141 81.4927 0.64447 81.1476 0.64447C78.0004 0.651013 74.8533 0.651013 71.7062 0.64447C71.3924 0.64447 71.2575 0.749155 71.2638 1.09265C71.292 2.55825 71.3046 4.02384 71.3297 5.48943C71.3297 5.62029 71.3955 5.75114 71.4301 5.87873H71.4332Z" fill="black"/>
<path d="M69.742 0.569228C69.9616 1.35764 69.7639 5.03797 69.4784 5.29969C69.4062 5.08705 69.356 4.89403 69.2807 4.71083C68.9199 3.82755 68.6532 2.88211 68.1637 2.08389C67.4138 0.85384 66.096 0.402386 64.844 0.745884C63.7521 1.04685 63.1151 1.98575 63.3285 2.9868C63.4477 3.54294 63.774 3.98785 64.2447 4.20376C65.0887 4.58979 65.9642 4.91039 66.8459 5.18519C67.8248 5.48943 68.854 5.64319 69.6541 6.37598C69.9051 6.60498 70.1373 6.88305 70.2974 7.18729C70.9845 8.48931 70.6707 10.5961 69.6573 11.6397C68.625 12.7062 66.8521 12.9646 65.5186 12.1958C65.0919 11.9505 64.7122 11.6004 64.3326 11.2733C63.8807 10.8807 63.8305 10.8709 63.476 11.3812C63.2187 11.7509 62.9771 12.1337 62.6539 12.6244V7.16112C62.7072 7.15131 62.7606 7.14149 62.8139 7.13168C62.8704 7.27889 62.9457 7.42283 62.9865 7.57332C63.272 8.68233 63.6297 9.76189 64.2761 10.7073C65.1107 11.9308 66.2183 12.5818 67.6993 12.3627C68.5842 12.2318 69.265 11.5939 69.447 10.7171C69.6384 9.80115 69.4031 9.03564 68.6563 8.4566C67.8405 7.82194 66.8741 7.59295 65.9202 7.30833C65.208 7.09896 64.48 6.89614 63.8211 6.55918C62.5441 5.9049 62.0263 4.74028 62.2428 3.27796C62.4625 1.80255 63.3724 0.814584 64.753 0.543056C66.0144 0.297701 67.1471 0.510342 68.1072 1.47541C68.603 1.97266 68.6657 1.94976 69.1176 1.37072C69.3121 1.11882 69.5066 0.866926 69.7388 0.569228H69.742Z" fill="black"/>
<path d="M31.8603 0.670639H31.7191V27.8201H31.8603V0.670639Z" fill="black"/>
</g>
<defs>
<clipPath id="clip0_1_2368">
<rect width="91" height="28" fill="white"/>
</clipPath>
</defs>
</svg>
