<svg width="24" height="25" viewBox="0 0 24 25" fill="none" xmlns="http://www.w3.org/2000/svg">
<path d="M18.1818 4.41211C17.3737 4.41211 16.7273 5.0656 16.7273 5.86665C16.7273 6.66771 17.3808 7.3212 18.1818 7.3212C18.9829 7.3212 19.6364 6.66771 19.6364 5.86665C19.6364 5.0656 18.9829 4.41211 18.1818 4.41211Z" fill="#151515"/>
<path d="M12.3637 6.23047C9.15731 6.23047 6.54547 8.8423 6.54547 12.0487C6.54547 15.255 9.15731 17.8668 12.3637 17.8668C15.57 17.8668 18.1818 15.255 18.1818 12.0487C18.1818 8.8423 15.57 6.23047 12.3637 6.23047ZM12.3637 15.776C10.3062 15.776 8.63628 14.1061 8.63628 12.0487C8.63628 9.99125 10.3062 8.32127 12.3637 8.32127C14.4211 8.32127 16.091 9.99125 16.091 12.0487C16.091 14.1061 14.4211 15.776 12.3637 15.776Z" fill="#151515"/>
<path d="M16.7912 24.4121H7.20882C3.23481 24.4121 0 21.1773 0 17.2033V7.62093C0 3.64692 3.23481 0.412109 7.20882 0.412109H16.7912C20.7652 0.412109 24 3.64692 24 7.62093V17.2033C24 21.1773 20.7652 24.4121 16.7912 24.4121ZM7.2156 2.67716C4.4894 2.67716 2.26505 4.89473 2.26505 7.62771V17.2101C2.26505 19.9363 4.48262 22.1606 7.2156 22.1606H16.798C19.5242 22.1606 21.7485 19.9431 21.7485 17.2101V7.62771C21.7485 4.90151 19.5309 2.67716 16.798 2.67716H7.2156Z" fill="#151515"/>
</svg>
