<svg width="38" height="38" viewBox="0 0 38 38" fill="none" xmlns="http://www.w3.org/2000/svg">
<g clip-path="url(#clip0_1_2278)">
<path d="M29.6875 38H8.3125C3.72163 38 0 34.2784 0 29.6875V8.3125C0 3.72163 3.72163 0 8.3125 0H29.6875C34.2784 0 38 3.72163 38 8.3125V29.6875C38 34.2784 34.2784 38 29.6875 38Z" fill="#41479B"/>
<path d="M38 29.6867V27.8619L32.1056 24H38V22H22V38H24V25.8623L36.6863 34.174C37.1357 33.4745 37.4825 32.703 37.7068 31.881" fill="#F5F5F5"/>
<path d="M0.558941 32.6891C0.76141 33.2116 1.01479 33.7088 1.3136 34.174L14 25.8623V38H15.9999V22H0V24H5.89438L0 27.8619V29.6875C0 30.0071 0.0187031 30.3223 0.0538086 30.6325" fill="#F5F5F5"/>
<path d="M0 8.59505V10.1381L5.89438 14H0V16H16V0H14V12.1377L1.3136 3.82598C0.820562 4.59362 0.45073 5.4478 0.231117 6.36055" fill="#F5F5F5"/>
<path d="M37.4301 5.28207C37.2295 4.77004 36.9797 4.28264 36.6863 3.8259L24 12.1377V0H22V16H38V14H32.1056L38 10.1381V8.3125C38 7.98148 37.98 7.65507 37.9424 7.33415" fill="#F5F5F5"/>
<path d="M22 0H16V16H0V22H16V38H22V22H38V16H22V0Z" fill="#FF4B55"/>
<path d="M10.2715 24.0001L0.053833 30.6326C0.135028 31.3497 0.307216 32.0392 0.55904 32.6892L13.9451 24L10.2715 24.0001Z" fill="#FF4B55"/>
<path d="M25.5658 24.0001L37.7069 31.8811C37.8976 31.1821 38 30.4469 38 29.6875V29.6867L29.2393 24L25.5658 24.0001Z" fill="#FF4B55"/>
<path d="M12 14.0001L0.231117 6.3606C0.0803789 6.98671 0 7.6402 0 8.31255V8.5951L8.32645 14.0001H12Z" fill="#FF4B55"/>
<path d="M27.6735 14.0001L37.9424 7.33423C37.8584 6.61846 37.684 5.93045 37.4301 5.28223L24 14.0001H27.6735Z" fill="#FF4B55"/>
</g>
<defs>
<clipPath id="clip0_1_2278">
<rect width="38" height="38" fill="white"/>
</clipPath>
</defs>
</svg>
