<svg width="38" height="38" viewBox="0 0 38 38" fill="none" xmlns="http://www.w3.org/2000/svg">
<g clip-path="url(#clip0_1_2291)">
<path fill-rule="evenodd" clip-rule="evenodd" d="M8.1061 25.6672H38V29.4344C38 34.0744 34.2037 37.8707 29.5637 37.8707H8.4363C3.79629 37.8707 0 34.0744 0 29.4344V25.6672H8.1061Z" fill="#D80027"/>
<path fill-rule="evenodd" clip-rule="evenodd" d="M8.1061 12.3327H0V8.56569C0 3.92568 3.79629 0.129395 8.4363 0.129395H29.5637C34.2037 0.129395 38 3.92568 38 8.56569V12.3327H8.1061Z" fill="#007A3D"/>
<path d="M8.10608 12.3325H38V25.6672H8.10608V12.3325Z" fill="#F5F5F5"/>
<path fill-rule="evenodd" clip-rule="evenodd" d="M8.1061 29.3772V8.62281L1.38715 3.94629C0.481613 5.31663 -0.000795381 6.92308 9.84396e-07 8.56559V29.4344C-0.000795381 31.0769 0.481613 32.6834 1.38715 34.0537L8.1061 29.3772Z" fill="#6B809B"/>
<path fill-rule="evenodd" clip-rule="evenodd" d="M13.4361 25.6673V12.3326L8.1061 8.62281L1.38715 3.94629C0.481613 5.31663 -0.000795381 6.92308 9.84396e-07 8.56559V29.4344C-0.000795381 31.0769 0.481613 32.6834 1.38715 34.0537L8.1061 29.3772L13.4361 25.6673Z" fill="black"/>
</g>
<defs>
<clipPath id="clip0_1_2291">
<rect width="38" height="38" fill="white"/>
</clipPath>
</defs>
</svg>
