<svg width="20" height="20" viewBox="0 0 20 20" fill="none" xmlns="http://www.w3.org/2000/svg">
<path d="M10 19.75C8.07164 19.75 6.18657 19.1782 4.58319 18.1068C2.97982 17.0355 1.73013 15.5127 0.992179 13.7312C0.254224 11.9496 0.061142 9.98919 0.437348 8.09787C0.813554 6.20656 1.74215 4.46927 3.10571 3.10571C4.46927 1.74215 6.20656 0.813554 8.09787 0.437348C9.98919 0.061142 11.9496 0.254224 13.7312 0.992179C15.5127 1.73013 17.0355 2.97982 18.1068 4.58319C19.1782 6.18657 19.75 8.07164 19.75 10C19.7471 12.585 18.7189 15.0632 16.8911 16.8911C15.0632 18.7189 12.585 19.7471 10 19.75ZM7.129 13.75C7.29181 14.5426 7.53576 15.3164 7.857 16.059C8.11384 16.6867 8.48706 17.2601 8.957 17.749C9.22602 18.0438 9.59874 18.223 9.997 18.249C10.3952 18.2229 10.7679 18.0437 11.037 17.749C11.5069 17.2601 11.8802 16.6867 12.137 16.059C12.4575 15.3162 12.7011 14.5425 12.864 13.75H7.129ZM14.402 13.75C14.2168 14.7532 13.9192 15.7324 13.515 16.669C13.359 17.0232 13.1796 17.3666 12.978 17.697C14.8713 16.9639 16.4278 15.5587 17.35 13.75H14.402ZM2.65 13.75C3.57324 15.5584 5.13043 16.9632 7.024 17.696C6.82238 17.3656 6.64298 17.0222 6.487 16.668C6.08262 15.7316 5.78443 14.7528 5.598 13.75H2.65ZM14.629 7.75C14.7104 8.49723 14.7508 9.24836 14.75 10C14.7505 10.7517 14.7098 11.5028 14.628 12.25H17.94C18.354 10.7786 18.354 9.22144 17.94 7.75H14.629ZM6.882 7.75C6.7068 9.24489 6.7068 10.7551 6.882 12.25H13.12C13.2074 11.5032 13.2508 10.7519 13.25 10C13.2508 9.24811 13.2074 8.49681 13.12 7.75H6.882ZM2.062 7.75C1.64798 9.22144 1.64798 10.7786 2.062 12.25H5.372C5.2112 10.7543 5.2112 9.2457 5.372 7.75H2.061H2.062ZM12.977 2.303C13.1785 2.63381 13.3578 2.97756 13.514 3.332C13.9187 4.26821 14.2166 5.24706 14.402 6.25H17.35C16.4277 4.44102 14.8707 3.03569 12.977 2.303ZM10 1.75C9.60166 1.77568 9.22883 1.95493 8.96 2.25C8.48982 2.73875 8.11656 3.31221 7.86 3.94C7.53767 4.68286 7.29271 5.45695 7.129 6.25H12.871C12.7081 5.45755 12.4645 4.68385 12.144 3.941C11.8864 3.31253 11.5117 2.7387 11.04 2.25C10.7712 1.95493 10.3983 1.77568 10 1.75ZM7.024 2.303C5.13021 3.03597 3.57297 4.44118 2.65 6.25H5.598C5.78381 5.24683 6.08168 4.2677 6.486 3.331C6.6422 2.9769 6.82159 2.63349 7.023 2.303H7.024Z" fill="black"/>
</svg>
