<svg width="24" height="24" viewBox="0 0 24 24" fill="none" xmlns="http://www.w3.org/2000/svg">
<path d="M21.75 13.095V1.875C21.7491 1.57691 21.6303 1.29127 21.4195 1.08049C21.2087 0.869703 20.9231 0.75089 20.625 0.75H3.375C3.07691 0.75089 2.79128 0.869703 2.58049 1.08049C2.36971 1.29127 2.25089 1.57691 2.25 1.875V13.095L0.753755 22.8187C0.745648 22.8722 0.749186 22.9267 0.764126 22.9787C0.779067 23.0306 0.805056 23.0787 0.840315 23.1197C0.875573 23.1606 0.919267 23.1935 0.968405 23.216C1.01754 23.2385 1.07096 23.2501 1.125 23.25H22.875C22.929 23.2501 22.9825 23.2385 23.0316 23.216C23.0807 23.1935 23.1244 23.1606 23.1597 23.1197C23.195 23.0787 23.2209 23.0306 23.2359 22.9787C23.2508 22.9267 23.2544 22.8722 23.2463 22.8187L21.75 13.095ZM4.125 2.625H19.875V11.625H4.125V2.625ZM1.56375 22.5L2.9475 13.5H21.0525L22.4363 22.5H1.56375Z" fill="#082431"/>
<path d="M20.4113 14.25H3.58875L2.4375 21.75H21.5625L20.4113 14.25ZM15.375 15.375H16.125V16.125H15.375V15.375ZM15.375 16.875H16.125V17.625H15.375V16.875ZM15.375 18.375H16.125V19.125H15.375V18.375ZM13.875 15.375H14.625V16.125H13.875V15.375ZM13.875 16.875H14.625V17.625H13.875V16.875ZM13.875 18.375H14.625V19.125H13.875V18.375ZM12.375 15.375H13.125V16.125H12.375V15.375ZM12.375 16.875H13.125V17.625H12.375V16.875ZM12.375 18.375H13.125V19.125H12.375V18.375ZM10.875 15.375H11.625V16.125H10.875V15.375ZM10.875 16.875H11.625V17.625H10.875V16.875ZM10.875 18.375H11.625V19.125H10.875V18.375ZM9.375 15.375H10.125V16.125H9.375V15.375ZM9.375 16.875H10.125V17.625H9.375V16.875ZM9.375 18.375H10.125V19.125H9.375V18.375ZM7.875 15.375H8.625V16.125H7.875V15.375ZM7.875 16.875H8.625V17.625H7.875V16.875ZM7.875 18.375H8.625V19.125H7.875V18.375ZM6.375 15.375H7.125V16.125H6.375V15.375ZM6.375 16.875H7.125V17.625H6.375V16.875ZM6.375 18.375H7.125V19.125H6.375V18.375ZM5.625 19.125H4.875V18.375H5.625V19.125ZM5.625 17.625H4.875V16.875H5.625V17.625ZM5.625 16.125H4.875V15.375H5.625V16.125ZM17.625 20.625H6.375V19.875H17.625V20.625ZM17.625 19.125H16.875V18.375H17.625V19.125ZM17.625 17.625H16.875V16.875H17.625V17.625ZM17.625 16.125H16.875V15.375H17.625V16.125ZM19.125 19.125H18.375V18.375H19.125V19.125ZM19.125 17.625H18.375V16.875H19.125V17.625ZM19.125 16.125H18.375V15.375H19.125V16.125Z" fill="#082431"/>
<path d="M4.875 3.75V5.25H5.625V4.125H6.75V3.375H5.25C5.15054 3.375 5.05516 3.41451 4.98484 3.48484C4.91451 3.55516 4.875 3.65054 4.875 3.75Z" fill="#082431"/>
</svg>
