<svg width="18" height="20" viewBox="0 0 18 20" fill="none" xmlns="http://www.w3.org/2000/svg">
<path d="M3 0.25H9C9.72935 0.25 10.4288 0.539731 10.9445 1.05546C11.4603 1.57118 11.75 2.27065 11.75 3V4C11.75 4.19891 11.671 4.38968 11.5303 4.53033C11.3897 4.67098 11.1989 4.75 11 4.75C10.8011 4.75 10.6103 4.67098 10.4697 4.53033C10.329 4.38968 10.25 4.19891 10.25 4V3C10.25 2.66848 10.1183 2.35054 9.88388 2.11612C9.64946 1.8817 9.33152 1.75 9 1.75H3C2.66848 1.75 2.35054 1.8817 2.11612 2.11612C1.8817 2.35054 1.75 2.66848 1.75 3V17C1.75 17.3315 1.8817 17.6495 2.11612 17.8839C2.35054 18.1183 2.66848 18.25 3 18.25H9C9.33152 18.25 9.64946 18.1183 9.88388 17.8839C10.1183 17.6495 10.25 17.3315 10.25 17V16C10.25 15.8011 10.329 15.6103 10.4697 15.4697C10.6103 15.329 10.8011 15.25 11 15.25C11.1989 15.25 11.3897 15.329 11.5303 15.4697C11.671 15.6103 11.75 15.8011 11.75 16V17C11.75 17.7293 11.4603 18.4288 10.9445 18.9445C10.4288 19.4603 9.72935 19.75 9 19.75H3C2.27065 19.75 1.57118 19.4603 1.05546 18.9445C0.539731 18.4288 0.25 17.7293 0.25 17L0.25 3C0.25 2.27065 0.539731 1.57118 1.05546 1.05546C1.57118 0.539731 2.27065 0.25 3 0.25Z" fill="black"/>
<path d="M13.47 5.96934C13.4003 6.03899 13.345 6.12169 13.3073 6.21272C13.2696 6.30374 13.2502 6.40131 13.2502 6.49984C13.2502 6.59837 13.2696 6.69594 13.3073 6.78696C13.345 6.87799 13.4003 6.96069 13.47 7.03034L15.69 9.25034H5.99999C5.80595 9.25743 5.62222 9.3395 5.48745 9.47928C5.35268 9.61906 5.27737 9.80567 5.27737 9.99984C5.27737 10.194 5.35268 10.3806 5.48745 10.5204C5.62222 10.6602 5.80595 10.7423 5.99999 10.7493H15.689L13.47 12.9693C13.3375 13.1115 13.2654 13.2996 13.2688 13.4939C13.2722 13.6882 13.351 13.8735 13.4884 14.011C13.6258 14.1484 13.8112 14.2271 14.0055 14.2305C14.1998 14.2339 14.3878 14.1618 14.53 14.0293L17.323 11.2363C17.4855 11.0738 17.6144 10.8809 17.7024 10.6686C17.7903 10.4562 17.8356 10.2287 17.8356 9.99884C17.8356 9.76901 17.7903 9.54143 17.7024 9.3291C17.6144 9.11677 17.4855 8.92385 17.323 8.76134L14.53 5.96934C14.3894 5.82889 14.1987 5.75 14 5.75C13.8012 5.75 13.6106 5.82889 13.47 5.96934Z" fill="black"/>
</svg>
