<svg width="31" height="25" viewBox="0 0 31 25" fill="none" xmlns="http://www.w3.org/2000/svg">
<path d="M26.2025 24.4121H5.40246C4.22035 24.4121 3.08666 23.938 2.25078 23.0941C1.4149 22.2502 0.945313 21.1056 0.945313 19.9121L0.945312 4.91211C0.945313 3.71864 1.4149 2.57404 2.25078 1.73013C3.08666 0.886215 4.22035 0.412109 5.40246 0.412109L26.2025 0.412109C27.3846 0.412109 28.5183 0.886215 29.3541 1.73013C30.19 2.57404 30.6596 3.71864 30.6596 4.91211V19.9121C30.6596 21.1056 30.19 22.2502 29.3541 23.0941C28.5183 23.938 27.3846 24.4121 26.2025 24.4121ZM3.17388 6.76311V19.9121C3.17388 20.5088 3.40868 21.0811 3.82662 21.5031C4.24456 21.9251 4.8114 22.1621 5.40246 22.1621H26.2025C26.7935 22.1621 27.3604 21.9251 27.7783 21.5031C28.1962 21.0811 28.431 20.5088 28.431 19.9121V6.76311L18.0682 13.7381C17.3969 14.1897 16.6083 14.4307 15.8017 14.4307C14.9951 14.4307 14.2065 14.1897 13.5353 13.7381L3.17388 6.76311ZM5.40246 2.66211C4.98014 2.66343 4.5668 2.78524 4.21008 3.01348C3.85337 3.24172 3.56781 3.5671 3.38634 3.95211L3.30611 4.14861L14.7729 11.8676C15.0463 12.0518 15.3633 12.1594 15.6914 12.1794C16.0195 12.1994 16.347 12.1312 16.6404 11.9816L16.8335 11.8676L28.3003 4.15011C28.1574 3.75005 27.9052 3.39906 27.5728 3.13783C27.2404 2.87659 26.8415 2.71581 26.4223 2.67411L26.2025 2.66211H5.40246Z" fill="black"/>
</svg>
