<svg width="81" height="81" viewBox="0 0 81 81" fill="none" xmlns="http://www.w3.org/2000/svg">
<path fill-rule="evenodd" clip-rule="evenodd" d="M56.8417 60.6641L74.1479 77.9703C75.1351 78.9574 76.7399 78.9574 77.7271 77.9703C78.7143 76.9831 78.7143 75.3783 77.7271 74.3911L60.4235 57.0849C65.3594 51.3314 68.3438 43.8515 68.3438 35.6807C68.3438 17.5189 53.5992 2.77441 35.4375 2.77441C17.2758 2.77441 2.53125 17.5189 2.53125 35.6807C2.53125 53.8424 17.2758 68.5869 35.4375 68.5869C43.6084 68.5869 51.0882 65.6026 56.8417 60.6641ZM35.4375 7.83691C50.8047 7.83691 63.2812 20.3134 63.2812 35.6807C63.2812 51.0479 50.8047 63.5244 35.4375 63.5244C20.0703 63.5244 7.59375 51.0479 7.59375 35.6807C7.59375 20.3134 20.0703 7.83691 35.4375 7.83691Z" fill="#C58E03"/>
<path fill-rule="evenodd" clip-rule="evenodd" d="M20.25 29.1345L18.4604 30.9241C17.4732 31.9113 17.4732 33.5161 18.4604 34.5033C19.4475 35.493 21.0524 35.493 22.0395 34.5033L23.8291 32.7137L25.6187 34.5033C26.6085 35.493 28.2107 35.493 29.2005 34.5033C30.1876 33.5161 30.1876 31.9113 29.2005 30.9241L27.4083 29.1345L29.2005 27.3449C30.1876 26.3577 30.1876 24.7529 29.2005 23.7657C28.2107 22.776 26.6085 22.776 25.6187 23.7657L23.8291 25.5553L22.0395 23.7657C21.0524 22.776 19.4475 22.776 18.4604 23.7657C17.4732 24.7529 17.4732 26.3577 18.4604 27.3449L20.25 29.1345Z" fill="#C58E03"/>
<path fill-rule="evenodd" clip-rule="evenodd" d="M41.7656 29.1345L39.976 30.9241C38.9888 31.9113 38.9888 33.5161 39.976 34.5033C40.9632 35.493 42.568 35.493 43.5552 34.5033L45.3448 32.7137L47.1344 34.5033C48.1241 35.493 49.7264 35.493 50.7161 34.5033C51.7033 33.5161 51.7033 31.9113 50.7161 30.9241L48.924 29.1345L50.7161 27.3449C51.7033 26.3577 51.7033 24.7529 50.7161 23.7657C49.7264 22.776 48.1241 22.776 47.1344 23.7657L45.3448 25.5553L43.5552 23.7657C42.568 22.776 40.9632 22.776 39.976 23.7657C38.9888 24.7529 38.9888 26.3577 39.976 27.3449L41.7656 29.1345Z" fill="#C58E03"/>
<path fill-rule="evenodd" clip-rule="evenodd" d="M27.0059 50.2175C29.3928 48.0685 31.7444 46.9851 34.1313 47.0231C36.5689 47.0611 38.9711 48.2406 41.4087 50.2783C42.4794 51.1744 44.0766 51.0301 44.9727 49.9593C45.8687 48.8861 45.727 47.2889 44.6537 46.3928C41.1859 43.4945 37.6801 42.0163 34.2123 41.9606C30.6939 41.9049 27.1375 43.287 23.6191 46.4536C22.5812 47.3901 22.4977 48.9924 23.4317 50.0302C24.3658 51.068 25.9681 51.1516 27.0059 50.2175Z" fill="#C58E03"/>
</svg>
