<svg width="20" height="21" viewBox="0 0 20 21" fill="none" xmlns="http://www.w3.org/2000/svg">
<path d="M9.99997 20.9999C8.97287 21.0012 7.98463 20.6073 7.23997 19.8999C6.49532 19.1925 6.05133 18.2257 5.99997 17.1999V16.9999H1.39997C1.13192 17.0009 0.869218 16.9249 0.643088 16.7809C0.416958 16.637 0.236906 16.4311 0.124327 16.1879C0.0117484 15.9446 -0.0286237 15.6741 0.00800793 15.4086C0.0446396 15.143 0.156735 14.8936 0.330974 14.6899L0.430974 14.5899L1.46097 13.5949C1.80664 13.2595 2.01968 12.8107 2.06097 12.3309L2.06897 12.1499L2.05897 8.99688C2.02251 6.88297 2.82728 4.84116 4.29625 3.32062C5.76522 1.80007 7.77807 0.92535 9.89197 0.888883C12.0059 0.852415 14.0477 1.65719 15.5682 3.12616C17.0888 4.59513 17.9635 6.60798 18 8.72188V8.96988V12.1699C18.0001 12.6394 18.1654 13.094 18.467 13.4539L18.586 13.5839L19.586 14.5839C19.8502 14.8497 19.999 15.2091 20 15.5839C20.0015 15.9359 19.8712 16.2758 19.6346 16.5366C19.3981 16.7974 19.0725 16.9602 18.722 16.9929L18.586 16.9999H14C13.9987 18.0603 13.5768 19.077 12.8269 19.8268C12.0771 20.5767 11.0604 20.9986 9.99997 20.9999ZM7.49997 16.9999C7.49997 17.6629 7.76337 18.2988 8.23221 18.7676C8.70105 19.2365 9.33693 19.4999 9.99997 19.4999C10.663 19.4999 11.2989 19.2365 11.7677 18.7676C12.2366 18.2988 12.5 17.6629 12.5 16.9999H7.49997ZM10.03 2.49988C8.34846 2.49215 6.73058 3.14231 5.52201 4.31146C4.31343 5.4806 3.60999 7.07603 3.56197 8.75688V8.98988L3.57197 12.1429C3.5748 13.0204 3.24787 13.867 2.65597 14.5149L2.50297 14.6719L1.64497 15.5009H18.379L17.525 14.6479C16.9203 14.0438 16.5581 13.239 16.507 12.3859L16.5 12.1729V8.96988C16.4981 7.2545 15.8159 5.60991 14.6029 4.39695C13.3899 3.18399 11.7454 2.50174 10.03 2.49988Z" fill="black"/>
</svg>
