<svg width="18" height="20" viewBox="0 0 18 20" fill="none" xmlns="http://www.w3.org/2000/svg">
<path d="M15 20H3C2.20435 20 1.44129 19.6839 0.87868 19.1213C0.31607 18.5587 0 17.7956 0 17L0 3C0 2.20435 0.31607 1.44129 0.87868 0.87868C1.44129 0.316071 2.20435 1.15322e-07 3 1.15322e-07L12.758 1.15322e-07C13.0083 -6.96492e-05 13.2576 0.0315142 13.5 0.0940001C13.543 0.105 13.587 0.117 13.63 0.13C14.1012 0.274076 14.53 0.531214 14.879 0.879L17.122 3.122C17.5018 3.50299 17.7726 3.97884 17.906 4.5V4.512C17.9676 4.75048 17.9991 4.99571 18 5.242V17C18 17.7956 17.6839 18.5587 17.1213 19.1213C16.5587 19.6839 15.7956 20 15 20ZM3 1.5C2.60218 1.5 2.22064 1.65804 1.93934 1.93934C1.65804 2.22064 1.5 2.60218 1.5 3V17C1.5 17.3978 1.65804 17.7794 1.93934 18.0607C2.22064 18.342 2.60218 18.5 3 18.5H15C15.3978 18.5 15.7794 18.342 16.0607 18.0607C16.342 17.7794 16.5 17.3978 16.5 17V6H15C14.2044 6 13.4413 5.68393 12.8787 5.12132C12.3161 4.55871 12 3.79565 12 3V1.5H3ZM13.5 1.7V3C13.5 3.39782 13.658 3.77936 13.9393 4.06066C14.2206 4.34196 14.6022 4.5 15 4.5H16.3C16.2336 4.38362 16.1518 4.27667 16.057 4.182L13.818 1.939C13.7311 1.85165 13.6337 1.7754 13.528 1.712L13.5 1.7Z" fill="black"/>
<path d="M5 8.25H13C13.1989 8.25 13.3897 8.32902 13.5303 8.46967C13.671 8.61032 13.75 8.80109 13.75 9C13.75 9.19891 13.671 9.38968 13.5303 9.53033C13.3897 9.67098 13.1989 9.75 13 9.75H5C4.80109 9.75 4.61032 9.67098 4.46967 9.53033C4.32902 9.38968 4.25 9.19891 4.25 9C4.25 8.80109 4.32902 8.61032 4.46967 8.46967C4.61032 8.32902 4.80109 8.25 5 8.25Z" fill="black"/>
<path d="M5 12.25H9C9.19891 12.25 9.38968 12.329 9.53033 12.4697C9.67098 12.6103 9.75 12.8011 9.75 13C9.75 13.1989 9.67098 13.3897 9.53033 13.5303C9.38968 13.671 9.19891 13.75 9 13.75H5C4.80109 13.75 4.61032 13.671 4.46967 13.5303C4.32902 13.3897 4.25 13.1989 4.25 13C4.25 12.8011 4.32902 12.6103 4.46967 12.4697C4.61032 12.329 4.80109 12.25 5 12.25Z" fill="black"/>
</svg>
