<svg width="42" height="42" viewBox="0 0 42 42" fill="none" xmlns="http://www.w3.org/2000/svg">
<path d="M38.7188 14.4375H32.1562V7.21875C32.1562 7.0447 32.0871 6.87778 31.964 6.75471C31.841 6.63164 31.674 6.5625 31.5 6.5625H30.1875V3.28125C30.1859 2.75958 29.978 2.25973 29.6091 1.89085C29.2403 1.52198 28.7404 1.31406 28.2188 1.3125H13.7812C13.2596 1.31406 12.7597 1.52198 12.3909 1.89085C12.022 2.25973 11.8141 2.75958 11.8125 3.28125V6.5625H10.5C10.326 6.5625 10.159 6.63164 10.036 6.75471C9.91289 6.87778 9.84375 7.0447 9.84375 7.21875V14.4375H3.28125C2.75958 14.4391 2.25973 14.647 1.89085 15.0159C1.52198 15.3847 1.31406 15.8846 1.3125 16.4062V30.8438C1.31406 31.3654 1.52198 31.8653 1.89085 32.2341C2.25973 32.603 2.75958 32.8109 3.28125 32.8125H11.8125V38.7188C11.8141 39.2404 12.022 39.7403 12.3909 40.1091C12.7597 40.478 13.2596 40.6859 13.7812 40.6875H28.2188C28.7404 40.6859 29.2403 40.478 29.6091 40.1091C29.978 39.7403 30.1859 39.2404 30.1875 38.7188V32.8125H38.7188C39.2404 32.8109 39.7403 32.603 40.1091 32.2341C40.478 31.8653 40.6859 31.3654 40.6875 30.8438V16.4062C40.6859 15.8846 40.478 15.3847 40.1091 15.0159C39.7403 14.647 39.2404 14.4391 38.7188 14.4375ZM13.125 3.28125C13.125 3.1072 13.1941 2.94028 13.3172 2.81721C13.4403 2.69414 13.6072 2.625 13.7812 2.625H28.2188C28.3928 2.625 28.5597 2.69414 28.6828 2.81721C28.8059 2.94028 28.875 3.1072 28.875 3.28125V6.5625H27.5625C27.3885 6.5625 27.2215 6.63164 27.0985 6.75471C26.9754 6.87778 26.9062 7.0447 26.9062 7.21875V14.4375H15.0938V7.21875C15.0938 7.0447 15.0246 6.87778 14.9015 6.75471C14.7785 6.63164 14.6115 6.5625 14.4375 6.5625H13.125V3.28125ZM28.875 38.7188C28.875 38.8928 28.8059 39.0597 28.6828 39.1828C28.5597 39.3059 28.3928 39.375 28.2188 39.375H13.7812C13.6072 39.375 13.4403 39.3059 13.3172 39.1828C13.1941 39.0597 13.125 38.8928 13.125 38.7188V32.8125H28.875V38.7188ZM39.375 30.8438C39.375 31.0178 39.3059 31.1847 39.1828 31.3078C39.0597 31.4309 38.8928 31.5 38.7188 31.5H3.28125C3.1072 31.5 2.94028 31.4309 2.81721 31.3078C2.69414 31.1847 2.625 31.0178 2.625 30.8438V16.4062C2.625 16.2322 2.69414 16.0653 2.81721 15.9422C2.94028 15.8191 3.1072 15.75 3.28125 15.75H38.7188C38.8928 15.75 39.0597 15.8191 39.1828 15.9422C39.3059 16.0653 39.375 16.2322 39.375 16.4062V30.8438Z" fill="#082431"/>
<path d="M38.0625 16.4062H3.9375C3.76345 16.4062 3.59653 16.4754 3.47346 16.5985C3.35039 16.7215 3.28125 16.8885 3.28125 17.0625V30.1875C3.28125 30.3615 3.35039 30.5285 3.47346 30.6515C3.59653 30.7746 3.76345 30.8438 3.9375 30.8438H38.0625C38.2365 30.8438 38.4035 30.7746 38.5265 30.6515C38.6496 30.5285 38.7188 30.3615 38.7188 30.1875V17.0625C38.7188 16.8885 38.6496 16.7215 38.5265 16.5985C38.4035 16.4754 38.2365 16.4062 38.0625 16.4062ZM9.84375 28.2188H5.90625V26.9062H9.84375V28.2188ZM9.84375 25.5938H5.90625V24.2812H9.84375V25.5938ZM9.84375 22.9688H5.90625V21.6562H9.84375V22.9688ZM9.84375 20.3438H5.90625V19.0312H9.84375V20.3438ZM26.9062 25.5938H15.0938V21.6562H26.9062V25.5938ZM30.8438 28.2188H29.5312V26.9062H30.8438V28.2188ZM30.8438 20.3438H29.5312V19.0312H30.8438V20.3438ZM33.4688 28.2188H32.1562V26.9062H33.4688V28.2188ZM33.4688 20.3438H32.1562V19.0312H33.4688V20.3438ZM36.0938 28.2188H34.7812V26.9062H36.0938V28.2188ZM36.0938 20.3438H34.7812V19.0312H36.0938V20.3438Z" fill="#082431"/>
<path d="M14.4375 34.125H27.5625V35.4375H14.4375V34.125Z" fill="#082431"/>
<path d="M14.4375 36.75H27.5625V38.0625H14.4375V36.75Z" fill="#082431"/>
<path d="M15.75 22.9688V24.2812H17.0625V23.625H17.7188V22.3125H16.4062C16.2322 22.3125 16.0653 22.3816 15.9422 22.5047C15.8191 22.6278 15.75 22.7947 15.75 22.9688Z" fill="#082431"/>
</svg>
