<?xml version="1.0" standalone="no"?>
<!DOCTYPE svg PUBLIC "-//W3C//DTD SVG 20010904//EN"
 "http://www.w3.org/TR/2001/REC-SVG-20010904/DTD/svg10.dtd">
<svg version="1.0" xmlns="http://www.w3.org/2000/svg"
 width="512.000000pt" height="512.000000pt" viewBox="0 0 512.000000 512.000000"
 preserveAspectRatio="xMidYMid meet">

<g transform="translate(0.000000,512.000000) scale(0.100000,-0.100000)"
fill="#000000" stroke="none">
<path d="M2278 4785 c-515 -71 -951 -286 -1313 -650 -585 -588 -795 -1474
-536 -2262 188 -573 584 -1034 1121 -1307 161 -82 287 -129 480 -178 134 -34
166 -39 240 -36 70 4 97 10 150 35 83 40 162 119 203 203 30 61 32 70 32 180
0 111 -1 118 -34 185 -67 135 -168 206 -350 244 -491 105 -878 437 -1041 896
-49 139 -70 247 -77 396 -12 276 46 524 178 754 295 515 873 783 1469 679 564
-98 1002 -527 1121 -1097 28 -134 31 -369 6 -507 -18 -97 -80 -298 -101 -323
-9 -12 -29 -7 -131 34 -88 35 -134 48 -173 48 -89 1 -155 -37 -194 -113 -38
-75 -33 -99 155 -705 189 -607 189 -606 260 -618 41 -6 -13 -36 707 380 190
110 360 210 378 224 100 75 101 243 3 326 -17 14 -68 40 -113 57 -46 17 -86
35 -90 39 -4 4 8 46 27 95 92 235 135 459 142 741 10 384 -58 704 -222 1040
-329 677 -978 1142 -1728 1240 -144 18 -433 18 -569 0z"/>
</g>
</svg>
