<svg width="8" height="16" viewBox="0 0 8 16" fill="none" xmlns="http://www.w3.org/2000/svg">
<path d="M0.220091 13.9692L6.01309 8.17618C6.03637 8.15295 6.05484 8.12537 6.06745 8.09499C6.08005 8.06462 6.08654 8.03206 6.08654 7.99918C6.08654 7.96629 6.08005 7.93373 6.06745 7.90336C6.05484 7.87299 6.03637 7.8454 6.01309 7.82218L0.220091 2.02918C0.0876107 1.887 0.0154875 1.69896 0.0189157 1.50465C0.0223439 1.31035 0.101056 1.12497 0.238469 0.987556C0.375882 0.850142 0.561267 0.77143 0.755568 0.768002C0.949869 0.764573 1.13792 0.836698 1.28009 0.969177L7.07309 6.76218C7.23561 6.92468 7.36453 7.11761 7.45249 7.32994C7.54045 7.54227 7.58572 7.76985 7.58572 7.99968C7.58572 8.22951 7.54045 8.45708 7.45249 8.66941C7.36453 8.88175 7.23561 9.07467 7.07309 9.23718L1.28009 15.0292C1.13792 15.1617 0.949869 15.2338 0.755568 15.2304C0.561267 15.2269 0.375882 15.1482 0.238469 15.0108C0.101056 14.8734 0.0223439 14.688 0.0189157 14.4937C0.0154875 14.2994 0.0876107 14.1114 0.220091 13.9692Z" fill="black"/>
</svg>
