<svg width="40" height="40" viewBox="0 0 40 40" fill="none" xmlns="http://www.w3.org/2000/svg">
<path d="M38.4144 18.2412L39.6875 2.28122C39.6945 1.75907 39.4937 1.25555 39.1294 0.881413C38.7651 0.507278 38.2671 0.29318 37.745 0.286218C37.2228 0.279256 36.7193 0.48 36.3452 0.84429C35.9711 1.20858 35.757 1.70657 35.75 2.22872L34.49 18.0312H33.6041C33.6064 17.7731 33.5575 17.5171 33.4602 17.2781C33.3629 17.039 33.2192 16.8216 33.0373 16.6385C32.8554 16.4554 32.639 16.3102 32.4006 16.2113C32.1622 16.1124 31.9065 16.0618 31.6484 16.0625H27.9406L29.1875 2.28122C29.1953 1.75907 28.9954 1.2552 28.6317 0.880452C28.4517 0.694894 28.2368 0.546622 27.9994 0.4441C27.7621 0.341578 27.5068 0.286815 27.2483 0.282937C26.7261 0.275104 26.2223 0.475014 25.8475 0.838688C25.4728 1.20236 25.2578 1.70001 25.25 2.22216L23.9966 16.0625H16.0034L14.75 2.28122C14.7422 1.75907 14.5272 1.26142 14.1525 0.897751C13.7777 0.534077 13.2739 0.334167 12.7517 0.341999C12.2296 0.349831 11.7319 0.564764 11.3682 0.939514C11.0046 1.31426 10.8047 1.81814 10.8125 2.34028L12.0594 16.0625H8.35155C8.09346 16.0618 7.8378 16.1124 7.5994 16.2113C7.36099 16.3102 7.14458 16.4554 6.96269 16.6385C6.7808 16.8216 6.63704 17.039 6.53976 17.2781C6.44247 17.5171 6.39359 17.7731 6.39593 18.0312H5.50999L4.24999 2.28122C4.24654 2.02268 4.19221 1.76735 4.09008 1.52981C3.98796 1.29227 3.84005 1.07717 3.6548 0.89679C3.28066 0.5325 2.77714 0.331756 2.25499 0.338718C1.73285 0.34568 1.23485 0.559778 0.870564 0.933913C0.506275 1.30805 0.30553 1.81157 0.312492 2.33372L1.58562 18.2412C1.35614 18.3532 1.15098 18.5093 0.981867 18.7006C0.797806 18.9105 0.660487 19.1571 0.579024 19.4241C0.497562 19.6912 0.473817 19.9724 0.509367 20.2493L2.79312 37.9681C2.85384 38.4437 3.08601 38.8807 3.44607 39.1973C3.80612 39.5138 4.26932 39.6881 4.74874 39.6875H35.2512C35.7307 39.6881 36.1939 39.5138 36.5539 39.1973C36.914 38.8807 37.1461 38.4437 37.2069 37.9681L39.4906 20.2493C39.5262 19.9724 39.5024 19.6912 39.421 19.4241C39.3395 19.1571 39.2022 18.9105 39.0181 18.7006C38.849 18.5093 38.6438 18.3532 38.4144 18.2412ZM4.74874 38.375C4.58964 38.3747 4.43605 38.3167 4.31654 38.2117C4.19702 38.1066 4.11974 37.9618 4.09905 37.804L1.80874 20.0853C1.79773 19.9927 1.80605 19.8988 1.83316 19.8096C1.86027 19.7203 1.90558 19.6377 1.96624 19.5668C2.02774 19.4968 2.10344 19.4407 2.1883 19.4023C2.27317 19.3638 2.36525 19.3438 2.45843 19.3437H6.52062L8.76499 38.375H4.74874ZM10.0841 38.375L7.70187 18.11C7.68926 18.0173 7.69681 17.923 7.72399 17.8335C7.75117 17.7441 7.79735 17.6615 7.85937 17.5915C7.92162 17.5229 7.99762 17.4682 8.08241 17.4309C8.16721 17.3936 8.25891 17.3745 8.35155 17.375H31.6484C31.7411 17.3745 31.8328 17.3936 31.9176 17.4309C32.0024 17.4682 32.0784 17.5229 32.1406 17.5915C32.2026 17.6615 32.2488 17.7441 32.276 17.8335C32.3032 17.923 32.3107 18.0173 32.2981 18.11L29.9159 38.375H10.0841ZM35.9009 37.804C35.8802 37.9618 35.803 38.1066 35.6834 38.2117C35.5639 38.3167 35.4103 38.3747 35.2512 38.375H31.235L33.4794 19.3437H37.5416C37.6347 19.3438 37.7268 19.3638 37.8117 19.4023C37.8965 19.4407 37.9722 19.4968 38.0337 19.5668C38.0944 19.6377 38.1397 19.7203 38.1668 19.8096C38.1939 19.8988 38.2023 19.9927 38.1912 20.0853L35.9009 37.804Z" fill="#082431"/>
</svg>
