<svg width="87" height="19" viewBox="0 0 87 19" fill="none" xmlns="http://www.w3.org/2000/svg">
<g filter="url(#filter0_d_1_2422)">
<path d="M21.3289 1.34253H16.6231L14.7631 11.7569H17.6461L18.8365 3.64253H19.1155L20.3059 11.7569H23.1889L21.3289 1.34253Z" fill="#074CA1"/>
<path d="M34.9441 11.7569L34.8139 3.91853H34.5349L33.1957 11.7569H30.3685L29.0107 3.91853H28.7503L28.6201 11.7569H25.9417L26.3695 1.34253H30.8707L31.6519 7.10173H31.8937L32.6935 1.34253H37.1761L37.6225 11.7569H34.9441Z" fill="#074CA1"/>
<path d="M51.4423 9.45693V1.34253H54.3997V9.30973V9.36493V9.40173V9.43853V9.49373L54.4183 9.53053V9.56733L54.4369 9.60413V9.64093L54.4555 9.67773L54.4741 9.71453L54.4927 9.75133L54.5113 9.78813L54.5299 9.82493L54.5671 9.84333L54.5857 9.88013L54.6043 9.91693L54.6415 9.93533L54.6601 9.97213L54.6973 9.99053L54.7345 10.0089L54.7717 10.0457L54.8089 10.0641L54.8275 10.0825L54.8647 10.1009L54.9019 10.1193H54.9577L54.9949 10.1377H55.0321L55.0693 10.1561H55.1065H55.1623H55.1995H55.2367H55.2925H55.3297L55.3669 10.1377H55.4041L55.4413 10.1193H55.4785L55.5157 10.1009L55.5529 10.0825L55.5901 10.0641L55.6273 10.0457L55.6645 10.0089L55.7017 9.99053L55.7203 9.97213L55.7575 9.93533L55.7761 9.91693L55.8133 9.88013L55.8319 9.84333L55.8505 9.82493L55.8877 9.78813L55.9063 9.75133L55.9249 9.71453L55.9435 9.67773V9.64093L55.9621 9.60413L55.9807 9.56733V9.53053L55.9993 9.49373V9.43853V9.40173V9.36493V9.30973V1.34253H58.9567V9.49373L58.9381 9.67773L58.9195 9.84333L58.9009 10.0089L58.8637 10.1561L58.8265 10.3217L58.7707 10.4689L58.6963 10.5977L58.6219 10.7449L58.5475 10.8737L58.4545 11.0025L58.3615 11.1129L58.2499 11.2233L58.1569 11.3337L58.0267 11.4441L57.9151 11.5361L57.7849 11.6281L57.6361 11.7017L57.5059 11.7937L57.3571 11.8673L57.2083 11.9409L57.0595 11.9961L56.8921 12.0513L56.7433 12.1065L56.5759 12.1617L56.4085 12.1985L56.2411 12.2353L55.9063 12.2905L55.5529 12.3089L55.1995 12.3273L54.8461 12.3089L54.4927 12.2721L54.1579 12.2169L53.9905 12.1801L53.8231 12.1433L53.6557 12.0881L53.4883 12.0513L53.3395 11.9777L53.1907 11.9225L53.0419 11.8489L52.8931 11.7753L52.7443 11.6833L52.6141 11.6097L52.4839 11.5177L52.3723 11.4073L52.2421 11.3153L52.1305 11.2049L52.0375 11.0945L51.9445 10.9657L51.8515 10.8369L51.7771 10.7081L51.7027 10.5793L51.6283 10.4321L51.5725 10.2849L51.5353 10.1193L51.4981 9.97213L51.4795 9.80653L51.4609 9.62253L51.4423 9.45693Z" fill="#074CA1"/>
<path d="M71.4931 1.34253H68.9263V7.85613H68.8705L65.8945 1.34253H62.7325V11.7569H65.2993V5.66653H65.3551L68.1451 11.7569H71.4931V1.34253Z" fill="#074CA1"/>
<path d="M40.7473 9.69611V8.33451H43.6861L43.6675 8.94171V9.08891L43.6861 9.23611V9.29132L43.7047 9.36491V9.42011L43.7233 9.47532L43.7419 9.53051L43.7605 9.56732V9.58571L43.7791 9.62251L43.7977 9.64091V9.65932L43.8163 9.69611L43.8349 9.71451L43.8535 9.73291L43.8721 9.75132L43.8907 9.78811L43.9093 9.80651L43.9279 9.82491L43.9651 9.84332L43.9837 9.86171L44.0023 9.88011L44.0395 9.89851H44.0581L44.0953 9.91691L44.1139 9.93532L44.1511 9.95371H44.1883L44.2255 9.97211L44.2999 9.99051L44.3743 10.0089H44.4673L44.5603 10.0273H44.5789H44.5975H44.6161H44.6533L44.6719 10.0089H44.6905H44.7091H44.7277L44.7835 9.99051L44.8207 9.97211L44.8579 9.95371L44.9137 9.93532L44.9509 9.89851L44.9881 9.88011L45.0253 9.84332L45.0625 9.80651L45.0997 9.76971L45.1369 9.73291L45.1741 9.67771L45.1927 9.64091L45.2299 9.58571L45.2485 9.53051L45.2671 9.49371L45.2857 9.42011L45.3043 9.36491L45.3229 9.30971V9.23611V9.18091V9.10732V9.03371L45.3043 8.96011L45.2857 8.88651L45.2671 8.81291L45.2485 8.73932L45.2113 8.66571L45.1741 8.57371L45.1555 8.53691L45.1183 8.50011L45.0997 8.46332L45.0811 8.42651L45.0439 8.38971L45.0253 8.35291L44.9695 8.29771L44.8951 8.24251L44.8207 8.16891L44.7463 8.11371L44.6719 8.05851L44.5045 7.96651L44.3185 7.85611L43.8907 7.67211L43.4257 7.45131L42.9049 7.17531L42.6445 7.02811L42.3655 6.84411L42.0865 6.64171L41.8075 6.42091L41.7703 6.38411L41.7331 6.36571L41.6959 6.32891L41.6587 6.29211L41.6215 6.25531L41.5843 6.21851L41.5099 6.14491L41.4541 6.05291L41.3983 5.96091L41.3425 5.86891L41.2867 5.77691L41.2309 5.66651L41.1937 5.55611L41.1565 5.44571L41.1193 5.33531L41.0635 5.09611L41.0077 4.85691L40.9705 4.59931L40.9519 4.36011L40.9333 4.10251V3.86331V3.62411L40.9519 3.40331L40.9705 3.20091L41.0077 2.99851L41.0263 2.86971L41.0635 2.72251L41.1193 2.59371L41.1751 2.46491L41.2309 2.35451L41.3053 2.22571L41.3797 2.11531L41.4541 2.02331L41.5471 1.91291L41.6401 1.82091L41.7331 1.72891L41.8447 1.65531L41.9563 1.56331L42.0865 1.48971L42.1981 1.41611L42.3283 1.36091L42.4585 1.30571L42.5887 1.25051L42.7189 1.19531L42.8677 1.14011L43.1653 1.06651L43.4629 1.01131L43.7791 0.956111L44.0767 0.937713L44.3929 0.919312L44.7091 0.937713L45.0253 0.956111L45.3415 0.992913L45.6577 1.04811L45.9553 1.12171L46.2343 1.21371L46.5133 1.30571L46.7737 1.41611L46.8853 1.48971L47.0155 1.54491L47.1271 1.61851L47.2387 1.69211L47.3317 1.76571L47.4247 1.83931L47.5177 1.93131L47.6107 2.00491L47.6851 2.09691L47.7595 2.18891L47.8153 2.28091L47.8525 2.33611L47.8711 2.37291L47.9083 2.42811L47.9269 2.48331L47.9455 2.53851L47.9641 2.57531L47.9827 2.63051L48.0013 2.68571V2.74091L48.0199 2.79611V2.85131L48.0385 2.90651V2.96171V3.01691V4.45211H45.3601L45.3787 3.84491V3.71611V3.58731L45.3601 3.53211V3.47691L45.3415 3.42171L45.3229 3.36651V3.34811L45.3043 3.31131V3.29291L45.2857 3.27451L45.2671 3.23771V3.21931L45.2485 3.20091L45.2299 3.18251L45.2113 3.16411L45.1927 3.14571L45.1741 3.12731L45.1555 3.10891L45.1369 3.09051L45.1183 3.07211L45.0997 3.05371L45.0625 3.03531H45.0439L45.0067 3.01691L44.9881 2.99851H44.9509L44.9137 2.98011L44.8951 2.96171L44.8207 2.94331H44.7463L44.6533 2.92491H44.5603H44.4673H44.4301H44.3929H44.3557L44.3185 2.94331L44.2813 2.96171H44.2441L44.2069 2.98011L44.1511 2.99851L44.1139 3.03531L44.0767 3.05371L44.0395 3.07211L44.0023 3.10891L43.9651 3.12731L43.9279 3.16411L43.8907 3.20091L43.8721 3.23771L43.8535 3.25611L43.8349 3.27451V3.31131L43.8163 3.32971L43.7977 3.34811V3.36651L43.7791 3.40331V3.42171L43.7605 3.44011V3.47691L43.7419 3.49531V3.53211V3.55051V3.58731V3.60571L43.7233 3.64251V3.66091V3.69771L43.7419 3.73451V3.77131V3.82651L43.7605 3.90011L43.7791 3.97371L43.8163 4.04731L43.8349 4.12091L43.8721 4.19451L43.9465 4.30491L44.0395 4.37851L44.1139 4.47051L44.1883 4.54411L44.3743 4.70971L44.5417 4.83851L44.7277 4.96731L44.9137 5.07771L45.0997 5.18811L45.3043 5.28011L46.0855 5.62971L46.4575 5.79531L46.6435 5.88731L46.8295 5.99771L46.9969 6.08971L47.1643 6.20011L47.2387 6.27371L47.3317 6.32891L47.4061 6.40251L47.4805 6.45771L47.5363 6.53131L47.6107 6.60491L47.6851 6.69691L47.7409 6.77051L47.7967 6.86251L47.8525 6.95451L47.9083 7.04651L47.9641 7.15691L48.0013 7.26731L48.0571 7.37771L48.0943 7.48811L48.1315 7.61691L48.1687 7.74571L48.1873 7.87451L48.2059 8.02171L48.2245 8.16891L48.2617 8.48171V8.83132L48.2431 9.19932L48.2245 9.60411L48.2059 9.76971L48.1687 9.91691L48.1315 10.0457L48.0757 10.1929L48.0199 10.3217L47.9641 10.4505L47.8897 10.5793L47.7967 10.6897L47.7223 10.8185L47.6107 10.9105L47.5177 11.0209L47.4061 11.1129L47.2945 11.2049L47.1829 11.2969L47.0527 11.3889L46.9225 11.4625L46.7737 11.5361L46.6435 11.6097L46.4947 11.6649L46.3459 11.7201L46.1971 11.7753L46.0483 11.8305L45.7321 11.9041L45.3973 11.9777L45.0625 12.0145L44.7277 12.0513H44.3743L44.0395 12.0329L43.7047 12.0145L43.3699 11.9593L43.0537 11.8857L42.7375 11.8121L42.4399 11.7017L42.2911 11.6465L42.1609 11.5729L42.0307 11.5177L41.9005 11.4441L41.7703 11.3705L41.6587 11.2785L41.5471 11.2049L41.4355 11.1129L41.3239 11.0209L41.2309 10.9105L41.1565 10.8185L41.0635 10.7081L41.0077 10.5977L40.9705 10.5425L40.9333 10.4873L40.9147 10.4137L40.8775 10.3585L40.8589 10.3033L40.8403 10.2297L40.8217 10.1745L40.8031 10.1009L40.7845 10.0457L40.7659 9.97211V9.91691L40.7473 9.84332V9.76971V9.69611Z" fill="#074CA1"/>
<path d="M8.32747 0.919312L7.86247 0.937713L7.45327 0.992913L7.24867 1.02971L7.06267 1.08491L6.89527 1.12171L6.72787 1.17691L6.56047 1.23211L6.41167 1.30571L6.26287 1.36091L6.13267 1.43451L6.00247 1.50811L5.87227 1.60011L5.76067 1.67371L5.64907 1.76571L5.55607 1.85771L5.46307 1.94971L5.37007 2.04171L5.29567 2.15211L5.22127 2.24411L5.16547 2.35451L5.09107 2.46491L5.05387 2.57531L4.99807 2.68571L4.96087 2.79611L4.92367 2.90651L4.88647 3.03531L4.84927 3.14571L4.83067 3.27451L4.81207 3.38491V3.51371L4.79347 3.75291V3.99211L4.81207 4.23131L4.84927 4.45211L4.88647 4.69131L4.94227 4.91211L4.99807 5.13291L5.07247 5.33531L5.14687 5.51931L5.23987 5.70331L5.31427 5.86891L5.40727 6.01611L5.50027 6.14491L5.55607 6.20011L5.59327 6.25531L5.63047 6.31051L5.68627 6.34731L5.72347 6.38411L5.74207 6.40251L5.76067 6.42091L6.05827 6.64171L6.31867 6.84411L6.59767 7.02811L6.85807 7.17531L7.37887 7.45131L7.84387 7.67211L8.27167 7.85611L8.45767 7.96651L8.62507 8.05851L8.69947 8.11371L8.77387 8.16891L8.84827 8.24251L8.92267 8.29771L8.97847 8.35291L8.99707 8.38971L9.03427 8.42651L9.05287 8.46332L9.07147 8.50011L9.10867 8.53691L9.12727 8.57371L9.16447 8.66571L9.20167 8.73932L9.22027 8.81291L9.23887 8.88651L9.25747 8.96011L9.27607 9.03371V9.10732V9.18091V9.23611V9.30971L9.25747 9.36491L9.23887 9.42011L9.22027 9.49371L9.20167 9.53051L9.18307 9.58571L9.14587 9.64091L9.12727 9.67771L9.09007 9.73291L9.05287 9.76971L9.01567 9.80651L8.97847 9.84332L8.94127 9.88011L8.90407 9.89851L8.86687 9.93532L8.81107 9.95371L8.77387 9.97211L8.73667 9.99051L8.68087 10.0089H8.66227H8.64367H8.62507L8.60647 10.0273H8.56927H8.55067H8.53207H8.51347L8.42047 10.0089H8.32747L8.25307 9.99051L8.17867 9.97211L8.14147 9.95371H8.10427L8.06707 9.93532L8.04847 9.91691L8.01127 9.89851H7.99267L7.95547 9.88011L7.93687 9.86171L7.91827 9.84332L7.88107 9.82491L7.86247 9.80651L7.84387 9.78811L7.82527 9.75132L7.80667 9.73291L7.78807 9.71451L7.76947 9.69611L7.75087 9.65932V9.64091L7.73227 9.62251L7.71367 9.58571V9.56732L7.69507 9.53051L7.67647 9.47532L7.65787 9.42011V9.36491L7.63927 9.29132V9.23611L7.62067 9.08891V8.94171L7.63927 8.33451H4.70047V9.69611V9.76971V9.84332L4.71907 9.91691V9.97211L4.73767 10.0457L4.75627 10.1009L4.77487 10.1745L4.79347 10.2297L4.81207 10.3033L4.83067 10.3585L4.86787 10.4137L4.88647 10.4873L4.92367 10.5425L4.96087 10.5977L5.03527 10.7081L5.10967 10.8185L5.18407 10.9105L5.27707 11.0209L5.38867 11.1129L5.50027 11.2049L5.61187 11.2785L5.72347 11.3705L5.85367 11.4441L5.98387 11.5177L6.11407 11.5729L6.24427 11.6465L6.39307 11.7017L6.69067 11.8121L7.00687 11.8857L7.32307 11.9593L7.65787 12.0145L7.99267 12.0329L8.32747 12.0513H8.68087L9.01567 12.0145L9.35047 11.9777L9.68527 11.9041L10.0015 11.8305L10.1503 11.7753L10.2991 11.7201L10.4479 11.6649L10.5967 11.6097L10.7269 11.5361L10.8757 11.4625L11.0059 11.3889L11.1361 11.2969L11.2477 11.2049L11.3593 11.1129L11.4709 11.0209L11.5825 10.9105L11.6755 10.8185L11.7499 10.6897L11.8429 10.5793L11.9173 10.4505L11.9731 10.3217L12.0289 10.1929L12.0847 10.0457L12.1219 9.91691L12.1591 9.76971L12.1777 9.60411L12.1963 9.19932L12.2149 8.83132V8.48171L12.1777 8.16891L12.1591 8.02171L12.1405 7.87451L12.1219 7.74571L12.0847 7.61691L12.0475 7.48811L12.0103 7.37771L11.9545 7.26731L11.9173 7.15691L11.8615 7.04651L11.8057 6.95451L11.7499 6.86251L11.6941 6.77051L11.6383 6.69691L11.5639 6.60491L11.4895 6.53131L11.4337 6.45771L11.3593 6.40251L11.2849 6.32891L11.1919 6.27371L11.1175 6.20011L10.9501 6.08971L10.7827 5.99771L10.5967 5.88731L10.4107 5.79531L10.0387 5.62971L9.25747 5.28011L9.05287 5.18811L8.86687 5.07771L8.68087 4.96731L8.49487 4.83851L8.32747 4.70971L8.14147 4.54411L8.06707 4.47051L7.99267 4.37851L7.89967 4.30491L7.82527 4.19451L7.78807 4.12091L7.76947 4.04731L7.73227 3.97371L7.71367 3.90011L7.69507 3.82651V3.77131V3.73451V3.69771L7.67647 3.66091L7.69507 3.64251V3.60571V3.58731V3.55051V3.53211L7.71367 3.49531V3.47691V3.44011L7.73227 3.42171V3.40331L7.75087 3.36651V3.34811L7.76947 3.32971L7.78807 3.31131V3.27451L7.80667 3.25611L7.82527 3.23771L7.86247 3.20091L7.88107 3.16411L7.91827 3.12731L7.95547 3.10891L7.99267 3.07211L8.02987 3.05371L8.06707 3.03531L8.10427 2.99851L8.16007 2.98011L8.19727 2.96171H8.23447L8.27167 2.94331L8.30887 2.92491H8.34607H8.38327H8.42047H8.51347H8.60647L8.69947 2.94331H8.77387L8.84827 2.96171L8.86687 2.98011L8.90407 2.99851H8.94127L8.95987 3.01691L8.99707 3.03531H9.01567L9.05287 3.05371L9.07147 3.07211L9.09007 3.09051L9.10867 3.10891L9.12727 3.12731L9.14587 3.14571L9.16447 3.16411L9.18307 3.18251L9.20167 3.20091L9.22027 3.21931V3.23771L9.23887 3.27451L9.25747 3.29291V3.31131L9.27607 3.34811V3.36651L9.29467 3.42171L9.31327 3.47691V3.53211L9.33187 3.58731V3.71611V3.84491L9.31327 4.45211H11.9917V3.01691V2.94331V2.86971L11.9731 2.79611V2.72251L11.9545 2.64891L11.9359 2.57531L11.9173 2.52011L11.8987 2.44651L11.8615 2.39131L11.8429 2.31771L11.8057 2.26251L11.7871 2.20731L11.7499 2.15211L11.7127 2.09691L11.6755 2.04171L11.6383 1.98651L11.5825 1.93131L11.5453 1.89451L11.4895 1.83931L11.4523 1.78411L11.3407 1.71051L11.2291 1.61851L11.1175 1.54491L10.9873 1.47131L10.8571 1.41611L10.7269 1.34251L10.5967 1.28731L10.4479 1.23211L10.1503 1.15851L9.85267 1.08491L9.53647 1.01131L9.23887 0.974512L8.92267 0.937713L8.32747 0.919312Z" fill="#074CA1"/>
<path d="M78.9517 12.4377H79.2865H79.6027L79.9003 12.4193L80.1607 12.3825L80.4211 12.3457L80.6443 12.2905L80.7559 12.2537L80.8489 12.2169L80.9419 12.1801L81.0535 12.1433L81.1279 12.1065L81.2209 12.0513L81.2953 12.0145L81.3697 11.9593L81.4441 11.9041L81.5185 11.8673L81.5743 11.8121L81.6487 11.7569L81.7045 11.7017L81.7603 11.6281L81.7975 11.5729L81.8533 11.5177L81.8905 11.4441L81.9463 11.3889L81.9835 11.3153L82.0207 11.2601L82.0393 11.1865L82.0765 11.1313L82.1323 10.9841L82.1695 10.8553L82.2067 10.7081L82.2439 10.5609L82.2625 10.4137L82.2811 10.2849V10.1377L82.2997 9.8617V9.6041V9.1441V6.3105H78.8215V7.81931H79.5283V9.6041V9.6409V9.6777V9.7145L79.5097 9.75131V9.7881L79.4911 9.8249V9.8617L79.4725 9.8801L79.4539 9.9169L79.4353 9.9537L79.4167 9.9905L79.3981 10.0089L79.3795 10.0457L79.3609 10.0825L79.3423 10.1009L79.3051 10.1193L79.2865 10.1561L79.2493 10.1745L79.2307 10.1929L79.1935 10.2113L79.1749 10.2297L79.1377 10.2481L79.1005 10.2665L79.0633 10.2849L79.0261 10.3033L79.0075 10.3217H78.9703L78.9331 10.3401H78.8959H78.8587H78.8215H78.7657H78.7285H78.6913H78.6541H78.6169L78.5797 10.3217H78.5425L78.5053 10.3033L78.4867 10.2849L78.4495 10.2665L78.4123 10.2481L78.3751 10.2297L78.3565 10.2113L78.3193 10.1929L78.3007 10.1745L78.2635 10.1561L78.2449 10.1193L78.2077 10.1009L78.1891 10.0825L78.1705 10.0457L78.1519 10.0089L78.1333 9.9905L78.1147 9.9537L78.0961 9.9169L78.0775 9.8801L78.0589 9.8617V9.8249L78.0403 9.7881V9.75131L78.0217 9.7145V9.6777V9.6409V9.6041V3.7897V3.7529V3.7161V3.6793L78.0403 3.6425V3.6057L78.0589 3.5689V3.5321L78.0775 3.4953L78.0961 3.4585L78.1147 3.4401L78.1333 3.4033L78.1519 3.3665L78.1705 3.3481L78.1891 3.3113L78.2077 3.2929L78.2449 3.2561L78.2635 3.2377L78.3007 3.2193L78.3193 3.1825L78.3565 3.1641L78.3751 3.1457L78.4123 3.1273L78.4495 3.1089H78.4867L78.5053 3.0905L78.5425 3.0721H78.5797L78.6169 3.0537H78.6541H78.6913L78.7285 3.0353H78.7657H78.8215L78.8587 3.0537H78.8959H78.9331L78.9703 3.0721H79.0075L79.0261 3.0905L79.0633 3.1089H79.1005L79.1377 3.1273L79.1749 3.1457L79.1935 3.1641L79.2307 3.1825L79.2493 3.2193L79.2865 3.2377L79.3051 3.2561L79.3423 3.2929L79.3609 3.3113L79.3795 3.3481L79.3981 3.3665L79.4167 3.4033L79.4353 3.4401L79.4539 3.4585L79.4725 3.4953L79.4911 3.5321V3.5689L79.5097 3.6057V3.6425L79.5283 3.6793V3.7161V3.7529V3.7897V4.7465H82.2997V3.5689L82.2811 3.4033V3.3481L82.2625 3.2745V3.2009L82.2439 3.1273L82.2253 3.0537L82.2067 2.9985L82.1881 2.9249L82.1695 2.8697L82.1509 2.7961L82.1137 2.7409L82.0765 2.6673L82.0579 2.6121L81.9835 2.5017L81.9091 2.3913L81.8161 2.2809L81.7417 2.1705L81.6301 2.0785L81.5371 1.9865L81.4255 1.8945L81.2953 1.8209L81.1837 1.7289L81.0535 1.6553L80.9233 1.6001L80.7931 1.5265L80.6443 1.4713L80.4955 1.4161L80.3467 1.3609L80.0491 1.2689L79.7329 1.2137L79.3981 1.1585L79.0633 1.1401L78.7471 1.1217H78.4123L78.0775 1.1585L77.7613 1.1953L77.4451 1.2689L77.1289 1.3609L76.9801 1.3977L76.8313 1.4529L76.7011 1.5081L76.5523 1.5817L76.4221 1.6369L76.2919 1.7105L76.1803 1.8025L76.0687 1.8761L75.9571 1.9681L75.8455 2.0601L75.7525 2.1521L75.6595 2.2441L75.5665 2.3545L75.4921 2.4649L75.4177 2.5753L75.3991 2.6489L75.3619 2.7041L75.3433 2.7593L75.3061 2.8329L75.2875 2.8881L75.2689 2.9617L75.2503 3.0169L75.2317 3.0905L75.2131 3.1641V3.2193L75.1945 3.2929V3.3665V3.5137V10.0457V10.1561V10.2481V10.3401L75.2131 10.4321L75.2317 10.5241L75.2503 10.5977L75.2689 10.6897L75.2875 10.7633L75.3061 10.8553L75.3433 10.9289L75.3805 11.0025L75.3991 11.0761L75.4363 11.1313L75.4921 11.2049L75.5293 11.2785L75.5665 11.3337L75.6223 11.3889L75.6595 11.4441L75.7153 11.4993L75.7711 11.5545L75.8269 11.6097L75.8827 11.6649L75.9943 11.7569L76.1245 11.8489L76.2547 11.9225L76.3849 11.9961L76.5337 12.0697L76.6825 12.1249L76.8313 12.1801L76.9801 12.2169L77.1289 12.2721L77.4451 12.3273L77.7613 12.3825L78.0775 12.4193L78.3937 12.4377H78.6727H78.9517Z" fill="#074CA1"/>
</g>
<defs>
<filter id="filter0_d_1_2422" x="0.70047" y="0.919312" width="85.5992" height="19.5184" filterUnits="userSpaceOnUse" color-interpolation-filters="sRGB">
<feFlood flood-opacity="0" result="BackgroundImageFix"/>
<feColorMatrix in="SourceAlpha" type="matrix" values="0 0 0 0 0 0 0 0 0 0 0 0 0 0 0 0 0 0 127 0" result="hardAlpha"/>
<feOffset dy="4"/>
<feGaussianBlur stdDeviation="2"/>
<feComposite in2="hardAlpha" operator="out"/>
<feColorMatrix type="matrix" values="0 0 0 0 0 0 0 0 0 0 0 0 0 0 0 0 0 0 0.25 0"/>
<feBlend mode="normal" in2="BackgroundImageFix" result="effect1_dropShadow_1_2422"/>
<feBlend mode="normal" in="SourceGraphic" in2="effect1_dropShadow_1_2422" result="shape"/>
</filter>
</defs>
</svg>
