<svg width="40" height="40" viewBox="0 0 40 40" fill="none" xmlns="http://www.w3.org/2000/svg">
<path d="M37.7188 26.5625C38.2404 26.5609 38.7403 26.353 39.1091 25.9841C39.478 25.6153 39.6859 25.1154 39.6875 24.5938V2.28125C39.6859 1.75958 39.478 1.25973 39.1091 0.890855C38.7403 0.52198 38.2404 0.314058 37.7188 0.3125H2.28125C1.75958 0.314058 1.25973 0.52198 0.890855 0.890855C0.52198 1.25973 0.314058 1.75958 0.3125 2.28125V24.5938C0.314058 25.1154 0.52198 25.6153 0.890855 25.9841C1.25973 26.353 1.75958 26.5609 2.28125 26.5625H16.7188V30.5H12.7812C12.6072 30.5 12.4403 30.5691 12.3172 30.6922C12.1941 30.8153 12.125 30.9822 12.125 31.1562V31.8125H3.26562C2.48241 31.8125 1.73127 32.1236 1.17745 32.6775C0.623632 33.2313 0.3125 33.9824 0.3125 34.7656C0.3125 35.5488 0.623632 36.3 1.17745 36.8538C1.73127 37.4076 2.48241 37.7188 3.26562 37.7188H33.125C33.1266 38.2404 33.3345 38.7403 33.7034 39.1091C34.0722 39.478 34.5721 39.6859 35.0938 39.6875H37.7188C37.8928 39.6875 38.0597 39.6184 38.1828 39.4953C38.3059 39.3722 38.375 39.2053 38.375 39.0312H39.6875V37.7188H38.375V36.4062H39.6875V35.0938H38.375C38.375 34.9197 38.3059 34.7528 38.1828 34.6297C38.0597 34.5066 37.8928 34.4375 37.7188 34.4375H35.0938C34.5721 34.4391 34.0722 34.647 33.7034 35.0159C33.3345 35.3847 33.1266 35.8846 33.125 36.4062H3.26562C2.8305 36.4062 2.4132 36.2334 2.10553 35.9257C1.79785 35.618 1.625 35.2007 1.625 34.7656C1.625 34.3305 1.79785 33.9132 2.10553 33.6055C2.4132 33.2979 2.8305 33.125 3.26562 33.125H12.125V33.7812C12.125 33.9553 12.1941 34.1222 12.3172 34.2453C12.4403 34.3684 12.6072 34.4375 12.7812 34.4375H27.2188C27.3928 34.4375 27.5597 34.3684 27.6828 34.2453C27.8059 34.1222 27.875 33.9553 27.875 33.7812V31.1562C27.875 30.9822 27.8059 30.8153 27.6828 30.6922C27.5597 30.5691 27.3928 30.5 27.2188 30.5H23.2812V26.5625H37.7188ZM20.6562 24.5938H19.3438V23.2812H20.6562V24.5938ZM3.59375 21.3125V3.59375H36.4062V21.3125H3.59375Z" fill="#082431"/>
</svg>
