<svg width="16" height="24" viewBox="0 0 16 24" fill="none" xmlns="http://www.w3.org/2000/svg">
<path d="M13.25 0.75H2.75C2.25272 0.75 1.77581 0.947544 1.42417 1.29917C1.07254 1.65081 0.875 2.12772 0.875 2.625V21.375C0.875 21.8723 1.07254 22.3492 1.42417 22.7008C1.77581 23.0525 2.25272 23.25 2.75 23.25H13.25C13.7473 23.25 14.2242 23.0525 14.5758 22.7008C14.9275 22.3492 15.125 21.8723 15.125 21.375V2.625C15.125 2.12772 14.9275 1.65081 14.5758 1.29917C14.2242 0.947544 13.7473 0.75 13.25 0.75ZM13.25 21C13.25 21.0995 13.2105 21.1948 13.1402 21.2652C13.0698 21.3355 12.9745 21.375 12.875 21.375H3.125C3.02554 21.375 2.93016 21.3355 2.85983 21.2652C2.78951 21.1948 2.75 21.0995 2.75 21V3C2.75 2.90054 2.78951 2.80516 2.85983 2.73484C2.93016 2.66451 3.02554 2.625 3.125 2.625H4.25V3C4.25089 3.29809 4.3697 3.58373 4.58049 3.79451C4.79127 4.0053 5.07691 4.12411 5.375 4.125H10.625C10.9231 4.12411 11.2087 4.0053 11.4195 3.79451C11.6303 3.58373 11.7491 3.29809 11.75 3V2.625H12.875C12.9745 2.625 13.0698 2.66451 13.1402 2.73484C13.2105 2.80516 13.25 2.90054 13.25 3V21Z" fill="#082431"/>
<path d="M4.25 18.75H3.5V20.25C3.5 20.3495 3.53951 20.4448 3.60983 20.5152C3.68016 20.5855 3.77554 20.625 3.875 20.625H5.375V19.875H4.25V18.75Z" fill="#082431"/>
</svg>
