<svg width="112" height="21" viewBox="0 0 112 21" fill="none" xmlns="http://www.w3.org/2000/svg">
<g clip-path="url(#clip0_225_2887)">
<rect x="-17.6465" y="-22.8427" width="102" height="61" rx="10" fill="#F7F4F4"/>
<path fill-rule="evenodd" clip-rule="evenodd" d="M109.957 16.4985C109.016 16.4985 108.256 17.2905 108.256 18.2628C108.256 19.235 109.016 20.036 109.957 20.036C110.898 20.036 111.649 19.244 111.649 18.2628C111.649 17.2816 110.894 16.4985 109.957 16.4985ZM109.957 19.822C109.13 19.822 108.465 19.128 108.465 18.261C108.465 17.394 109.13 16.7107 109.957 16.7107C110.783 16.7107 111.444 17.4047 111.444 18.261C111.444 19.1173 110.778 19.822 109.957 19.822Z" fill="#231F20"/>
<path fill-rule="evenodd" clip-rule="evenodd" d="M110.827 17.8008C110.827 17.6349 110.755 17.4583 110.615 17.3744C110.473 17.287 110.313 17.2781 110.153 17.2781H109.326V19.2547H109.557V18.3431H109.983L110.526 19.2547H110.801L110.228 18.3431C110.565 18.3342 110.827 18.1897 110.827 17.8008ZM109.913 18.1522H109.557V17.4529H110.1C110.336 17.4529 110.592 17.4904 110.592 17.7954C110.592 18.1986 110.18 18.1522 109.913 18.1522Z" fill="#231F20"/>
<path fill-rule="evenodd" clip-rule="evenodd" d="M100.014 8.24399L103.482 4.38353C103.682 4.09989 103.783 3.90187 103.783 3.73239C103.783 3.44875 103.549 3.33636 102.815 3.33636H101.939V0.89592H111.411V3.33279H110.165C108.728 3.33279 108.461 3.55935 106.456 6.19424L100.968 12.372V16.1415C100.968 17.1048 101.436 17.4438 102.774 17.4438H104.846V19.7968H91.58V17.4438H93.6521C94.9884 17.4438 95.4555 17.1048 95.4555 16.1415V12.372L88.9929 4.91872C87.9235 3.61644 88.0724 3.33279 85.0986 3.33279V0.89592H97.0964V3.33279H96.2426C95.3734 3.33279 95.0055 3.50226 95.0055 3.843C95.0055 4.12664 95.2724 4.35321 95.4401 4.57977L98.7099 8.29394C99.0966 8.71495 99.5705 8.77025 100.014 8.24221V8.24399Z" fill="#231F20"/>
<path fill-rule="evenodd" clip-rule="evenodd" d="M19.5154 0.895932H22.4087V7.69812H19.7361C19.5 6.33875 18.6838 5.80892 17.9395 5.09712C16.5963 3.8109 13.6893 2.74053 11.2442 2.74053C8.08738 2.74053 5.42502 3.76095 5.42502 5.26303C5.42502 9.43033 23.4764 6.11397 23.4764 13.9919C23.4764 18.1003 19.6095 20.3962 12.6661 20.3962C10.2621 20.3962 6.62445 19.6184 4.47882 18.4303C3.80638 18.0254 3.52064 18.8139 3.39402 19.8022H0.423668V12.7734H3.10657C3.69858 14.5592 4.51475 14.9267 5.26418 15.6367C6.56628 16.8837 9.66324 17.7917 12.5053 17.7614C16.788 17.7168 18.2612 16.7409 18.2612 15.3245C18.2612 13.908 16.8034 13.5673 12.11 12.802L8.12503 12.1223C3.62843 11.4105 0.353516 10.3615 0.353516 6.62061C0.353516 2.87968 4.49593 0.300095 11.0458 0.300095C13.8057 0.300095 16.1156 0.683643 18.3313 1.99127C18.9456 2.40693 19.5222 2.45688 19.5154 0.895932Z" fill="#231F20"/>
<path fill-rule="evenodd" clip-rule="evenodd" d="M75.9961 12.2828L76.0526 4.72427C76.0526 3.73239 75.5581 3.39166 74.1448 3.39166H72.4833V1.04042H83.0541V3.39166H81.675C80.26 3.39166 79.7655 3.73239 79.7655 4.72427V19.9431L75.6265 19.9092L62.2291 6.67947V16.286C62.2291 17.2494 62.7236 17.6168 64.1386 17.6168H65.978V19.9413H55V17.6168H56.8188C58.2321 17.6168 58.7283 17.2494 58.7283 16.286V4.72427C58.7283 3.73239 58.2339 3.39166 56.8188 3.39166H55V1.04042H64.4928L75.9961 12.2828Z" fill="#231F20"/>
<path fill-rule="evenodd" clip-rule="evenodd" d="M40.5872 0.15737C32.1621 0.15737 26.8887 4.04102 26.8887 10.2741C26.8887 16.5072 32.0885 20.25 40.3305 20.25C49.0842 20.25 54.1745 16.4519 54.1745 9.96194C54.1745 4.12486 48.6804 0.155586 40.5872 0.155586V0.15737ZM40.3956 17.7845C35.733 17.7845 33.0518 14.9784 33.0518 10.1332C33.0518 5.288 35.8494 2.59424 40.6283 2.59424C45.4072 2.59424 47.895 5.45747 47.895 10.3312C47.895 15.205 45.1762 17.7845 40.3956 17.7845Z" fill="#231F20"/>
</g>
<defs>
<clipPath id="clip0_225_2887">
<rect width="111.295" height="20.2355" fill="white" transform="translate(0.353516 0.157341)"/>
</clipPath>
</defs>
</svg>
