<svg width="26" height="26" viewBox="0 0 26 26" fill="none" xmlns="http://www.w3.org/2000/svg">
<path fill-rule="evenodd" clip-rule="evenodd" d="M21.5023 1H4.04132C3.57361 1 3.22283 2.09091 3.22283 2.09091C3.22283 2.09091 0.65045 9.67273 1.0402 9.78182C1.50791 11.3636 2.71615 12.5091 4.08029 12.5091C5.44443 12.5091 6.53574 11.3636 7.04243 9.78182C7.54911 11.3636 8.64042 12.5091 10.0046 12.5091C11.3687 12.5091 12.499 11.3636 13.0057 9.78182C13.4734 11.3636 14.6037 12.5091 16.0068 12.5091C17.3709 12.5091 18.4622 11.3636 18.9689 9.78182C19.4366 11.3636 20.5669 12.5091 21.931 12.5091C23.3342 12.5091 24.5034 11.3636 24.9711 9.78182C25.3219 9.67273 22.3598 2.09091 22.3598 2.09091C22.3598 2.09091 21.97 1 21.5023 1Z" stroke="black" stroke-width="1.875"/>
<path d="M22.6715 12.5088V23.9088C22.6715 24.5088 22.3208 24.9997 21.892 24.9997H4.00229C3.57356 24.9997 3.22278 24.5088 3.22278 23.9088V12.5088" stroke="black" stroke-width="1.875"/>
<path d="M14.4867 14.6367H4.78186V21.6731H14.4867V14.6367Z" stroke="black" stroke-width="1.875"/>
<path d="M21.1126 14.0908H16.0847V24.9454H21.1126V14.0908Z" stroke="black" stroke-width="1.875"/>
<path d="M7.00342 9.78182L8.32858 1" stroke="black" stroke-width="1.875"/>
<path d="M12.9277 9.78182V1" stroke="black" stroke-width="1.875"/>
<path d="M18.93 9.7277L17.1371 1.16406" stroke="black" stroke-width="1.875"/>
<path d="M7.93884 14.6904V21.7268" stroke="black" stroke-width="1.875"/>
<path d="M11.4077 14.6904V21.7268" stroke="black" stroke-width="1.875"/>
</svg>
