<svg width="149" height="147" viewBox="0 0 149 147" fill="none" xmlns="http://www.w3.org/2000/svg">
<path d="M145.79 94.4057C140.417 112.656 127.645 128.615 111.019 137.86C81.0777 154.501 39.7671 146.5 18.0362 120.025C-3.69869 93.5413 -6.88895 56.7932 14.5087 30.0423C26.4363 15.1338 39.2554 9.85804 51.1753 5.0901C73.8909 -3.99613 99.8471 -0.856265 119.275 14.0174C119.671 14.3198 120.066 14.6299 120.454 14.94C143.48 33.3605 154.116 66.1159 145.79 94.4057Z" fill="#4AA547"/>
<path d="M56.0289 98.5771C56.5328 99.2322 57.0329 99.8912 57.5368 100.546C57.9942 101.143 58.5175 101.566 59.3122 101.566C60.1068 101.566 60.665 101.155 61.0876 100.546C62.4908 98.5345 63.9483 96.5653 65.4407 94.6194C65.6191 94.3868 65.8012 94.1581 65.9757 93.9255C65.6152 94.4062 65.9485 93.9604 66.0416 93.8441C66.1579 93.6929 66.2742 93.5417 66.3943 93.3944C66.8013 92.8711 67.2122 92.3478 67.627 91.8284C68.4566 90.7817 69.2939 89.7429 70.135 88.7079C73.6393 84.409 77.2482 80.1915 80.9152 76.0282C84.3109 72.1713 87.757 68.3569 91.238 64.5774C93.8623 61.7322 96.506 58.9024 99.173 56.0998C100.371 54.84 101.6 53.6073 102.782 52.3358C102.797 52.3164 102.817 52.3009 102.832 52.2854C103.584 51.514 103.658 50.134 102.832 49.3743C102.018 48.63 100.724 48.5486 99.9211 49.3743C98.9288 50.3899 97.948 51.4171 96.9712 52.4444C94.436 55.1036 91.9203 57.786 89.4239 60.484C85.9894 64.1937 82.5898 67.9421 79.2368 71.7255C75.5465 75.8926 71.9104 80.1101 68.3674 84.4051C65.2314 88.2117 62.1652 92.0842 59.2618 96.0769C58.5137 95.1 57.7694 94.1232 57.0212 93.1463C54.8544 90.3127 52.6875 87.4752 50.5206 84.6416C50.0166 83.9865 49.5166 83.3275 49.0126 82.6724C48.6715 82.2266 48.3459 81.8816 47.7838 81.7265C47.2915 81.5908 46.6364 81.6529 46.1984 81.9358C45.3572 82.4785 44.7603 83.8353 45.4619 84.7501C46.8186 86.5255 48.1754 88.3009 49.5321 90.0762C51.699 92.9099 53.8659 95.7474 56.0328 98.581L56.0289 98.5771Z" fill="white"/>
</svg>
