<svg width="129" height="129" viewBox="0 0 129 129" fill="none" xmlns="http://www.w3.org/2000/svg">
<g clip-path="url(#clip0_138_1088)">
<path d="M68.5312 69.875V43C68.5312 41.9308 68.1065 40.9055 67.3505 40.1495C66.5945 39.3935 65.5692 38.9688 64.5 38.9688C63.4308 38.9688 62.4055 39.3935 61.6495 40.1495C60.8935 40.9055 60.4688 41.9308 60.4688 43V69.875C60.4688 70.9442 60.8935 71.9695 61.6495 72.7255C62.4055 73.4815 63.4308 73.9062 64.5 73.9062C65.5692 73.9062 66.5945 73.4815 67.3505 72.7255C68.1065 71.9695 68.5312 70.9442 68.5312 69.875Z" fill="#D12E34"/>
<path d="M64.5 91.375C63.4369 91.375 62.3977 91.0598 61.5138 90.4692C60.6299 89.8785 59.941 89.0391 59.5341 88.0569C59.1273 87.0748 59.0209 85.994 59.2283 84.9514C59.4357 83.9087 59.9476 82.951 60.6993 82.1993C61.451 81.4476 62.4087 80.9357 63.4514 80.7283C64.494 80.5209 65.5748 80.6273 66.5569 81.0341C67.5391 81.441 68.3785 82.1299 68.9692 83.0138C69.5598 83.8977 69.875 84.9369 69.875 86C69.875 87.4255 69.3087 88.7927 68.3007 89.8007C67.2927 90.8087 65.9255 91.375 64.5 91.375Z" fill="#D12E34"/>
<path d="M64.5 118.25C53.8693 118.25 43.4773 115.098 34.6381 109.192C25.799 103.285 18.9097 94.8908 14.8415 85.0693C10.7733 75.2477 9.70886 64.4404 11.7828 54.0139C13.8568 43.5874 18.976 34.0101 26.493 26.493C34.0101 18.976 43.5874 13.8568 54.0139 11.7828C64.4404 9.70886 75.2477 10.7733 85.0693 14.8415C94.8908 18.9097 103.285 25.799 109.192 34.6381C115.098 43.4773 118.25 53.8693 118.25 64.5C118.234 78.7506 112.566 92.413 102.49 102.49C92.413 112.566 78.7506 118.234 64.5 118.25ZM64.5 18.8125C55.4639 18.8125 46.6307 21.492 39.1174 26.5123C31.6041 31.5325 25.7483 38.6679 22.2903 47.0162C18.8323 55.3645 17.9275 64.5507 19.6904 73.4132C21.4533 82.2757 25.8046 90.4165 32.1941 96.806C38.5836 103.195 46.7243 107.547 55.5868 109.31C64.4493 111.073 73.6356 110.168 81.9839 106.71C90.3322 103.252 97.4676 97.3959 102.488 89.8826C107.508 82.3694 110.188 73.5362 110.188 64.5C110.175 52.3869 105.357 40.7735 96.7918 32.2082C88.2265 23.6429 76.6132 18.8253 64.5 18.8125Z" fill="#D12E34"/>
</g>
<defs>
<clipPath id="clip0_138_1088">
<rect width="129" height="129" fill="white"/>
</clipPath>
</defs>
</svg>
