<svg width="27" height="25" viewBox="0 0 27 25" fill="none" xmlns="http://www.w3.org/2000/svg">
<path d="M17.1631 23.849C17.1612 22.0238 16.4351 20.274 15.1445 18.9834C13.8539 17.6928 12.1045 16.9668 10.2793 16.965H8.82227C6.99709 16.9668 5.24665 17.6928 3.95606 18.9834C2.66546 20.274 1.93935 22.0238 1.9375 23.849C1.93803 23.9763 1.9136 24.1026 1.86523 24.2203C1.81687 24.3381 1.7461 24.4452 1.65625 24.5354C1.5664 24.6256 1.45938 24.6972 1.3418 24.7461C1.22421 24.7949 1.09803 24.8201 0.970704 24.8201C0.843153 24.8202 0.717476 24.7951 0.59961 24.7463C0.481743 24.6976 0.374372 24.6261 0.28418 24.5359C0.193988 24.4457 0.121993 24.3387 0.0732427 24.2208C0.024492 24.103 -0.000131039 23.9765 5.24427e-07 23.849C0.00238262 21.5102 0.932224 19.2678 2.58594 17.6139C4.23965 15.96 6.48245 15.0296 8.82129 15.027H10.2783C12.6172 15.0296 14.859 15.96 16.5127 17.6139C18.1664 19.2678 19.0963 21.5102 19.0986 23.849C19.0988 23.9765 19.0741 24.103 19.0254 24.2208C18.9766 24.3387 18.9046 24.4457 18.8145 24.5359C18.7243 24.6261 18.6179 24.6976 18.5 24.7463C18.3821 24.7951 18.2555 24.8202 18.1279 24.8201C18.0008 24.8197 17.8751 24.7943 17.7578 24.7452C17.6405 24.6962 17.5339 24.6246 17.4443 24.5344C17.3547 24.4443 17.2836 24.3373 17.2354 24.2197C17.1871 24.1021 17.1627 23.9761 17.1631 23.849ZM24.8271 15.667L22.959 13.8L21.0928 15.667C20.9964 15.764 20.8821 15.8409 20.7559 15.8934C20.6296 15.9459 20.4941 15.973 20.3574 15.973C20.2207 15.973 20.0852 15.9459 19.959 15.8934C19.8328 15.8409 19.7184 15.764 19.6221 15.667C19.5252 15.5705 19.4479 15.4559 19.3955 15.3297C19.3431 15.2035 19.3164 15.0682 19.3164 14.9315C19.3164 14.7948 19.3431 14.6595 19.3955 14.5333C19.4479 14.4071 19.5252 14.2925 19.6221 14.196L21.4893 12.329L19.6221 10.462C19.5252 10.3656 19.4479 10.251 19.3955 10.1248C19.3431 9.99854 19.3164 9.86324 19.3164 9.72656C19.3164 9.58989 19.3431 9.45446 19.3955 9.32825C19.4479 9.20203 19.5252 9.08741 19.6221 8.99097C19.7184 8.894 19.8328 8.81716 19.959 8.76465C20.0852 8.71214 20.2207 8.68506 20.3574 8.68506C20.4941 8.68506 20.6296 8.71214 20.7559 8.76465C20.8821 8.81716 20.9964 8.894 21.0928 8.99097L22.959 10.858L24.8271 8.99097C24.9234 8.89391 25.0379 8.81698 25.1641 8.7644C25.2902 8.71183 25.4249 8.68469 25.5615 8.68469C25.6982 8.68469 25.8338 8.71183 25.96 8.7644C26.0861 8.81698 26.2007 8.89391 26.2969 8.99097C26.394 9.08727 26.4709 9.20189 26.5234 9.32812C26.576 9.45436 26.6035 9.58981 26.6035 9.72656C26.6035 9.86331 26.576 9.99864 26.5234 10.1249C26.4709 10.2511 26.394 10.3657 26.2969 10.462L24.4307 12.329L26.2969 14.196C26.394 14.2924 26.4709 14.4068 26.5234 14.5331C26.576 14.6593 26.6035 14.7948 26.6035 14.9315C26.6035 15.0683 26.576 15.2037 26.5234 15.33C26.4709 15.4562 26.394 15.5707 26.2969 15.667C26.2006 15.7639 26.0861 15.8409 25.96 15.8934C25.8338 15.9459 25.6982 15.973 25.5615 15.973C25.4248 15.9733 25.2903 15.9465 25.1641 15.8939C25.0379 15.8414 24.9232 15.7642 24.8271 15.667ZM2.90918 6.54407C2.9113 4.80897 3.60113 3.14551 4.82813 1.9187C6.05512 0.691893 7.719 0.00185245 9.4541 0C11.1891 0.00185294 12.8523 0.691987 14.0791 1.91882C15.3059 3.14566 15.9962 4.80906 15.998 6.54407C15.9962 8.27908 15.3059 9.94247 14.0791 11.1693C12.8523 12.3961 11.1891 13.0862 9.4541 13.088C7.719 13.0862 6.05512 12.3961 4.82813 11.1693C3.60113 9.9425 2.9113 8.27917 2.90918 6.54407ZM4.84766 6.54407C4.84898 7.76508 5.33495 8.93572 6.19824 9.79919C7.06153 10.6627 8.23212 11.1484 9.45313 11.15C10.6742 11.1484 11.8446 10.6626 12.708 9.79919C13.5715 8.93575 14.057 7.76517 14.0586 6.54407C14.057 5.32297 13.5715 4.15227 12.708 3.28882C11.8446 2.42537 10.6742 1.93958 9.45313 1.93799C8.23229 1.93984 7.06229 2.42586 6.19922 3.28931C5.33615 4.15276 4.84898 5.32323 4.84766 6.54407Z" fill="#FF5555"/>
</svg>
