<svg width="21" height="25" viewBox="0 0 21 25" fill="none" xmlns="http://www.w3.org/2000/svg">
<path d="M19.7527 6.03457C18.5652 5.77826 17.4899 5.14591 16.6835 4.22971C15.8772 3.31352 15.3819 2.16137 15.2699 0.94124V0.412109H11.1736V16.8164C11.1711 17.5426 10.9431 18.2498 10.5217 18.8385C10.1003 19.4273 9.50674 19.868 8.82433 20.0988C8.14192 20.3295 7.40501 20.3388 6.71714 20.1251C6.02927 19.9115 5.42503 19.4857 4.98933 18.9077C4.54686 18.32 4.30141 17.6053 4.28857 16.8674C4.27574 16.1294 4.49619 15.4065 4.91794 14.8035C5.3397 14.2005 5.94085 13.7487 6.63421 13.5137C7.32757 13.2787 8.0771 13.2726 8.7741 13.4964V9.29695C7.21983 9.08014 5.63726 9.35897 4.24777 10.0944C2.85828 10.8299 1.73136 11.9852 1.02463 13.3988C0.317898 14.8124 0.0667122 16.4136 0.306204 17.9783C0.545696 19.543 1.26389 20.9931 2.36032 22.1257C3.40593 23.2052 4.74662 23.9459 6.21127 24.2531C7.67591 24.5604 9.19807 24.4202 10.5834 23.8506C11.9688 23.281 13.1545 22.3077 13.9892 21.055C14.824 19.8023 15.2698 18.3271 15.2699 16.8176V8.43546C16.9254 9.62971 18.9103 10.2701 20.9453 10.2664V6.15936C20.5445 6.15986 20.1448 6.11803 19.7527 6.03457Z" fill="black"/>
</svg>
