<svg width="149" height="147" viewBox="0 0 149 147" fill="none" xmlns="http://www.w3.org/2000/svg">
<path d="M145.794 94.4045C140.421 112.655 127.648 128.614 111.022 137.86C81.08 154.502 39.7682 146.501 18.0367 120.024C-3.6988 93.5439 -6.88915 56.7948 14.5091 30.0432C26.437 15.1342 39.2566 9.85832 51.1767 5.09024C73.893 -3.99624 99.8499 -0.856289 119.279 14.0178C119.674 14.3202 120.07 14.6303 120.457 14.9404C143.484 33.3615 154.121 66.1178 145.794 94.4084V94.4045Z" fill="#E52929"/>
<path d="M102.831 52.3059C103.645 51.5965 103.61 50.1118 102.831 49.3946C101.962 48.5961 100.788 48.6387 99.9194 49.3946C93.2441 55.1939 86.5688 60.997 79.8896 66.7962C77.8196 68.5949 75.7456 70.3936 73.6756 72.1961C72.8615 71.1844 72.0552 70.1726 71.2605 69.1453C71.1869 69.0484 71.059 68.8817 71.0241 68.8352C70.869 68.6337 70.714 68.4282 70.5589 68.2227C70.2333 67.7924 69.9076 67.3622 69.582 66.9319C68.9385 66.0713 68.2989 65.2068 67.6709 64.3346C66.4615 62.6639 65.2752 60.9737 64.1201 59.2603C61.6197 55.5621 59.2512 51.7748 57.0687 47.8789C56.5415 46.9408 55.177 46.5454 54.2544 47.1424C53.3047 47.7549 52.9519 48.9527 53.5179 49.9567C57.5145 57.0817 62.112 63.8695 67.0623 70.3664C68.2214 71.886 69.3998 73.3862 70.5938 74.8748C67.0197 77.9799 63.4455 81.0888 59.8675 84.1939C56.1151 87.454 52.3627 90.7141 48.6102 93.9742C47.7962 94.6836 47.8311 96.1683 48.6102 96.8855C49.4786 97.684 50.6493 97.6414 51.5215 96.8855C58.1968 91.0863 64.8721 85.2832 71.5513 79.4839C72.0979 79.0071 72.6445 78.5342 73.1949 78.0574C76.6178 82.1587 80.1997 86.1321 83.9522 89.9388C87.0844 93.1175 90.3406 96.1761 93.7442 99.0641C94.566 99.758 95.8607 99.9285 96.6554 99.0641C97.357 98.2965 97.5315 96.8971 96.6554 96.1528C90.4685 90.9079 84.7623 85.101 79.4128 79.011C78.3584 77.8093 77.3234 76.5921 76.2961 75.3671C81.3937 70.9402 86.4874 66.5132 91.585 62.0824C95.3374 58.8223 99.0898 55.5621 102.842 52.302L102.831 52.3059Z" fill="white"/>
</svg>
