<svg width="101" height="29" viewBox="0 0 101 29" fill="none" xmlns="http://www.w3.org/2000/svg">
<path fill-rule="evenodd" clip-rule="evenodd" d="M79.0078 11.7882C79.9233 11.6095 86.2673 11.7882 87.7288 11.7882C89.1438 11.6829 90.5659 11.7374 91.9689 11.9506C98.1524 13.5746 98.1042 23.3188 91.4068 24.5368C90.411 24.7155 84.1794 24.5368 82.6697 24.5368C81.2541 24.6326 79.8324 24.5727 78.4296 24.3582C77.5843 24.1066 76.7993 23.6818 76.1232 23.1103C75.4472 22.5388 74.8947 21.8328 74.5 21.0361C74.1054 20.2395 73.877 19.3693 73.8291 18.4796C73.7812 17.5899 73.9148 16.6998 74.2216 15.8645C74.5752 14.8004 75.2119 13.8555 76.062 13.1335C76.912 12.4115 77.9424 11.9404 79.0399 11.7719L79.0078 11.7882ZM100.385 19.3562C100.602 17.6418 100.394 15.8997 99.7802 14.2867C99.1662 12.6736 98.1653 11.2402 96.8675 10.1154C95.6369 9.06038 94.1705 8.32457 92.5953 7.97171C90.561 7.71081 88.5072 7.64013 86.46 7.76059H80.0357C78.2493 7.7186 76.4866 8.17967 74.9444 9.09229C73.5326 9.95802 72.3429 11.1486 71.4722 12.567C70.6014 13.9855 70.0741 15.5918 69.9332 17.2553C69.7923 18.9187 70.0419 20.5923 70.6615 22.1398C71.2811 23.6873 72.2533 25.0651 73.4989 26.1609C76.7111 28.938 79.8269 28.532 83.8903 28.532H90.3146C92.8277 28.5669 95.2612 27.6411 97.1283 25.9398C98.9953 24.2386 100.158 21.8872 100.385 19.3562ZM39.8996 10.5702C40.3072 11.5305 40.848 12.4273 41.5056 13.2336L46.5648 20.7366C47.4964 22.2145 48.7812 24.342 49.8734 25.7549C50.4711 26.6662 51.2898 27.4074 52.2514 27.9078C53.213 28.4082 54.2854 28.651 55.3662 28.6132C56.4014 28.5232 57.3996 28.1807 58.2752 27.6149C59.1507 27.0492 59.8775 26.2772 60.3932 25.3651C61.4854 23.7411 62.5936 22.117 63.75 20.3631L69.6604 11.5121C69.9204 11.1717 70.0724 10.7597 70.0962 10.3302C70.1199 9.90076 70.0144 9.4741 69.7935 9.10652C69.5726 8.73894 69.2467 8.4477 68.8588 8.2712C68.4709 8.0947 68.0392 8.04124 67.6206 8.11787C67.146 8.2912 66.7123 8.5627 66.3473 8.91503C65.9823 9.26736 65.6939 9.69279 65.5006 10.1642L62.1439 15.1987C61.0357 16.8227 59.9114 18.5604 58.7872 20.2007C58.209 21.0452 57.695 21.8247 57.1811 22.7017C56.6671 23.5787 55.9604 24.6505 54.6916 24.3257C53.7816 23.8758 53.0507 23.1252 52.6198 22.1982L51.0137 19.6972C49.8894 18.0732 48.8134 16.4492 47.6409 14.6952C46.4685 12.9413 45.4566 11.4471 44.2842 9.69319C44.0976 9.17395 43.7453 8.73239 43.2828 8.43828C42.8203 8.14417 42.2741 8.01429 41.7305 8.06915C41.4437 8.10216 41.1667 8.19447 40.9167 8.34036C40.6667 8.48626 40.4491 8.6826 40.2774 8.91719C40.1056 9.15177 39.9835 9.41958 39.9185 9.70395C39.8535 9.98832 39.847 10.2832 39.8996 10.5702ZM0.59861 10.5214C0.989047 11.4907 1.53136 12.39 2.2047 13.1849L8.9342 23.1889C10.5403 25.7224 12.1464 28.7431 16.0492 28.6132C19.5826 28.4832 21.0441 25.495 22.8429 22.7991L27.9021 15.2961C28.4321 14.4841 29.0103 13.6721 29.5885 12.7951C30.3494 12.021 30.806 10.9936 30.8734 9.90431C30.8344 9.6219 30.7397 9.3503 30.5949 9.10563C30.4501 8.86096 30.2581 8.64823 30.0304 8.48006C29.8026 8.3119 29.5438 8.19175 29.2692 8.12674C28.9947 8.06173 28.71 8.05319 28.4321 8.10163C27.9506 8.25607 27.5091 8.51689 27.1397 8.8652C26.7702 9.2135 26.482 9.64057 26.296 10.1154C25.1236 11.8531 24.0796 13.3797 22.9232 15.1987C21.7668 17.0176 20.7068 18.4467 19.5504 20.0708C18.9562 20.9315 18.4583 21.6948 17.9444 22.5718C17.7547 23.0729 17.4205 23.5049 16.9853 23.8118C16.55 24.1187 16.0337 24.2864 15.5031 24.2932C14.5568 23.8792 13.7997 23.1195 13.3831 22.1658C10.6045 18.1544 7.71358 13.7533 4.96717 9.64446C4.77671 9.13132 4.42583 8.69506 3.96782 8.40194C3.50981 8.10883 2.96971 7.97487 2.42955 8.02043C2.14276 8.05343 1.86575 8.14575 1.61576 8.29164C1.36577 8.43754 1.14813 8.63388 0.976398 8.86847C0.804663 9.10305 0.6825 9.37086 0.617507 9.65523C0.552514 9.9396 0.546082 10.2345 0.59861 10.5214ZM34.9689 8.11787C32.9131 8.55636 33.2504 10.3266 33.2504 12.5352V24.9429C33.1026 25.8745 33.2311 26.8296 33.6198 27.6875C33.842 28.0167 34.1512 28.2762 34.5122 28.4364C34.8731 28.5966 35.2714 28.651 35.6614 28.5934C36.0515 28.5359 36.4178 28.3687 36.7184 28.1109C37.0191 27.8531 37.2421 27.515 37.3619 27.1353C37.5547 26.4857 37.4583 19.0151 37.4583 17.927V11.707C37.6022 10.7821 37.4796 9.83485 37.105 8.97861C36.8807 8.63624 36.5612 8.36869 36.1868 8.20973C35.8124 8.05076 35.3997 8.00749 35.001 8.08539L34.9689 8.11787ZM35.0813 0.582362C34.7808 0.782026 34.5239 1.04179 34.3264 1.34566L32.7204 2.87225C31.7567 3.83043 32.5597 4.26892 33.7964 5.45446L34.5513 6.21776C35.531 7.20842 35.9004 6.4776 37.1853 5.17837C38.9841 3.44066 38.9198 3.83043 36.1413 1.02085C36.0403 0.836767 35.8802 0.693009 35.6875 0.613294C35.4948 0.533578 35.281 0.522668 35.0813 0.582362Z" fill="#0072B8"/>
</svg>
