<svg width="42" height="42" viewBox="0 0 42 42" fill="none" xmlns="http://www.w3.org/2000/svg">
<path d="M21.6563 19.1494V15.0938H20.3438V19.1494C19.9601 19.2838 19.6278 19.534 19.3926 19.8656C19.1574 20.1971 19.0311 20.5935 19.0311 21C19.0311 21.4065 19.1574 21.8029 19.3926 22.1344C19.6278 22.466 19.9601 22.7162 20.3438 22.8506V25.5938H21.6563V22.8506C22.0399 22.7162 22.3723 22.466 22.6074 22.1344C22.8426 21.8029 22.9689 21.4065 22.9689 21C22.9689 20.5935 22.8426 20.1971 22.6074 19.8656C22.3723 19.534 22.0399 19.2838 21.6563 19.1494Z" fill="#082431"/>
<path d="M33.4688 18.375H32.5106C31.8204 15.372 29.9865 12.7564 27.3984 11.0841L26.2434 1.89C26.2242 1.73106 26.1476 1.58462 26.0279 1.47826C25.9083 1.3719 25.7538 1.31294 25.5938 1.3125H16.4062C16.2462 1.31294 16.0917 1.3719 15.9721 1.47826C15.8524 1.58462 15.7758 1.73106 15.7566 1.89L14.6016 11.0841C12.0135 12.7564 10.1796 15.372 9.48938 18.375H8.53125C8.18347 18.376 7.85024 18.5147 7.60432 18.7606C7.3584 19.0065 7.21979 19.3397 7.21875 19.6875V22.3125C7.21979 22.6603 7.3584 22.9935 7.60432 23.2394C7.85024 23.4853 8.18347 23.624 8.53125 23.625H9.48938C10.1796 26.628 12.0135 29.2436 14.6016 30.9159L15.7566 40.11C15.7758 40.2689 15.8524 40.4154 15.9721 40.5217C16.0917 40.6281 16.2462 40.6871 16.4062 40.6875H25.5938C25.7538 40.6871 25.9083 40.6281 26.0279 40.5217C26.1476 40.4154 26.2242 40.2689 26.2434 40.11L27.3984 30.9159C29.9865 29.2436 31.8204 26.628 32.5106 23.625H33.4688C33.8165 23.624 34.1498 23.4853 34.3957 23.2394C34.6416 22.9935 34.7802 22.6603 34.7812 22.3125V19.6875C34.7802 19.3397 34.6416 19.0065 34.3957 18.7606C34.1498 18.5147 33.8165 18.376 33.4688 18.375ZM9.26625 22.3125H8.53125V19.6875H9.26625C9.16125 20.5594 9.16125 21.4406 9.26625 22.3125ZM18.375 3.9375H23.625V5.25H18.375V3.9375ZM18.375 6.5625H23.625V7.875H18.375V6.5625ZM23.625 38.0625H18.375V36.75H23.625V38.0625ZM23.625 35.4375H18.375V34.125H23.625V35.4375ZM29.4984 21.6562C29.4159 22.7062 29.14 23.7319 28.6847 24.6816L27.5822 24.0384L26.9259 25.1803L28.035 25.8169C27.4363 26.6847 26.6847 27.4363 25.8169 28.035L25.1803 26.9259L24.0384 27.5822L24.6816 28.6847C23.7319 29.14 22.7062 29.4159 21.6562 29.4984V28.2188H20.3438V29.4984C19.2938 29.4159 18.2681 29.14 17.3184 28.6847L17.9616 27.5822L16.8197 26.9259L16.1831 28.035C15.3153 27.4363 14.5637 26.6847 13.965 25.8169L15.0741 25.1803L14.4178 24.0384L13.3153 24.6816C12.86 23.7319 12.5841 22.7062 12.5016 21.6562H13.7812V20.3438H12.5016C12.5841 19.2938 12.86 18.2681 13.3153 17.3184L14.4178 17.9616L15.0741 16.8197L13.965 16.1831C14.5637 15.3153 15.3153 14.5637 16.1831 13.965L16.8197 15.0741L17.9616 14.4178L17.3184 13.3153C18.2681 12.86 19.2938 12.5841 20.3438 12.5016V13.7812H21.6562V12.5016C22.7062 12.5841 23.7319 12.86 24.6816 13.3153L24.0384 14.4178L25.1803 15.0741L25.8169 13.965C26.6847 14.5637 27.4363 15.3153 28.035 16.1831L26.9259 16.8197L27.5822 17.9616L28.6847 17.3184C29.14 18.2681 29.4159 19.2938 29.4984 20.3438H28.2188V21.6562H29.4984ZM33.4688 22.3125H32.7338C32.8387 21.4406 32.8387 20.5594 32.7338 19.6875H33.4688V22.3125Z" fill="#082431"/>
</svg>
