<svg width="24" height="25" viewBox="0 0 24 25" fill="none" xmlns="http://www.w3.org/2000/svg">
<path d="M0 24.4053L1.72691 17.99C0.747875 16.2335 0.23796 14.2669 0.23796 12.2663C0.231161 5.72887 5.56147 0.412109 12.1156 0.412109C18.6697 0.412109 24 5.72887 24 12.2663C24 18.8037 18.6697 24.1205 12.1156 24.1205C10.1507 24.1205 8.20623 23.6254 6.46572 22.6828L0 24.4121L0 24.4053ZM6.79207 20.2686L7.2 20.5127C8.69575 21.4011 10.3955 21.869 12.1156 21.869C17.4255 21.869 21.7496 17.5559 21.7496 12.2595C21.7496 6.96311 17.4255 2.65003 12.1156 2.65003C6.80567 2.65003 2.48159 6.96311 2.48159 12.2663C2.48159 14.016 2.9711 15.7385 3.88895 17.2508L4.14051 17.6577L3.17507 21.2383L6.78527 20.2753L6.79207 20.2686Z" fill="#151515"/>
<path fill-rule="evenodd" clip-rule="evenodd" d="M16.8077 14.1653C16.3138 13.868 15.669 13.5361 15.0927 13.7781C14.6469 13.9648 14.3588 14.6631 14.0707 15.0227C13.9197 15.2093 13.7483 15.237 13.515 15.1402C11.8413 14.4695 10.5585 13.3425 9.63243 11.7869C9.47466 11.5449 9.5021 11.3582 9.69417 11.13C9.97542 10.7982 10.3253 10.4248 10.4007 9.97538C10.4762 9.52597 10.2704 9.00741 10.0852 8.61331C9.85194 8.10858 9.59128 7.3826 9.08366 7.0922C8.6172 6.82947 8.00669 6.97467 7.59511 7.31346C6.8817 7.90115 6.53871 8.81381 6.54557 9.72647C6.54557 9.9823 6.57987 10.245 6.64161 10.4939C6.78566 11.0955 7.06005 11.6555 7.36874 12.1879C7.60197 12.5889 7.85577 12.9761 8.13016 13.3564C9.02878 14.5802 10.1401 15.6449 11.4297 16.447C12.0745 16.848 12.7673 17.1937 13.4876 17.4357C14.2902 17.7053 15.0104 17.9819 15.8816 17.816C16.794 17.6431 17.6926 17.0762 18.0561 16.1911C18.1659 15.9284 18.2139 15.638 18.159 15.3615C18.0356 14.7876 17.2673 14.4488 16.8077 14.1722V14.1653Z" fill="#151515"/>
</svg>
