<svg width="24" height="24" viewBox="0 0 24 24" fill="none" xmlns="http://www.w3.org/2000/svg">
<g clip-path="url(#clip0_106_7913)">
<path d="M12 20.394C11.6343 20.3951 11.2721 20.3227 10.9349 20.1812C10.5977 20.0396 10.2923 19.8318 10.037 19.57L3.85 13.267C2.82505 12.2119 2.25171 10.7989 2.25171 9.32796C2.25171 7.85702 2.82505 6.44401 3.85 5.38896C4.35536 4.87025 4.95947 4.458 5.62672 4.17651C6.29396 3.89502 7.01081 3.75 7.735 3.75C8.45918 3.75 9.17604 3.89502 9.84328 4.17651C10.5105 4.458 11.1146 4.87025 11.62 5.38896L11.998 5.77396L12.377 5.38896C12.8824 4.87025 13.4865 4.458 14.1537 4.17651C14.821 3.89502 15.5378 3.75 16.262 3.75C16.9862 3.75 17.703 3.89502 18.3703 4.17651C19.0375 4.458 19.6416 4.87025 20.147 5.38896C21.1719 6.44401 21.7453 7.85702 21.7453 9.32796C21.7453 10.7989 21.1719 12.2119 20.147 13.267L13.961 19.567C13.7062 19.8292 13.4013 20.0375 13.0645 20.1796C12.7276 20.3216 12.3656 20.3945 12 20.394ZM7.737 5.24996C7.21223 5.24959 6.69273 5.35465 6.20934 5.5589C5.72595 5.76315 5.28851 6.06242 4.923 6.43896C4.17131 7.21259 3.75081 8.24878 3.75081 9.32746C3.75081 10.4061 4.17131 11.4423 4.923 12.216L11.108 18.516C11.2244 18.6346 11.3632 18.7289 11.5165 18.7933C11.6697 18.8576 11.8343 18.8908 12.0005 18.8908C12.1667 18.8908 12.3313 18.8576 12.4845 18.7933C12.6378 18.7289 12.7766 18.6346 12.893 18.516L19.078 12.216C19.8292 11.4421 20.2494 10.406 20.2494 9.32746C20.2494 8.24893 19.8292 7.21283 19.078 6.43896C18.7123 6.0625 18.2747 5.76325 17.7913 5.55889C17.3079 5.35454 16.7884 5.24925 16.2635 5.24925C15.7386 5.24925 15.2191 5.35454 14.7357 5.55889C14.2523 5.76325 13.8147 6.0625 13.449 6.43896L12.536 7.36996C12.4661 7.44089 12.3828 7.49722 12.291 7.53566C12.1991 7.57411 12.1006 7.59391 12.001 7.59391C11.9014 7.59391 11.8029 7.57411 11.711 7.53566C11.6192 7.49722 11.5359 7.44089 11.466 7.36996L10.55 6.43896C10.1846 6.06254 9.74732 5.76334 9.26411 5.55909C8.78091 5.35485 8.2616 5.24973 7.737 5.24996Z" fill="black"/>
</g>
<defs>
<clipPath id="clip0_106_7913">
<rect width="24" height="24" fill="white"/>
</clipPath>
</defs>
</svg>
